%TF.GenerationSoftware,KiCad,Pcbnew,(6.0.10)*%
%TF.CreationDate,2024-04-02T10:47:47-04:00*%
%TF.ProjectId,OM3Controller,4f4d3343-6f6e-4747-926f-6c6c65722e6b,rev?*%
%TF.SameCoordinates,Original*%
%TF.FileFunction,Paste,Top*%
%TF.FilePolarity,Positive*%
%FSLAX46Y46*%
G04 Gerber Fmt 4.6, Leading zero omitted, Abs format (unit mm)*
G04 Created by KiCad (PCBNEW (6.0.10)) date 2024-04-02 10:47:47*
%MOMM*%
%LPD*%
G01*
G04 APERTURE LIST*
G04 Aperture macros list*
%AMRoundRect*
0 Rectangle with rounded corners*
0 $1 Rounding radius*
0 $2 $3 $4 $5 $6 $7 $8 $9 X,Y pos of 4 corners*
0 Add a 4 corners polygon primitive as box body*
4,1,4,$2,$3,$4,$5,$6,$7,$8,$9,$2,$3,0*
0 Add four circle primitives for the rounded corners*
1,1,$1+$1,$2,$3*
1,1,$1+$1,$4,$5*
1,1,$1+$1,$6,$7*
1,1,$1+$1,$8,$9*
0 Add four rect primitives between the rounded corners*
20,1,$1+$1,$2,$3,$4,$5,0*
20,1,$1+$1,$4,$5,$6,$7,0*
20,1,$1+$1,$6,$7,$8,$9,0*
20,1,$1+$1,$8,$9,$2,$3,0*%
G04 Aperture macros list end*
%ADD10R,1.100000X0.400000*%
%ADD11R,5.900000X13.700000*%
%ADD12RoundRect,0.250000X-0.650000X0.412500X-0.650000X-0.412500X0.650000X-0.412500X0.650000X0.412500X0*%
%ADD13RoundRect,0.250000X0.650000X-0.412500X0.650000X0.412500X-0.650000X0.412500X-0.650000X-0.412500X0*%
%ADD14RoundRect,0.250000X0.400000X0.625000X-0.400000X0.625000X-0.400000X-0.625000X0.400000X-0.625000X0*%
%ADD15RoundRect,0.250000X-0.625000X0.400000X-0.625000X-0.400000X0.625000X-0.400000X0.625000X0.400000X0*%
G04 APERTURE END LIST*
D10*
%TO.C,U2*%
X266625000Y-222275000D03*
X266625000Y-221625000D03*
X266625000Y-220975000D03*
X266625000Y-220325000D03*
X266625000Y-219675000D03*
X266625000Y-219025000D03*
X266625000Y-218375000D03*
X266625000Y-217725000D03*
X266625000Y-217075000D03*
X266625000Y-216425000D03*
X266625000Y-215775000D03*
X266625000Y-215125000D03*
X266625000Y-214475000D03*
X266625000Y-213825000D03*
X266625000Y-213175000D03*
X266625000Y-212525000D03*
X266625000Y-211875000D03*
X266625000Y-211225000D03*
X253375000Y-211225000D03*
X253375000Y-211875000D03*
X253375000Y-212525000D03*
X253375000Y-213175000D03*
X253375000Y-213825000D03*
X253375000Y-214475000D03*
X253375000Y-215125000D03*
X253375000Y-215775000D03*
X253375000Y-216425000D03*
X253375000Y-217075000D03*
X253375000Y-217725000D03*
X253375000Y-218375000D03*
X253375000Y-219025000D03*
X253375000Y-219675000D03*
X253375000Y-220325000D03*
X253375000Y-220975000D03*
X253375000Y-221625000D03*
X253375000Y-222275000D03*
D11*
X260000000Y-216750000D03*
%TD*%
D10*
%TO.C,U19*%
X398375000Y-211250000D03*
X398375000Y-211900000D03*
X398375000Y-212550000D03*
X398375000Y-213200000D03*
X398375000Y-213850000D03*
X398375000Y-214500000D03*
X398375000Y-215150000D03*
X398375000Y-215800000D03*
X398375000Y-216450000D03*
X398375000Y-217100000D03*
X398375000Y-217750000D03*
X398375000Y-218400000D03*
X398375000Y-219050000D03*
X398375000Y-219700000D03*
X398375000Y-220350000D03*
X398375000Y-221000000D03*
X398375000Y-221650000D03*
X398375000Y-222300000D03*
X411625000Y-222300000D03*
X411625000Y-221650000D03*
X411625000Y-221000000D03*
X411625000Y-220350000D03*
X411625000Y-219700000D03*
X411625000Y-219050000D03*
X411625000Y-218400000D03*
X411625000Y-217750000D03*
X411625000Y-217100000D03*
X411625000Y-216450000D03*
X411625000Y-215800000D03*
X411625000Y-215150000D03*
X411625000Y-214500000D03*
X411625000Y-213850000D03*
X411625000Y-213200000D03*
X411625000Y-212550000D03*
X411625000Y-211900000D03*
X411625000Y-211250000D03*
D11*
X405000000Y-216775000D03*
%TD*%
D10*
%TO.C,U8*%
X313625000Y-238250000D03*
X313625000Y-237600000D03*
X313625000Y-236950000D03*
X313625000Y-236300000D03*
X313625000Y-235650000D03*
X313625000Y-235000000D03*
X313625000Y-234350000D03*
X313625000Y-233700000D03*
X313625000Y-233050000D03*
X313625000Y-232400000D03*
X313625000Y-231750000D03*
X313625000Y-231100000D03*
X313625000Y-230450000D03*
X313625000Y-229800000D03*
X313625000Y-229150000D03*
X313625000Y-228500000D03*
X313625000Y-227850000D03*
X313625000Y-227200000D03*
X300375000Y-227200000D03*
X300375000Y-227850000D03*
X300375000Y-228500000D03*
X300375000Y-229150000D03*
X300375000Y-229800000D03*
X300375000Y-230450000D03*
X300375000Y-231100000D03*
X300375000Y-231750000D03*
X300375000Y-232400000D03*
X300375000Y-233050000D03*
X300375000Y-233700000D03*
X300375000Y-234350000D03*
X300375000Y-235000000D03*
X300375000Y-235650000D03*
X300375000Y-236300000D03*
X300375000Y-236950000D03*
X300375000Y-237600000D03*
X300375000Y-238250000D03*
D11*
X307000000Y-232725000D03*
%TD*%
D12*
%TO.C,C7*%
X307000000Y-185437500D03*
X307000000Y-188562500D03*
%TD*%
D13*
%TO.C,C8*%
X307000000Y-246562500D03*
X307000000Y-243437500D03*
%TD*%
D12*
%TO.C,C22*%
X405000000Y-271437500D03*
X405000000Y-274562500D03*
%TD*%
D10*
%TO.C,U18*%
X398375000Y-177250000D03*
X398375000Y-177900000D03*
X398375000Y-178550000D03*
X398375000Y-179200000D03*
X398375000Y-179850000D03*
X398375000Y-180500000D03*
X398375000Y-181150000D03*
X398375000Y-181800000D03*
X398375000Y-182450000D03*
X398375000Y-183100000D03*
X398375000Y-183750000D03*
X398375000Y-184400000D03*
X398375000Y-185050000D03*
X398375000Y-185700000D03*
X398375000Y-186350000D03*
X398375000Y-187000000D03*
X398375000Y-187650000D03*
X398375000Y-188300000D03*
X411625000Y-188300000D03*
X411625000Y-187650000D03*
X411625000Y-187000000D03*
X411625000Y-186350000D03*
X411625000Y-185700000D03*
X411625000Y-185050000D03*
X411625000Y-184400000D03*
X411625000Y-183750000D03*
X411625000Y-183100000D03*
X411625000Y-182450000D03*
X411625000Y-181800000D03*
X411625000Y-181150000D03*
X411625000Y-180500000D03*
X411625000Y-179850000D03*
X411625000Y-179200000D03*
X411625000Y-178550000D03*
X411625000Y-177900000D03*
X411625000Y-177250000D03*
D11*
X405000000Y-182775000D03*
%TD*%
D14*
%TO.C,R1*%
X336500000Y-174500000D03*
X333400000Y-174500000D03*
%TD*%
D15*
%TO.C,R2*%
X327750000Y-170950000D03*
X327750000Y-174050000D03*
%TD*%
D13*
%TO.C,C10*%
X307000000Y-314562500D03*
X307000000Y-311437500D03*
%TD*%
D10*
%TO.C,U11*%
X313625000Y-340250000D03*
X313625000Y-339600000D03*
X313625000Y-338950000D03*
X313625000Y-338300000D03*
X313625000Y-337650000D03*
X313625000Y-337000000D03*
X313625000Y-336350000D03*
X313625000Y-335700000D03*
X313625000Y-335050000D03*
X313625000Y-334400000D03*
X313625000Y-333750000D03*
X313625000Y-333100000D03*
X313625000Y-332450000D03*
X313625000Y-331800000D03*
X313625000Y-331150000D03*
X313625000Y-330500000D03*
X313625000Y-329850000D03*
X313625000Y-329200000D03*
X300375000Y-329200000D03*
X300375000Y-329850000D03*
X300375000Y-330500000D03*
X300375000Y-331150000D03*
X300375000Y-331800000D03*
X300375000Y-332450000D03*
X300375000Y-333100000D03*
X300375000Y-333750000D03*
X300375000Y-334400000D03*
X300375000Y-335050000D03*
X300375000Y-335700000D03*
X300375000Y-336350000D03*
X300375000Y-337000000D03*
X300375000Y-337650000D03*
X300375000Y-338300000D03*
X300375000Y-338950000D03*
X300375000Y-339600000D03*
X300375000Y-340250000D03*
D11*
X307000000Y-334725000D03*
%TD*%
D13*
%TO.C,C1*%
X259910000Y-196562500D03*
X259910000Y-193437500D03*
%TD*%
D10*
%TO.C,U12*%
X351375000Y-161250000D03*
X351375000Y-161900000D03*
X351375000Y-162550000D03*
X351375000Y-163200000D03*
X351375000Y-163850000D03*
X351375000Y-164500000D03*
X351375000Y-165150000D03*
X351375000Y-165800000D03*
X351375000Y-166450000D03*
X351375000Y-167100000D03*
X351375000Y-167750000D03*
X351375000Y-168400000D03*
X351375000Y-169050000D03*
X351375000Y-169700000D03*
X351375000Y-170350000D03*
X351375000Y-171000000D03*
X351375000Y-171650000D03*
X351375000Y-172300000D03*
X364625000Y-172300000D03*
X364625000Y-171650000D03*
X364625000Y-171000000D03*
X364625000Y-170350000D03*
X364625000Y-169700000D03*
X364625000Y-169050000D03*
X364625000Y-168400000D03*
X364625000Y-167750000D03*
X364625000Y-167100000D03*
X364625000Y-166450000D03*
X364625000Y-165800000D03*
X364625000Y-165150000D03*
X364625000Y-164500000D03*
X364625000Y-163850000D03*
X364625000Y-163200000D03*
X364625000Y-162550000D03*
X364625000Y-161900000D03*
X364625000Y-161250000D03*
D11*
X358000000Y-166775000D03*
%TD*%
D12*
%TO.C,C16*%
X358000000Y-255437500D03*
X358000000Y-258562500D03*
%TD*%
D10*
%TO.C,U15*%
X351375000Y-263250000D03*
X351375000Y-263900000D03*
X351375000Y-264550000D03*
X351375000Y-265200000D03*
X351375000Y-265850000D03*
X351375000Y-266500000D03*
X351375000Y-267150000D03*
X351375000Y-267800000D03*
X351375000Y-268450000D03*
X351375000Y-269100000D03*
X351375000Y-269750000D03*
X351375000Y-270400000D03*
X351375000Y-271050000D03*
X351375000Y-271700000D03*
X351375000Y-272350000D03*
X351375000Y-273000000D03*
X351375000Y-273650000D03*
X351375000Y-274300000D03*
X364625000Y-274300000D03*
X364625000Y-273650000D03*
X364625000Y-273000000D03*
X364625000Y-272350000D03*
X364625000Y-271700000D03*
X364625000Y-271050000D03*
X364625000Y-270400000D03*
X364625000Y-269750000D03*
X364625000Y-269100000D03*
X364625000Y-268450000D03*
X364625000Y-267800000D03*
X364625000Y-267150000D03*
X364625000Y-266500000D03*
X364625000Y-265850000D03*
X364625000Y-265200000D03*
X364625000Y-264550000D03*
X364625000Y-263900000D03*
X364625000Y-263250000D03*
D11*
X358000000Y-268775000D03*
%TD*%
D13*
%TO.C,C17*%
X358000000Y-316037500D03*
X358000000Y-312912500D03*
%TD*%
D12*
%TO.C,C4*%
X260000000Y-271437500D03*
X260000000Y-274562500D03*
%TD*%
D10*
%TO.C,U22*%
X398375000Y-313250000D03*
X398375000Y-313900000D03*
X398375000Y-314550000D03*
X398375000Y-315200000D03*
X398375000Y-315850000D03*
X398375000Y-316500000D03*
X398375000Y-317150000D03*
X398375000Y-317800000D03*
X398375000Y-318450000D03*
X398375000Y-319100000D03*
X398375000Y-319750000D03*
X398375000Y-320400000D03*
X398375000Y-321050000D03*
X398375000Y-321700000D03*
X398375000Y-322350000D03*
X398375000Y-323000000D03*
X398375000Y-323650000D03*
X398375000Y-324300000D03*
X411625000Y-324300000D03*
X411625000Y-323650000D03*
X411625000Y-323000000D03*
X411625000Y-322350000D03*
X411625000Y-321700000D03*
X411625000Y-321050000D03*
X411625000Y-320400000D03*
X411625000Y-319750000D03*
X411625000Y-319100000D03*
X411625000Y-318450000D03*
X411625000Y-317800000D03*
X411625000Y-317150000D03*
X411625000Y-316500000D03*
X411625000Y-315850000D03*
X411625000Y-315200000D03*
X411625000Y-314550000D03*
X411625000Y-313900000D03*
X411625000Y-313250000D03*
D11*
X405000000Y-318775000D03*
%TD*%
D13*
%TO.C,C15*%
X358000000Y-248037500D03*
X358000000Y-244912500D03*
%TD*%
D12*
%TO.C,C5*%
X260000000Y-305437500D03*
X260000000Y-308562500D03*
%TD*%
D10*
%TO.C,U9*%
X313625000Y-272275000D03*
X313625000Y-271625000D03*
X313625000Y-270975000D03*
X313625000Y-270325000D03*
X313625000Y-269675000D03*
X313625000Y-269025000D03*
X313625000Y-268375000D03*
X313625000Y-267725000D03*
X313625000Y-267075000D03*
X313625000Y-266425000D03*
X313625000Y-265775000D03*
X313625000Y-265125000D03*
X313625000Y-264475000D03*
X313625000Y-263825000D03*
X313625000Y-263175000D03*
X313625000Y-262525000D03*
X313625000Y-261875000D03*
X313625000Y-261225000D03*
X300375000Y-261225000D03*
X300375000Y-261875000D03*
X300375000Y-262525000D03*
X300375000Y-263175000D03*
X300375000Y-263825000D03*
X300375000Y-264475000D03*
X300375000Y-265125000D03*
X300375000Y-265775000D03*
X300375000Y-266425000D03*
X300375000Y-267075000D03*
X300375000Y-267725000D03*
X300375000Y-268375000D03*
X300375000Y-269025000D03*
X300375000Y-269675000D03*
X300375000Y-270325000D03*
X300375000Y-270975000D03*
X300375000Y-271625000D03*
X300375000Y-272275000D03*
D11*
X307000000Y-266750000D03*
%TD*%
D12*
%TO.C,C2*%
X260000000Y-203437500D03*
X260000000Y-206562500D03*
%TD*%
D10*
%TO.C,U3*%
X266625000Y-256275000D03*
X266625000Y-255625000D03*
X266625000Y-254975000D03*
X266625000Y-254325000D03*
X266625000Y-253675000D03*
X266625000Y-253025000D03*
X266625000Y-252375000D03*
X266625000Y-251725000D03*
X266625000Y-251075000D03*
X266625000Y-250425000D03*
X266625000Y-249775000D03*
X266625000Y-249125000D03*
X266625000Y-248475000D03*
X266625000Y-247825000D03*
X266625000Y-247175000D03*
X266625000Y-246525000D03*
X266625000Y-245875000D03*
X266625000Y-245225000D03*
X253375000Y-245225000D03*
X253375000Y-245875000D03*
X253375000Y-246525000D03*
X253375000Y-247175000D03*
X253375000Y-247825000D03*
X253375000Y-248475000D03*
X253375000Y-249125000D03*
X253375000Y-249775000D03*
X253375000Y-250425000D03*
X253375000Y-251075000D03*
X253375000Y-251725000D03*
X253375000Y-252375000D03*
X253375000Y-253025000D03*
X253375000Y-253675000D03*
X253375000Y-254325000D03*
X253375000Y-254975000D03*
X253375000Y-255625000D03*
X253375000Y-256275000D03*
D11*
X260000000Y-250750000D03*
%TD*%
D12*
%TO.C,C20*%
X405000000Y-203437500D03*
X405000000Y-206562500D03*
%TD*%
D10*
%TO.C,U20*%
X398375000Y-245250000D03*
X398375000Y-245900000D03*
X398375000Y-246550000D03*
X398375000Y-247200000D03*
X398375000Y-247850000D03*
X398375000Y-248500000D03*
X398375000Y-249150000D03*
X398375000Y-249800000D03*
X398375000Y-250450000D03*
X398375000Y-251100000D03*
X398375000Y-251750000D03*
X398375000Y-252400000D03*
X398375000Y-253050000D03*
X398375000Y-253700000D03*
X398375000Y-254350000D03*
X398375000Y-255000000D03*
X398375000Y-255650000D03*
X398375000Y-256300000D03*
X411625000Y-256300000D03*
X411625000Y-255650000D03*
X411625000Y-255000000D03*
X411625000Y-254350000D03*
X411625000Y-253700000D03*
X411625000Y-253050000D03*
X411625000Y-252400000D03*
X411625000Y-251750000D03*
X411625000Y-251100000D03*
X411625000Y-250450000D03*
X411625000Y-249800000D03*
X411625000Y-249150000D03*
X411625000Y-248500000D03*
X411625000Y-247850000D03*
X411625000Y-247200000D03*
X411625000Y-246550000D03*
X411625000Y-245900000D03*
X411625000Y-245250000D03*
D11*
X405000000Y-250775000D03*
%TD*%
D12*
%TO.C,C18*%
X358000000Y-323437500D03*
X358000000Y-326562500D03*
%TD*%
%TO.C,C14*%
X358000000Y-187937500D03*
X358000000Y-191062500D03*
%TD*%
D10*
%TO.C,U6*%
X313625000Y-170500000D03*
X313625000Y-169850000D03*
X313625000Y-169200000D03*
X313625000Y-168550000D03*
X313625000Y-167900000D03*
X313625000Y-167250000D03*
X313625000Y-166600000D03*
X313625000Y-165950000D03*
X313625000Y-165300000D03*
X313625000Y-164650000D03*
X313625000Y-164000000D03*
X313625000Y-163350000D03*
X313625000Y-162700000D03*
X313625000Y-162050000D03*
X313625000Y-161400000D03*
X313625000Y-160750000D03*
X313625000Y-160100000D03*
X313625000Y-159450000D03*
X300375000Y-159450000D03*
X300375000Y-160100000D03*
X300375000Y-160750000D03*
X300375000Y-161400000D03*
X300375000Y-162050000D03*
X300375000Y-162700000D03*
X300375000Y-163350000D03*
X300375000Y-164000000D03*
X300375000Y-164650000D03*
X300375000Y-165300000D03*
X300375000Y-165950000D03*
X300375000Y-166600000D03*
X300375000Y-167250000D03*
X300375000Y-167900000D03*
X300375000Y-168550000D03*
X300375000Y-169200000D03*
X300375000Y-169850000D03*
X300375000Y-170500000D03*
D11*
X307000000Y-164975000D03*
%TD*%
D10*
%TO.C,U10*%
X313625000Y-306250000D03*
X313625000Y-305600000D03*
X313625000Y-304950000D03*
X313625000Y-304300000D03*
X313625000Y-303650000D03*
X313625000Y-303000000D03*
X313625000Y-302350000D03*
X313625000Y-301700000D03*
X313625000Y-301050000D03*
X313625000Y-300400000D03*
X313625000Y-299750000D03*
X313625000Y-299100000D03*
X313625000Y-298450000D03*
X313625000Y-297800000D03*
X313625000Y-297150000D03*
X313625000Y-296500000D03*
X313625000Y-295850000D03*
X313625000Y-295200000D03*
X300375000Y-295200000D03*
X300375000Y-295850000D03*
X300375000Y-296500000D03*
X300375000Y-297150000D03*
X300375000Y-297800000D03*
X300375000Y-298450000D03*
X300375000Y-299100000D03*
X300375000Y-299750000D03*
X300375000Y-300400000D03*
X300375000Y-301050000D03*
X300375000Y-301700000D03*
X300375000Y-302350000D03*
X300375000Y-303000000D03*
X300375000Y-303650000D03*
X300375000Y-304300000D03*
X300375000Y-304950000D03*
X300375000Y-305600000D03*
X300375000Y-306250000D03*
D11*
X307000000Y-300725000D03*
%TD*%
D10*
%TO.C,U21*%
X398375000Y-279250000D03*
X398375000Y-279900000D03*
X398375000Y-280550000D03*
X398375000Y-281200000D03*
X398375000Y-281850000D03*
X398375000Y-282500000D03*
X398375000Y-283150000D03*
X398375000Y-283800000D03*
X398375000Y-284450000D03*
X398375000Y-285100000D03*
X398375000Y-285750000D03*
X398375000Y-286400000D03*
X398375000Y-287050000D03*
X398375000Y-287700000D03*
X398375000Y-288350000D03*
X398375000Y-289000000D03*
X398375000Y-289650000D03*
X398375000Y-290300000D03*
X411625000Y-290300000D03*
X411625000Y-289650000D03*
X411625000Y-289000000D03*
X411625000Y-288350000D03*
X411625000Y-287700000D03*
X411625000Y-287050000D03*
X411625000Y-286400000D03*
X411625000Y-285750000D03*
X411625000Y-285100000D03*
X411625000Y-284450000D03*
X411625000Y-283800000D03*
X411625000Y-283150000D03*
X411625000Y-282500000D03*
X411625000Y-281850000D03*
X411625000Y-281200000D03*
X411625000Y-280550000D03*
X411625000Y-279900000D03*
X411625000Y-279250000D03*
D11*
X405000000Y-284775000D03*
%TD*%
D10*
%TO.C,U13*%
X351375000Y-195225000D03*
X351375000Y-195875000D03*
X351375000Y-196525000D03*
X351375000Y-197175000D03*
X351375000Y-197825000D03*
X351375000Y-198475000D03*
X351375000Y-199125000D03*
X351375000Y-199775000D03*
X351375000Y-200425000D03*
X351375000Y-201075000D03*
X351375000Y-201725000D03*
X351375000Y-202375000D03*
X351375000Y-203025000D03*
X351375000Y-203675000D03*
X351375000Y-204325000D03*
X351375000Y-204975000D03*
X351375000Y-205625000D03*
X351375000Y-206275000D03*
X364625000Y-206275000D03*
X364625000Y-205625000D03*
X364625000Y-204975000D03*
X364625000Y-204325000D03*
X364625000Y-203675000D03*
X364625000Y-203025000D03*
X364625000Y-202375000D03*
X364625000Y-201725000D03*
X364625000Y-201075000D03*
X364625000Y-200425000D03*
X364625000Y-199775000D03*
X364625000Y-199125000D03*
X364625000Y-198475000D03*
X364625000Y-197825000D03*
X364625000Y-197175000D03*
X364625000Y-196525000D03*
X364625000Y-195875000D03*
X364625000Y-195225000D03*
D11*
X358000000Y-200750000D03*
%TD*%
D13*
%TO.C,C13*%
X358000000Y-179600000D03*
X358000000Y-176475000D03*
%TD*%
D10*
%TO.C,U17*%
X351375000Y-331225000D03*
X351375000Y-331875000D03*
X351375000Y-332525000D03*
X351375000Y-333175000D03*
X351375000Y-333825000D03*
X351375000Y-334475000D03*
X351375000Y-335125000D03*
X351375000Y-335775000D03*
X351375000Y-336425000D03*
X351375000Y-337075000D03*
X351375000Y-337725000D03*
X351375000Y-338375000D03*
X351375000Y-339025000D03*
X351375000Y-339675000D03*
X351375000Y-340325000D03*
X351375000Y-340975000D03*
X351375000Y-341625000D03*
X351375000Y-342275000D03*
X364625000Y-342275000D03*
X364625000Y-341625000D03*
X364625000Y-340975000D03*
X364625000Y-340325000D03*
X364625000Y-339675000D03*
X364625000Y-339025000D03*
X364625000Y-338375000D03*
X364625000Y-337725000D03*
X364625000Y-337075000D03*
X364625000Y-336425000D03*
X364625000Y-335775000D03*
X364625000Y-335125000D03*
X364625000Y-334475000D03*
X364625000Y-333825000D03*
X364625000Y-333175000D03*
X364625000Y-332525000D03*
X364625000Y-331875000D03*
X364625000Y-331225000D03*
D11*
X358000000Y-336750000D03*
%TD*%
D12*
%TO.C,C11*%
X307000000Y-321437500D03*
X307000000Y-324562500D03*
%TD*%
D10*
%TO.C,U5*%
X266625000Y-324275000D03*
X266625000Y-323625000D03*
X266625000Y-322975000D03*
X266625000Y-322325000D03*
X266625000Y-321675000D03*
X266625000Y-321025000D03*
X266625000Y-320375000D03*
X266625000Y-319725000D03*
X266625000Y-319075000D03*
X266625000Y-318425000D03*
X266625000Y-317775000D03*
X266625000Y-317125000D03*
X266625000Y-316475000D03*
X266625000Y-315825000D03*
X266625000Y-315175000D03*
X266625000Y-314525000D03*
X266625000Y-313875000D03*
X266625000Y-313225000D03*
X253375000Y-313225000D03*
X253375000Y-313875000D03*
X253375000Y-314525000D03*
X253375000Y-315175000D03*
X253375000Y-315825000D03*
X253375000Y-316475000D03*
X253375000Y-317125000D03*
X253375000Y-317775000D03*
X253375000Y-318425000D03*
X253375000Y-319075000D03*
X253375000Y-319725000D03*
X253375000Y-320375000D03*
X253375000Y-321025000D03*
X253375000Y-321675000D03*
X253375000Y-322325000D03*
X253375000Y-322975000D03*
X253375000Y-323625000D03*
X253375000Y-324275000D03*
D11*
X260000000Y-318750000D03*
%TD*%
D10*
%TO.C,U14*%
X351375000Y-229250000D03*
X351375000Y-229900000D03*
X351375000Y-230550000D03*
X351375000Y-231200000D03*
X351375000Y-231850000D03*
X351375000Y-232500000D03*
X351375000Y-233150000D03*
X351375000Y-233800000D03*
X351375000Y-234450000D03*
X351375000Y-235100000D03*
X351375000Y-235750000D03*
X351375000Y-236400000D03*
X351375000Y-237050000D03*
X351375000Y-237700000D03*
X351375000Y-238350000D03*
X351375000Y-239000000D03*
X351375000Y-239650000D03*
X351375000Y-240300000D03*
X364625000Y-240300000D03*
X364625000Y-239650000D03*
X364625000Y-239000000D03*
X364625000Y-238350000D03*
X364625000Y-237700000D03*
X364625000Y-237050000D03*
X364625000Y-236400000D03*
X364625000Y-235750000D03*
X364625000Y-235100000D03*
X364625000Y-234450000D03*
X364625000Y-233800000D03*
X364625000Y-233150000D03*
X364625000Y-232500000D03*
X364625000Y-231850000D03*
X364625000Y-231200000D03*
X364625000Y-230550000D03*
X364625000Y-229900000D03*
X364625000Y-229250000D03*
D11*
X358000000Y-234775000D03*
%TD*%
D10*
%TO.C,U4*%
X266625000Y-290275000D03*
X266625000Y-289625000D03*
X266625000Y-288975000D03*
X266625000Y-288325000D03*
X266625000Y-287675000D03*
X266625000Y-287025000D03*
X266625000Y-286375000D03*
X266625000Y-285725000D03*
X266625000Y-285075000D03*
X266625000Y-284425000D03*
X266625000Y-283775000D03*
X266625000Y-283125000D03*
X266625000Y-282475000D03*
X266625000Y-281825000D03*
X266625000Y-281175000D03*
X266625000Y-280525000D03*
X266625000Y-279875000D03*
X266625000Y-279225000D03*
X253375000Y-279225000D03*
X253375000Y-279875000D03*
X253375000Y-280525000D03*
X253375000Y-281175000D03*
X253375000Y-281825000D03*
X253375000Y-282475000D03*
X253375000Y-283125000D03*
X253375000Y-283775000D03*
X253375000Y-284425000D03*
X253375000Y-285075000D03*
X253375000Y-285725000D03*
X253375000Y-286375000D03*
X253375000Y-287025000D03*
X253375000Y-287675000D03*
X253375000Y-288325000D03*
X253375000Y-288975000D03*
X253375000Y-289625000D03*
X253375000Y-290275000D03*
D11*
X260000000Y-284750000D03*
%TD*%
D13*
%TO.C,C3*%
X260000000Y-264562500D03*
X260000000Y-261437500D03*
%TD*%
%TO.C,C21*%
X405000000Y-264037500D03*
X405000000Y-260912500D03*
%TD*%
%TO.C,C19*%
X405000000Y-196037500D03*
X405000000Y-192912500D03*
%TD*%
D10*
%TO.C,U7*%
X313625000Y-204000000D03*
X313625000Y-203350000D03*
X313625000Y-202700000D03*
X313625000Y-202050000D03*
X313625000Y-201400000D03*
X313625000Y-200750000D03*
X313625000Y-200100000D03*
X313625000Y-199450000D03*
X313625000Y-198800000D03*
X313625000Y-198150000D03*
X313625000Y-197500000D03*
X313625000Y-196850000D03*
X313625000Y-196200000D03*
X313625000Y-195550000D03*
X313625000Y-194900000D03*
X313625000Y-194250000D03*
X313625000Y-193600000D03*
X313625000Y-192950000D03*
X300375000Y-192950000D03*
X300375000Y-193600000D03*
X300375000Y-194250000D03*
X300375000Y-194900000D03*
X300375000Y-195550000D03*
X300375000Y-196200000D03*
X300375000Y-196850000D03*
X300375000Y-197500000D03*
X300375000Y-198150000D03*
X300375000Y-198800000D03*
X300375000Y-199450000D03*
X300375000Y-200100000D03*
X300375000Y-200750000D03*
X300375000Y-201400000D03*
X300375000Y-202050000D03*
X300375000Y-202700000D03*
X300375000Y-203350000D03*
X300375000Y-204000000D03*
D11*
X307000000Y-198475000D03*
%TD*%
D12*
%TO.C,C23*%
X405000000Y-305437500D03*
X405000000Y-308562500D03*
%TD*%
D10*
%TO.C,U16*%
X351375000Y-297225000D03*
X351375000Y-297875000D03*
X351375000Y-298525000D03*
X351375000Y-299175000D03*
X351375000Y-299825000D03*
X351375000Y-300475000D03*
X351375000Y-301125000D03*
X351375000Y-301775000D03*
X351375000Y-302425000D03*
X351375000Y-303075000D03*
X351375000Y-303725000D03*
X351375000Y-304375000D03*
X351375000Y-305025000D03*
X351375000Y-305675000D03*
X351375000Y-306325000D03*
X351375000Y-306975000D03*
X351375000Y-307625000D03*
X351375000Y-308275000D03*
X364625000Y-308275000D03*
X364625000Y-307625000D03*
X364625000Y-306975000D03*
X364625000Y-306325000D03*
X364625000Y-305675000D03*
X364625000Y-305025000D03*
X364625000Y-304375000D03*
X364625000Y-303725000D03*
X364625000Y-303075000D03*
X364625000Y-302425000D03*
X364625000Y-301775000D03*
X364625000Y-301125000D03*
X364625000Y-300475000D03*
X364625000Y-299825000D03*
X364625000Y-299175000D03*
X364625000Y-298525000D03*
X364625000Y-297875000D03*
X364625000Y-297225000D03*
D11*
X358000000Y-302750000D03*
%TD*%
D12*
%TO.C,C9*%
X307000000Y-253437500D03*
X307000000Y-256562500D03*
%TD*%
D10*
%TO.C,U1*%
X266625000Y-188275000D03*
X266625000Y-187625000D03*
X266625000Y-186975000D03*
X266625000Y-186325000D03*
X266625000Y-185675000D03*
X266625000Y-185025000D03*
X266625000Y-184375000D03*
X266625000Y-183725000D03*
X266625000Y-183075000D03*
X266625000Y-182425000D03*
X266625000Y-181775000D03*
X266625000Y-181125000D03*
X266625000Y-180475000D03*
X266625000Y-179825000D03*
X266625000Y-179175000D03*
X266625000Y-178525000D03*
X266625000Y-177875000D03*
X266625000Y-177225000D03*
X253375000Y-177225000D03*
X253375000Y-177875000D03*
X253375000Y-178525000D03*
X253375000Y-179175000D03*
X253375000Y-179825000D03*
X253375000Y-180475000D03*
X253375000Y-181125000D03*
X253375000Y-181775000D03*
X253375000Y-182425000D03*
X253375000Y-183075000D03*
X253375000Y-183725000D03*
X253375000Y-184375000D03*
X253375000Y-185025000D03*
X253375000Y-185675000D03*
X253375000Y-186325000D03*
X253375000Y-186975000D03*
X253375000Y-187625000D03*
X253375000Y-188275000D03*
D11*
X260000000Y-182750000D03*
%TD*%
D13*
%TO.C,C6*%
X307000000Y-178562500D03*
X307000000Y-175437500D03*
%TD*%
M02*
