%TF.GenerationSoftware,KiCad,Pcbnew,(6.0.10)*%
%TF.CreationDate,2024-04-02T10:47:47-04:00*%
%TF.ProjectId,OM3Controller,4f4d3343-6f6e-4747-926f-6c6c65722e6b,rev?*%
%TF.SameCoordinates,Original*%
%TF.FileFunction,Copper,L1,Top*%
%TF.FilePolarity,Positive*%
%FSLAX46Y46*%
G04 Gerber Fmt 4.6, Leading zero omitted, Abs format (unit mm)*
G04 Created by KiCad (PCBNEW (6.0.10)) date 2024-04-02 10:47:47*
%MOMM*%
%LPD*%
G01*
G04 APERTURE LIST*
G04 Aperture macros list*
%AMRoundRect*
0 Rectangle with rounded corners*
0 $1 Rounding radius*
0 $2 $3 $4 $5 $6 $7 $8 $9 X,Y pos of 4 corners*
0 Add a 4 corners polygon primitive as box body*
4,1,4,$2,$3,$4,$5,$6,$7,$8,$9,$2,$3,0*
0 Add four circle primitives for the rounded corners*
1,1,$1+$1,$2,$3*
1,1,$1+$1,$4,$5*
1,1,$1+$1,$6,$7*
1,1,$1+$1,$8,$9*
0 Add four rect primitives between the rounded corners*
20,1,$1+$1,$2,$3,$4,$5,0*
20,1,$1+$1,$4,$5,$6,$7,0*
20,1,$1+$1,$6,$7,$8,$9,0*
20,1,$1+$1,$8,$9,$2,$3,0*%
G04 Aperture macros list end*
%TA.AperFunction,ComponentPad*%
%ADD10C,2.400000*%
%TD*%
%TA.AperFunction,SMDPad,CuDef*%
%ADD11R,1.100000X0.400000*%
%TD*%
%TA.AperFunction,SMDPad,CuDef*%
%ADD12R,5.900000X13.700000*%
%TD*%
%TA.AperFunction,SMDPad,CuDef*%
%ADD13RoundRect,0.250000X-0.650000X0.412500X-0.650000X-0.412500X0.650000X-0.412500X0.650000X0.412500X0*%
%TD*%
%TA.AperFunction,SMDPad,CuDef*%
%ADD14RoundRect,0.250000X0.650000X-0.412500X0.650000X0.412500X-0.650000X0.412500X-0.650000X-0.412500X0*%
%TD*%
%TA.AperFunction,SMDPad,CuDef*%
%ADD15RoundRect,0.250000X0.400000X0.625000X-0.400000X0.625000X-0.400000X-0.625000X0.400000X-0.625000X0*%
%TD*%
%TA.AperFunction,SMDPad,CuDef*%
%ADD16RoundRect,0.250000X-0.625000X0.400000X-0.625000X-0.400000X0.625000X-0.400000X0.625000X0.400000X0*%
%TD*%
%TA.AperFunction,ComponentPad*%
%ADD17C,2.000000*%
%TD*%
%TA.AperFunction,ComponentPad*%
%ADD18R,1.600000X1.600000*%
%TD*%
%TA.AperFunction,ComponentPad*%
%ADD19C,1.600000*%
%TD*%
%TA.AperFunction,ViaPad*%
%ADD20C,2.000000*%
%TD*%
%TA.AperFunction,ViaPad*%
%ADD21C,4.000000*%
%TD*%
%TA.AperFunction,ViaPad*%
%ADD22C,0.800000*%
%TD*%
%TA.AperFunction,ViaPad*%
%ADD23C,1.000000*%
%TD*%
%TA.AperFunction,Conductor*%
%ADD24C,0.500000*%
%TD*%
%TA.AperFunction,Conductor*%
%ADD25C,1.000000*%
%TD*%
%TA.AperFunction,Conductor*%
%ADD26C,1.500000*%
%TD*%
%TA.AperFunction,Conductor*%
%ADD27C,0.400000*%
%TD*%
%TA.AperFunction,Conductor*%
%ADD28C,0.250000*%
%TD*%
G04 APERTURE END LIST*
D10*
%TO.P,J21,1,Pin_1*%
%TO.N,Net-(J21-Pad1)*%
X419000000Y-228725000D03*
%TO.P,J21,2,Pin_2*%
%TO.N,Earth*%
X430200000Y-226975000D03*
%TO.P,J21,3,Pin_3*%
%TO.N,Net-(J21-Pad3)*%
X419000000Y-225225000D03*
%TO.P,J21,4,Pin_4*%
%TO.N,Earth*%
X430200000Y-223475000D03*
%TO.P,J21,5,Pin_5*%
%TO.N,Net-(J21-Pad5)*%
X419000000Y-221725000D03*
%TO.P,J21,6,Pin_6*%
%TO.N,Earth*%
X430200000Y-219975000D03*
%TO.P,J21,7,Pin_7*%
%TO.N,Net-(J21-Pad7)*%
X419000000Y-218225000D03*
%TO.P,J21,8,Pin_8*%
%TO.N,Earth*%
X430200000Y-216475000D03*
%TO.P,J21,9,Pin_9*%
%TO.N,Net-(J21-Pad9)*%
X419000000Y-214725000D03*
%TO.P,J21,10,Pin_10*%
%TO.N,Earth*%
X430200000Y-212975000D03*
%TO.P,J21,11,Pin_11*%
%TO.N,Net-(J21-Pad11)*%
X419000000Y-211225000D03*
%TO.P,J21,12,Pin_12*%
%TO.N,Earth*%
X430200000Y-209475000D03*
%TO.P,J21,13,Pin_13*%
%TO.N,Net-(J21-Pad13)*%
X419000000Y-207725000D03*
%TO.P,J21,14,Pin_14*%
%TO.N,Earth*%
X430200000Y-205975000D03*
%TO.P,J21,15,Pin_15*%
%TO.N,Net-(J21-Pad15)*%
X419000000Y-204225000D03*
%TO.P,J21,16,Pin_16*%
%TO.N,Earth*%
X430200000Y-202475000D03*
%TD*%
%TO.P,J3,1,Pin_1*%
%TO.N,Net-(J3-Pad1)*%
X246000000Y-238750000D03*
%TO.P,J3,2,Pin_2*%
%TO.N,Earth*%
X234800000Y-240500000D03*
%TO.P,J3,3,Pin_3*%
%TO.N,Net-(J3-Pad3)*%
X246000000Y-242250000D03*
%TO.P,J3,4,Pin_4*%
%TO.N,Earth*%
X234800000Y-244000000D03*
%TO.P,J3,5,Pin_5*%
%TO.N,Net-(J3-Pad5)*%
X246000000Y-245750000D03*
%TO.P,J3,6,Pin_6*%
%TO.N,Earth*%
X234800000Y-247500000D03*
%TO.P,J3,7,Pin_7*%
%TO.N,Net-(J3-Pad7)*%
X246000000Y-249250000D03*
%TO.P,J3,8,Pin_8*%
%TO.N,Earth*%
X234800000Y-251000000D03*
%TO.P,J3,9,Pin_9*%
%TO.N,Net-(J3-Pad9)*%
X246000000Y-252750000D03*
%TO.P,J3,10,Pin_10*%
%TO.N,Earth*%
X234800000Y-254500000D03*
%TO.P,J3,11,Pin_11*%
%TO.N,Net-(J3-Pad11)*%
X246000000Y-256250000D03*
%TO.P,J3,12,Pin_12*%
%TO.N,Earth*%
X234800000Y-258000000D03*
%TO.P,J3,13,Pin_13*%
%TO.N,Net-(J3-Pad13)*%
X246000000Y-259750000D03*
%TO.P,J3,14,Pin_14*%
%TO.N,Earth*%
X234800000Y-261500000D03*
%TO.P,J3,15,Pin_15*%
%TO.N,Net-(J3-Pad15)*%
X246000000Y-263250000D03*
%TO.P,J3,16,Pin_16*%
%TO.N,Earth*%
X234800000Y-265000000D03*
%TD*%
D11*
%TO.P,U2,1,NC*%
%TO.N,unconnected-(U2-Pad1)*%
X266625000Y-222275000D03*
%TO.P,U2,2,VCC*%
%TO.N,Net-(MCU1-Pad15)*%
X266625000Y-221625000D03*
%TO.P,U2,3,DIS*%
%TO.N,Net-(MCU1-Pad2)*%
X266625000Y-220975000D03*
%TO.P,U2,4,CS*%
%TO.N,Net-(MCU1-Pad4)*%
X266625000Y-220325000D03*
%TO.P,U2,5,SCLK*%
%TO.N,Net-(R1-Pad2)*%
X266625000Y-219675000D03*
%TO.P,U2,6,SI*%
%TO.N,Net-(U1-Pad6)*%
X266625000Y-219025000D03*
%TO.P,U2,7,NC*%
%TO.N,unconnected-(U2-Pad7)*%
X266625000Y-218375000D03*
%TO.P,U2,8,NC*%
%TO.N,unconnected-(U2-Pad8)*%
X266625000Y-217725000D03*
%TO.P,U2,9,NC*%
%TO.N,unconnected-(U2-Pad9)*%
X266625000Y-217075000D03*
%TO.P,U2,10,NC*%
%TO.N,unconnected-(U2-Pad10)*%
X266625000Y-216425000D03*
%TO.P,U2,11,NC*%
%TO.N,unconnected-(U2-Pad11)*%
X266625000Y-215775000D03*
%TO.P,U2,12,NC*%
%TO.N,unconnected-(U2-Pad12)*%
X266625000Y-215125000D03*
%TO.P,U2,13,SO*%
%TO.N,unconnected-(U2-Pad13)*%
X266625000Y-214475000D03*
%TO.P,U2,14,DIAG*%
%TO.N,unconnected-(U2-Pad14)*%
X266625000Y-213825000D03*
%TO.P,U2,15,GNDCC*%
%TO.N,GND*%
X266625000Y-213175000D03*
%TO.P,U2,16,NC*%
%TO.N,unconnected-(U2-Pad16)*%
X266625000Y-212525000D03*
%TO.P,U2,17,NC*%
%TO.N,unconnected-(U2-Pad17)*%
X266625000Y-211875000D03*
%TO.P,U2,18,NC*%
%TO.N,unconnected-(U2-Pad18)*%
X266625000Y-211225000D03*
%TO.P,U2,19,GNDbb*%
%TO.N,Earth*%
X253375000Y-211225000D03*
%TO.P,U2,20,NC*%
%TO.N,unconnected-(U2-Pad20)*%
X253375000Y-211875000D03*
%TO.P,U2,21,OUT7*%
%TO.N,Net-(J2-Pad1)*%
X253375000Y-212525000D03*
%TO.P,U2,22,OUT7*%
X253375000Y-213175000D03*
%TO.P,U2,23,OUT6*%
%TO.N,Net-(J2-Pad3)*%
X253375000Y-213825000D03*
%TO.P,U2,24,OUT6*%
X253375000Y-214475000D03*
%TO.P,U2,25,OUT5*%
%TO.N,Net-(J2-Pad5)*%
X253375000Y-215125000D03*
%TO.P,U2,26,OUT5*%
X253375000Y-215775000D03*
%TO.P,U2,27,OUT4*%
%TO.N,Net-(J2-Pad7)*%
X253375000Y-216425000D03*
%TO.P,U2,28,OUT4*%
X253375000Y-217075000D03*
%TO.P,U2,29,OUT3*%
%TO.N,Net-(J2-Pad9)*%
X253375000Y-217725000D03*
%TO.P,U2,30,OUT3*%
X253375000Y-218375000D03*
%TO.P,U2,31,OUT2*%
%TO.N,Net-(J2-Pad11)*%
X253375000Y-219025000D03*
%TO.P,U2,32,OUT2*%
X253375000Y-219675000D03*
%TO.P,U2,33,OUT1*%
%TO.N,Net-(J2-Pad13)*%
X253375000Y-220325000D03*
%TO.P,U2,34,OUT1*%
X253375000Y-220975000D03*
%TO.P,U2,35,OUT0*%
%TO.N,Net-(J2-Pad15)*%
X253375000Y-221625000D03*
%TO.P,U2,36,OUT0*%
X253375000Y-222275000D03*
D12*
%TO.P,U2,37,VBB*%
%TO.N,+24V*%
X260000000Y-216750000D03*
%TD*%
D11*
%TO.P,U19,1,NC*%
%TO.N,unconnected-(U19-Pad1)*%
X398375000Y-211250000D03*
%TO.P,U19,2,VCC*%
%TO.N,Net-(MCU1-Pad27)*%
X398375000Y-211900000D03*
%TO.P,U19,3,DIS*%
%TO.N,Net-(MCU1-Pad2)*%
X398375000Y-212550000D03*
%TO.P,U19,4,CS*%
%TO.N,Net-(MCU1-Pad29)*%
X398375000Y-213200000D03*
%TO.P,U19,5,SCLK*%
%TO.N,Net-(R1-Pad2)*%
X398375000Y-213850000D03*
%TO.P,U19,6,SI*%
%TO.N,Net-(U1-Pad6)*%
X398375000Y-214500000D03*
%TO.P,U19,7,NC*%
%TO.N,unconnected-(U19-Pad7)*%
X398375000Y-215150000D03*
%TO.P,U19,8,NC*%
%TO.N,unconnected-(U19-Pad8)*%
X398375000Y-215800000D03*
%TO.P,U19,9,NC*%
%TO.N,unconnected-(U19-Pad9)*%
X398375000Y-216450000D03*
%TO.P,U19,10,NC*%
%TO.N,unconnected-(U19-Pad10)*%
X398375000Y-217100000D03*
%TO.P,U19,11,NC*%
%TO.N,unconnected-(U19-Pad11)*%
X398375000Y-217750000D03*
%TO.P,U19,12,NC*%
%TO.N,unconnected-(U19-Pad12)*%
X398375000Y-218400000D03*
%TO.P,U19,13,SO*%
%TO.N,unconnected-(U19-Pad13)*%
X398375000Y-219050000D03*
%TO.P,U19,14,DIAG*%
%TO.N,unconnected-(U19-Pad14)*%
X398375000Y-219700000D03*
%TO.P,U19,15,GNDCC*%
%TO.N,GND*%
X398375000Y-220350000D03*
%TO.P,U19,16,NC*%
%TO.N,unconnected-(U19-Pad16)*%
X398375000Y-221000000D03*
%TO.P,U19,17,NC*%
%TO.N,unconnected-(U19-Pad17)*%
X398375000Y-221650000D03*
%TO.P,U19,18,NC*%
%TO.N,unconnected-(U19-Pad18)*%
X398375000Y-222300000D03*
%TO.P,U19,19,GNDbb*%
%TO.N,Earth*%
X411625000Y-222300000D03*
%TO.P,U19,20,NC*%
%TO.N,unconnected-(U19-Pad20)*%
X411625000Y-221650000D03*
%TO.P,U19,21,OUT7*%
%TO.N,Net-(J21-Pad1)*%
X411625000Y-221000000D03*
%TO.P,U19,22,OUT7*%
X411625000Y-220350000D03*
%TO.P,U19,23,OUT6*%
%TO.N,Net-(J21-Pad3)*%
X411625000Y-219700000D03*
%TO.P,U19,24,OUT6*%
X411625000Y-219050000D03*
%TO.P,U19,25,OUT5*%
%TO.N,Net-(J21-Pad5)*%
X411625000Y-218400000D03*
%TO.P,U19,26,OUT5*%
X411625000Y-217750000D03*
%TO.P,U19,27,OUT4*%
%TO.N,Net-(J21-Pad7)*%
X411625000Y-217100000D03*
%TO.P,U19,28,OUT4*%
X411625000Y-216450000D03*
%TO.P,U19,29,OUT3*%
%TO.N,Net-(J21-Pad9)*%
X411625000Y-215800000D03*
%TO.P,U19,30,OUT3*%
X411625000Y-215150000D03*
%TO.P,U19,31,OUT2*%
%TO.N,Net-(J21-Pad11)*%
X411625000Y-214500000D03*
%TO.P,U19,32,OUT2*%
X411625000Y-213850000D03*
%TO.P,U19,33,OUT1*%
%TO.N,Net-(J21-Pad13)*%
X411625000Y-213200000D03*
%TO.P,U19,34,OUT1*%
X411625000Y-212550000D03*
%TO.P,U19,35,OUT0*%
%TO.N,Net-(J21-Pad15)*%
X411625000Y-211900000D03*
%TO.P,U19,36,OUT0*%
X411625000Y-211250000D03*
D12*
%TO.P,U19,37,VBB*%
%TO.N,+24V*%
X405000000Y-216775000D03*
%TD*%
D10*
%TO.P,J18,1,Pin_1*%
%TO.N,Net-(J18-Pad1)*%
X372000000Y-314725000D03*
%TO.P,J18,2,Pin_2*%
%TO.N,Earth*%
X383200000Y-312975000D03*
%TO.P,J18,3,Pin_3*%
%TO.N,Net-(J18-Pad3)*%
X372000000Y-311225000D03*
%TO.P,J18,4,Pin_4*%
%TO.N,Earth*%
X383200000Y-309475000D03*
%TO.P,J18,5,Pin_5*%
%TO.N,Net-(J18-Pad5)*%
X372000000Y-307725000D03*
%TO.P,J18,6,Pin_6*%
%TO.N,Earth*%
X383200000Y-305975000D03*
%TO.P,J18,7,Pin_7*%
%TO.N,Net-(J18-Pad7)*%
X372000000Y-304225000D03*
%TO.P,J18,8,Pin_8*%
%TO.N,Earth*%
X383200000Y-302475000D03*
%TO.P,J18,9,Pin_9*%
%TO.N,Net-(J18-Pad9)*%
X372000000Y-300725000D03*
%TO.P,J18,10,Pin_10*%
%TO.N,Earth*%
X383200000Y-298975000D03*
%TO.P,J18,11,Pin_11*%
%TO.N,Net-(J18-Pad11)*%
X372000000Y-297225000D03*
%TO.P,J18,12,Pin_12*%
%TO.N,Earth*%
X383200000Y-295475000D03*
%TO.P,J18,13,Pin_13*%
%TO.N,Net-(J18-Pad13)*%
X372000000Y-293725000D03*
%TO.P,J18,14,Pin_14*%
%TO.N,Earth*%
X383200000Y-291975000D03*
%TO.P,J18,15,Pin_15*%
%TO.N,Net-(J18-Pad15)*%
X372000000Y-290225000D03*
%TO.P,J18,16,Pin_16*%
%TO.N,Earth*%
X383200000Y-288475000D03*
%TD*%
D11*
%TO.P,U8,1,NC*%
%TO.N,unconnected-(U8-Pad1)*%
X313625000Y-238250000D03*
%TO.P,U8,2,VCC*%
%TO.N,Net-(MCU1-Pad15)*%
X313625000Y-237600000D03*
%TO.P,U8,3,DIS*%
%TO.N,Net-(MCU1-Pad2)*%
X313625000Y-236950000D03*
%TO.P,U8,4,CS*%
%TO.N,Net-(MCU1-Pad10)*%
X313625000Y-236300000D03*
%TO.P,U8,5,SCLK*%
%TO.N,Net-(R1-Pad2)*%
X313625000Y-235650000D03*
%TO.P,U8,6,SI*%
%TO.N,Net-(U1-Pad6)*%
X313625000Y-235000000D03*
%TO.P,U8,7,NC*%
%TO.N,unconnected-(U8-Pad7)*%
X313625000Y-234350000D03*
%TO.P,U8,8,NC*%
%TO.N,unconnected-(U8-Pad8)*%
X313625000Y-233700000D03*
%TO.P,U8,9,NC*%
%TO.N,unconnected-(U8-Pad9)*%
X313625000Y-233050000D03*
%TO.P,U8,10,NC*%
%TO.N,unconnected-(U8-Pad10)*%
X313625000Y-232400000D03*
%TO.P,U8,11,NC*%
%TO.N,unconnected-(U8-Pad11)*%
X313625000Y-231750000D03*
%TO.P,U8,12,NC*%
%TO.N,unconnected-(U8-Pad12)*%
X313625000Y-231100000D03*
%TO.P,U8,13,SO*%
%TO.N,unconnected-(U8-Pad13)*%
X313625000Y-230450000D03*
%TO.P,U8,14,DIAG*%
%TO.N,unconnected-(U8-Pad14)*%
X313625000Y-229800000D03*
%TO.P,U8,15,GNDCC*%
%TO.N,GND*%
X313625000Y-229150000D03*
%TO.P,U8,16,NC*%
%TO.N,unconnected-(U8-Pad16)*%
X313625000Y-228500000D03*
%TO.P,U8,17,NC*%
%TO.N,unconnected-(U8-Pad17)*%
X313625000Y-227850000D03*
%TO.P,U8,18,NC*%
%TO.N,unconnected-(U8-Pad18)*%
X313625000Y-227200000D03*
%TO.P,U8,19,GNDbb*%
%TO.N,Earth*%
X300375000Y-227200000D03*
%TO.P,U8,20,NC*%
%TO.N,unconnected-(U8-Pad20)*%
X300375000Y-227850000D03*
%TO.P,U8,21,OUT7*%
%TO.N,Net-(J8-Pad1)*%
X300375000Y-228500000D03*
%TO.P,U8,22,OUT7*%
X300375000Y-229150000D03*
%TO.P,U8,23,OUT6*%
%TO.N,Net-(J8-Pad3)*%
X300375000Y-229800000D03*
%TO.P,U8,24,OUT6*%
X300375000Y-230450000D03*
%TO.P,U8,25,OUT5*%
%TO.N,Net-(J8-Pad5)*%
X300375000Y-231100000D03*
%TO.P,U8,26,OUT5*%
X300375000Y-231750000D03*
%TO.P,U8,27,OUT4*%
%TO.N,Net-(J8-Pad7)*%
X300375000Y-232400000D03*
%TO.P,U8,28,OUT4*%
X300375000Y-233050000D03*
%TO.P,U8,29,OUT3*%
%TO.N,Net-(J8-Pad9)*%
X300375000Y-233700000D03*
%TO.P,U8,30,OUT3*%
X300375000Y-234350000D03*
%TO.P,U8,31,OUT2*%
%TO.N,Net-(J8-Pad11)*%
X300375000Y-235000000D03*
%TO.P,U8,32,OUT2*%
X300375000Y-235650000D03*
%TO.P,U8,33,OUT1*%
%TO.N,Net-(J8-Pad13)*%
X300375000Y-236300000D03*
%TO.P,U8,34,OUT1*%
X300375000Y-236950000D03*
%TO.P,U8,35,OUT0*%
%TO.N,Net-(J8-Pad15)*%
X300375000Y-237600000D03*
%TO.P,U8,36,OUT0*%
X300375000Y-238250000D03*
D12*
%TO.P,U8,37,VBB*%
%TO.N,+24V*%
X307000000Y-232725000D03*
%TD*%
D10*
%TO.P,J15,1,Pin_1*%
%TO.N,Net-(J15-Pad1)*%
X372000000Y-212725000D03*
%TO.P,J15,2,Pin_2*%
%TO.N,Earth*%
X383200000Y-210975000D03*
%TO.P,J15,3,Pin_3*%
%TO.N,Net-(J15-Pad3)*%
X372000000Y-209225000D03*
%TO.P,J15,4,Pin_4*%
%TO.N,Earth*%
X383200000Y-207475000D03*
%TO.P,J15,5,Pin_5*%
%TO.N,Net-(J15-Pad5)*%
X372000000Y-205725000D03*
%TO.P,J15,6,Pin_6*%
%TO.N,Earth*%
X383200000Y-203975000D03*
%TO.P,J15,7,Pin_7*%
%TO.N,Net-(J15-Pad7)*%
X372000000Y-202225000D03*
%TO.P,J15,8,Pin_8*%
%TO.N,Earth*%
X383200000Y-200475000D03*
%TO.P,J15,9,Pin_9*%
%TO.N,Net-(J15-Pad9)*%
X372000000Y-198725000D03*
%TO.P,J15,10,Pin_10*%
%TO.N,Earth*%
X383200000Y-196975000D03*
%TO.P,J15,11,Pin_11*%
%TO.N,Net-(J15-Pad11)*%
X372000000Y-195225000D03*
%TO.P,J15,12,Pin_12*%
%TO.N,Earth*%
X383200000Y-193475000D03*
%TO.P,J15,13,Pin_13*%
%TO.N,Net-(J15-Pad13)*%
X372000000Y-191725000D03*
%TO.P,J15,14,Pin_14*%
%TO.N,Earth*%
X383200000Y-189975000D03*
%TO.P,J15,15,Pin_15*%
%TO.N,Net-(J15-Pad15)*%
X372000000Y-188225000D03*
%TO.P,J15,16,Pin_16*%
%TO.N,Earth*%
X383200000Y-186475000D03*
%TD*%
%TO.P,J9,1,Pin_1*%
%TO.N,Net-(J9-Pad1)*%
X293000000Y-254750000D03*
%TO.P,J9,2,Pin_2*%
%TO.N,Earth*%
X281800000Y-256500000D03*
%TO.P,J9,3,Pin_3*%
%TO.N,Net-(J9-Pad3)*%
X293000000Y-258250000D03*
%TO.P,J9,4,Pin_4*%
%TO.N,Earth*%
X281800000Y-260000000D03*
%TO.P,J9,5,Pin_5*%
%TO.N,Net-(J9-Pad5)*%
X293000000Y-261750000D03*
%TO.P,J9,6,Pin_6*%
%TO.N,Earth*%
X281800000Y-263500000D03*
%TO.P,J9,7,Pin_7*%
%TO.N,Net-(J9-Pad7)*%
X293000000Y-265250000D03*
%TO.P,J9,8,Pin_8*%
%TO.N,Earth*%
X281800000Y-267000000D03*
%TO.P,J9,9,Pin_9*%
%TO.N,Net-(J9-Pad9)*%
X293000000Y-268750000D03*
%TO.P,J9,10,Pin_10*%
%TO.N,Earth*%
X281800000Y-270500000D03*
%TO.P,J9,11,Pin_11*%
%TO.N,Net-(J9-Pad11)*%
X293000000Y-272250000D03*
%TO.P,J9,12,Pin_12*%
%TO.N,Earth*%
X281800000Y-274000000D03*
%TO.P,J9,13,Pin_13*%
%TO.N,Net-(J9-Pad13)*%
X293000000Y-275750000D03*
%TO.P,J9,14,Pin_14*%
%TO.N,Earth*%
X281800000Y-277500000D03*
%TO.P,J9,15,Pin_15*%
%TO.N,Net-(J9-Pad15)*%
X293000000Y-279250000D03*
%TO.P,J9,16,Pin_16*%
%TO.N,Earth*%
X281800000Y-281000000D03*
%TD*%
%TO.P,J4,1,Pin_1*%
%TO.N,Net-(J4-Pad1)*%
X246000000Y-272750000D03*
%TO.P,J4,2,Pin_2*%
%TO.N,Earth*%
X234800000Y-274500000D03*
%TO.P,J4,3,Pin_3*%
%TO.N,Net-(J4-Pad3)*%
X246000000Y-276250000D03*
%TO.P,J4,4,Pin_4*%
%TO.N,Earth*%
X234800000Y-278000000D03*
%TO.P,J4,5,Pin_5*%
%TO.N,Net-(J4-Pad5)*%
X246000000Y-279750000D03*
%TO.P,J4,6,Pin_6*%
%TO.N,Earth*%
X234800000Y-281500000D03*
%TO.P,J4,7,Pin_7*%
%TO.N,Net-(J4-Pad7)*%
X246000000Y-283250000D03*
%TO.P,J4,8,Pin_8*%
%TO.N,Earth*%
X234800000Y-285000000D03*
%TO.P,J4,9,Pin_9*%
%TO.N,Net-(J4-Pad9)*%
X246000000Y-286750000D03*
%TO.P,J4,10,Pin_10*%
%TO.N,Earth*%
X234800000Y-288500000D03*
%TO.P,J4,11,Pin_11*%
%TO.N,Net-(J4-Pad11)*%
X246000000Y-290250000D03*
%TO.P,J4,12,Pin_12*%
%TO.N,Earth*%
X234800000Y-292000000D03*
%TO.P,J4,13,Pin_13*%
%TO.N,Net-(J4-Pad13)*%
X246000000Y-293750000D03*
%TO.P,J4,14,Pin_14*%
%TO.N,Earth*%
X234800000Y-295500000D03*
%TO.P,J4,15,Pin_15*%
%TO.N,Net-(J4-Pad15)*%
X246000000Y-297250000D03*
%TO.P,J4,16,Pin_16*%
%TO.N,Earth*%
X234800000Y-299000000D03*
%TD*%
D13*
%TO.P,C7,1*%
%TO.N,Earth*%
X307000000Y-185437500D03*
%TO.P,C7,2*%
%TO.N,+24V*%
X307000000Y-188562500D03*
%TD*%
D14*
%TO.P,C8,1*%
%TO.N,Earth*%
X307000000Y-246562500D03*
%TO.P,C8,2*%
%TO.N,+24V*%
X307000000Y-243437500D03*
%TD*%
D13*
%TO.P,C22,1*%
%TO.N,Earth*%
X405000000Y-271437500D03*
%TO.P,C22,2*%
%TO.N,+24V*%
X405000000Y-274562500D03*
%TD*%
D11*
%TO.P,U18,1,NC*%
%TO.N,unconnected-(U18-Pad1)*%
X398375000Y-177250000D03*
%TO.P,U18,2,VCC*%
%TO.N,Net-(MCU1-Pad27)*%
X398375000Y-177900000D03*
%TO.P,U18,3,DIS*%
%TO.N,Net-(MCU1-Pad2)*%
X398375000Y-178550000D03*
%TO.P,U18,4,CS*%
%TO.N,Net-(MCU1-Pad28)*%
X398375000Y-179200000D03*
%TO.P,U18,5,SCLK*%
%TO.N,Net-(R1-Pad2)*%
X398375000Y-179850000D03*
%TO.P,U18,6,SI*%
%TO.N,Net-(U1-Pad6)*%
X398375000Y-180500000D03*
%TO.P,U18,7,NC*%
%TO.N,unconnected-(U18-Pad7)*%
X398375000Y-181150000D03*
%TO.P,U18,8,NC*%
%TO.N,unconnected-(U18-Pad8)*%
X398375000Y-181800000D03*
%TO.P,U18,9,NC*%
%TO.N,unconnected-(U18-Pad9)*%
X398375000Y-182450000D03*
%TO.P,U18,10,NC*%
%TO.N,unconnected-(U18-Pad10)*%
X398375000Y-183100000D03*
%TO.P,U18,11,NC*%
%TO.N,unconnected-(U18-Pad11)*%
X398375000Y-183750000D03*
%TO.P,U18,12,NC*%
%TO.N,unconnected-(U18-Pad12)*%
X398375000Y-184400000D03*
%TO.P,U18,13,SO*%
%TO.N,unconnected-(U18-Pad13)*%
X398375000Y-185050000D03*
%TO.P,U18,14,DIAG*%
%TO.N,unconnected-(U18-Pad14)*%
X398375000Y-185700000D03*
%TO.P,U18,15,GNDCC*%
%TO.N,GND*%
X398375000Y-186350000D03*
%TO.P,U18,16,NC*%
%TO.N,unconnected-(U18-Pad16)*%
X398375000Y-187000000D03*
%TO.P,U18,17,NC*%
%TO.N,unconnected-(U18-Pad17)*%
X398375000Y-187650000D03*
%TO.P,U18,18,NC*%
%TO.N,unconnected-(U18-Pad18)*%
X398375000Y-188300000D03*
%TO.P,U18,19,GNDbb*%
%TO.N,Earth*%
X411625000Y-188300000D03*
%TO.P,U18,20,NC*%
%TO.N,unconnected-(U18-Pad20)*%
X411625000Y-187650000D03*
%TO.P,U18,21,OUT7*%
%TO.N,Net-(J20-Pad1)*%
X411625000Y-187000000D03*
%TO.P,U18,22,OUT7*%
X411625000Y-186350000D03*
%TO.P,U18,23,OUT6*%
%TO.N,Net-(J20-Pad3)*%
X411625000Y-185700000D03*
%TO.P,U18,24,OUT6*%
X411625000Y-185050000D03*
%TO.P,U18,25,OUT5*%
%TO.N,Net-(J20-Pad5)*%
X411625000Y-184400000D03*
%TO.P,U18,26,OUT5*%
X411625000Y-183750000D03*
%TO.P,U18,27,OUT4*%
%TO.N,Net-(J20-Pad7)*%
X411625000Y-183100000D03*
%TO.P,U18,28,OUT4*%
X411625000Y-182450000D03*
%TO.P,U18,29,OUT3*%
%TO.N,Net-(J20-Pad9)*%
X411625000Y-181800000D03*
%TO.P,U18,30,OUT3*%
X411625000Y-181150000D03*
%TO.P,U18,31,OUT2*%
%TO.N,Net-(J20-Pad11)*%
X411625000Y-180500000D03*
%TO.P,U18,32,OUT2*%
X411625000Y-179850000D03*
%TO.P,U18,33,OUT1*%
%TO.N,Net-(J20-Pad13)*%
X411625000Y-179200000D03*
%TO.P,U18,34,OUT1*%
X411625000Y-178550000D03*
%TO.P,U18,35,OUT0*%
%TO.N,Net-(J20-Pad15)*%
X411625000Y-177900000D03*
%TO.P,U18,36,OUT0*%
X411625000Y-177250000D03*
D12*
%TO.P,U18,37,VBB*%
%TO.N,+24V*%
X405000000Y-182775000D03*
%TD*%
D15*
%TO.P,R1,1*%
%TO.N,Net-(MCU1-Pad38)*%
X336500000Y-174500000D03*
%TO.P,R1,2*%
%TO.N,Net-(R1-Pad2)*%
X333400000Y-174500000D03*
%TD*%
D16*
%TO.P,R2,1*%
%TO.N,Net-(U1-Pad6)*%
X327750000Y-170950000D03*
%TO.P,R2,2*%
%TO.N,Net-(MCU1-Pad13)*%
X327750000Y-174050000D03*
%TD*%
D10*
%TO.P,J17,1,Pin_1*%
%TO.N,Net-(J17-Pad1)*%
X372000000Y-280725000D03*
%TO.P,J17,2,Pin_2*%
%TO.N,Earth*%
X383200000Y-278975000D03*
%TO.P,J17,3,Pin_3*%
%TO.N,Net-(J17-Pad3)*%
X372000000Y-277225000D03*
%TO.P,J17,4,Pin_4*%
%TO.N,Earth*%
X383200000Y-275475000D03*
%TO.P,J17,5,Pin_5*%
%TO.N,Net-(J17-Pad5)*%
X372000000Y-273725000D03*
%TO.P,J17,6,Pin_6*%
%TO.N,Earth*%
X383200000Y-271975000D03*
%TO.P,J17,7,Pin_7*%
%TO.N,Net-(J17-Pad7)*%
X372000000Y-270225000D03*
%TO.P,J17,8,Pin_8*%
%TO.N,Earth*%
X383200000Y-268475000D03*
%TO.P,J17,9,Pin_9*%
%TO.N,Net-(J17-Pad9)*%
X372000000Y-266725000D03*
%TO.P,J17,10,Pin_10*%
%TO.N,Earth*%
X383200000Y-264975000D03*
%TO.P,J17,11,Pin_11*%
%TO.N,Net-(J17-Pad11)*%
X372000000Y-263225000D03*
%TO.P,J17,12,Pin_12*%
%TO.N,Earth*%
X383200000Y-261475000D03*
%TO.P,J17,13,Pin_13*%
%TO.N,Net-(J17-Pad13)*%
X372000000Y-259725000D03*
%TO.P,J17,14,Pin_14*%
%TO.N,Earth*%
X383200000Y-257975000D03*
%TO.P,J17,15,Pin_15*%
%TO.N,Net-(J17-Pad15)*%
X372000000Y-256225000D03*
%TO.P,J17,16,Pin_16*%
%TO.N,Earth*%
X383200000Y-254475000D03*
%TD*%
D14*
%TO.P,C10,1*%
%TO.N,Earth*%
X307000000Y-314562500D03*
%TO.P,C10,2*%
%TO.N,+24V*%
X307000000Y-311437500D03*
%TD*%
D11*
%TO.P,U11,1,NC*%
%TO.N,unconnected-(U11-Pad1)*%
X313625000Y-340250000D03*
%TO.P,U11,2,VCC*%
%TO.N,Net-(MCU1-Pad15)*%
X313625000Y-339600000D03*
%TO.P,U11,3,DIS*%
%TO.N,Net-(MCU1-Pad2)*%
X313625000Y-338950000D03*
%TO.P,U11,4,CS*%
%TO.N,Net-(MCU1-Pad16)*%
X313625000Y-338300000D03*
%TO.P,U11,5,SCLK*%
%TO.N,Net-(R1-Pad2)*%
X313625000Y-337650000D03*
%TO.P,U11,6,SI*%
%TO.N,Net-(U1-Pad6)*%
X313625000Y-337000000D03*
%TO.P,U11,7,NC*%
%TO.N,unconnected-(U11-Pad7)*%
X313625000Y-336350000D03*
%TO.P,U11,8,NC*%
%TO.N,unconnected-(U11-Pad8)*%
X313625000Y-335700000D03*
%TO.P,U11,9,NC*%
%TO.N,unconnected-(U11-Pad9)*%
X313625000Y-335050000D03*
%TO.P,U11,10,NC*%
%TO.N,unconnected-(U11-Pad10)*%
X313625000Y-334400000D03*
%TO.P,U11,11,NC*%
%TO.N,unconnected-(U11-Pad11)*%
X313625000Y-333750000D03*
%TO.P,U11,12,NC*%
%TO.N,unconnected-(U11-Pad12)*%
X313625000Y-333100000D03*
%TO.P,U11,13,SO*%
%TO.N,unconnected-(U11-Pad13)*%
X313625000Y-332450000D03*
%TO.P,U11,14,DIAG*%
%TO.N,unconnected-(U11-Pad14)*%
X313625000Y-331800000D03*
%TO.P,U11,15,GNDCC*%
%TO.N,GND*%
X313625000Y-331150000D03*
%TO.P,U11,16,NC*%
%TO.N,unconnected-(U11-Pad16)*%
X313625000Y-330500000D03*
%TO.P,U11,17,NC*%
%TO.N,unconnected-(U11-Pad17)*%
X313625000Y-329850000D03*
%TO.P,U11,18,NC*%
%TO.N,unconnected-(U11-Pad18)*%
X313625000Y-329200000D03*
%TO.P,U11,19,GNDbb*%
%TO.N,Earth*%
X300375000Y-329200000D03*
%TO.P,U11,20,NC*%
%TO.N,unconnected-(U11-Pad20)*%
X300375000Y-329850000D03*
%TO.P,U11,21,OUT7*%
%TO.N,Net-(J11-Pad1)*%
X300375000Y-330500000D03*
%TO.P,U11,22,OUT7*%
X300375000Y-331150000D03*
%TO.P,U11,23,OUT6*%
%TO.N,Net-(J11-Pad3)*%
X300375000Y-331800000D03*
%TO.P,U11,24,OUT6*%
X300375000Y-332450000D03*
%TO.P,U11,25,OUT5*%
%TO.N,Net-(J11-Pad5)*%
X300375000Y-333100000D03*
%TO.P,U11,26,OUT5*%
X300375000Y-333750000D03*
%TO.P,U11,27,OUT4*%
%TO.N,Net-(J11-Pad7)*%
X300375000Y-334400000D03*
%TO.P,U11,28,OUT4*%
X300375000Y-335050000D03*
%TO.P,U11,29,OUT3*%
%TO.N,Net-(J11-Pad9)*%
X300375000Y-335700000D03*
%TO.P,U11,30,OUT3*%
X300375000Y-336350000D03*
%TO.P,U11,31,OUT2*%
%TO.N,Net-(J11-Pad11)*%
X300375000Y-337000000D03*
%TO.P,U11,32,OUT2*%
X300375000Y-337650000D03*
%TO.P,U11,33,OUT1*%
%TO.N,Net-(J11-Pad13)*%
X300375000Y-338300000D03*
%TO.P,U11,34,OUT1*%
X300375000Y-338950000D03*
%TO.P,U11,35,OUT0*%
%TO.N,Net-(J11-Pad15)*%
X300375000Y-339600000D03*
%TO.P,U11,36,OUT0*%
X300375000Y-340250000D03*
D12*
%TO.P,U11,37,VBB*%
%TO.N,+24V*%
X307000000Y-334725000D03*
%TD*%
D14*
%TO.P,C1,1*%
%TO.N,Earth*%
X259910000Y-196562500D03*
%TO.P,C1,2*%
%TO.N,+24V*%
X259910000Y-193437500D03*
%TD*%
D10*
%TO.P,J16,1,Pin_1*%
%TO.N,Net-(J16-Pad1)*%
X372000000Y-246725000D03*
%TO.P,J16,2,Pin_2*%
%TO.N,Earth*%
X383200000Y-244975000D03*
%TO.P,J16,3,Pin_3*%
%TO.N,Net-(J16-Pad3)*%
X372000000Y-243225000D03*
%TO.P,J16,4,Pin_4*%
%TO.N,Earth*%
X383200000Y-241475000D03*
%TO.P,J16,5,Pin_5*%
%TO.N,Net-(J16-Pad5)*%
X372000000Y-239725000D03*
%TO.P,J16,6,Pin_6*%
%TO.N,Earth*%
X383200000Y-237975000D03*
%TO.P,J16,7,Pin_7*%
%TO.N,Net-(J16-Pad7)*%
X372000000Y-236225000D03*
%TO.P,J16,8,Pin_8*%
%TO.N,Earth*%
X383200000Y-234475000D03*
%TO.P,J16,9,Pin_9*%
%TO.N,Net-(J16-Pad9)*%
X372000000Y-232725000D03*
%TO.P,J16,10,Pin_10*%
%TO.N,Earth*%
X383200000Y-230975000D03*
%TO.P,J16,11,Pin_11*%
%TO.N,Net-(J16-Pad11)*%
X372000000Y-229225000D03*
%TO.P,J16,12,Pin_12*%
%TO.N,Earth*%
X383200000Y-227475000D03*
%TO.P,J16,13,Pin_13*%
%TO.N,Net-(J16-Pad13)*%
X372000000Y-225725000D03*
%TO.P,J16,14,Pin_14*%
%TO.N,Earth*%
X383200000Y-223975000D03*
%TO.P,J16,15,Pin_15*%
%TO.N,Net-(J16-Pad15)*%
X372000000Y-222225000D03*
%TO.P,J16,16,Pin_16*%
%TO.N,Earth*%
X383200000Y-220475000D03*
%TD*%
D11*
%TO.P,U12,1,NC*%
%TO.N,unconnected-(U12-Pad1)*%
X351375000Y-161250000D03*
%TO.P,U12,2,VCC*%
%TO.N,Net-(MCU1-Pad27)*%
X351375000Y-161900000D03*
%TO.P,U12,3,DIS*%
%TO.N,Net-(MCU1-Pad2)*%
X351375000Y-162550000D03*
%TO.P,U12,4,CS*%
%TO.N,Net-(MCU1-Pad33)*%
X351375000Y-163200000D03*
%TO.P,U12,5,SCLK*%
%TO.N,Net-(R1-Pad2)*%
X351375000Y-163850000D03*
%TO.P,U12,6,SI*%
%TO.N,Net-(U1-Pad6)*%
X351375000Y-164500000D03*
%TO.P,U12,7,NC*%
%TO.N,unconnected-(U12-Pad7)*%
X351375000Y-165150000D03*
%TO.P,U12,8,NC*%
%TO.N,unconnected-(U12-Pad8)*%
X351375000Y-165800000D03*
%TO.P,U12,9,NC*%
%TO.N,unconnected-(U12-Pad9)*%
X351375000Y-166450000D03*
%TO.P,U12,10,NC*%
%TO.N,unconnected-(U12-Pad10)*%
X351375000Y-167100000D03*
%TO.P,U12,11,NC*%
%TO.N,unconnected-(U12-Pad11)*%
X351375000Y-167750000D03*
%TO.P,U12,12,NC*%
%TO.N,unconnected-(U12-Pad12)*%
X351375000Y-168400000D03*
%TO.P,U12,13,SO*%
%TO.N,unconnected-(U12-Pad13)*%
X351375000Y-169050000D03*
%TO.P,U12,14,DIAG*%
%TO.N,unconnected-(U12-Pad14)*%
X351375000Y-169700000D03*
%TO.P,U12,15,GNDCC*%
%TO.N,GND*%
X351375000Y-170350000D03*
%TO.P,U12,16,NC*%
%TO.N,unconnected-(U12-Pad16)*%
X351375000Y-171000000D03*
%TO.P,U12,17,NC*%
%TO.N,unconnected-(U12-Pad17)*%
X351375000Y-171650000D03*
%TO.P,U12,18,NC*%
%TO.N,unconnected-(U12-Pad18)*%
X351375000Y-172300000D03*
%TO.P,U12,19,GNDbb*%
%TO.N,Earth*%
X364625000Y-172300000D03*
%TO.P,U12,20,NC*%
%TO.N,unconnected-(U12-Pad20)*%
X364625000Y-171650000D03*
%TO.P,U12,21,OUT7*%
%TO.N,Net-(J14-Pad1)*%
X364625000Y-171000000D03*
%TO.P,U12,22,OUT7*%
X364625000Y-170350000D03*
%TO.P,U12,23,OUT6*%
%TO.N,Net-(J14-Pad3)*%
X364625000Y-169700000D03*
%TO.P,U12,24,OUT6*%
X364625000Y-169050000D03*
%TO.P,U12,25,OUT5*%
%TO.N,Net-(J14-Pad5)*%
X364625000Y-168400000D03*
%TO.P,U12,26,OUT5*%
X364625000Y-167750000D03*
%TO.P,U12,27,OUT4*%
%TO.N,Net-(J14-Pad7)*%
X364625000Y-167100000D03*
%TO.P,U12,28,OUT4*%
X364625000Y-166450000D03*
%TO.P,U12,29,OUT3*%
%TO.N,Net-(J14-Pad9)*%
X364625000Y-165800000D03*
%TO.P,U12,30,OUT3*%
X364625000Y-165150000D03*
%TO.P,U12,31,OUT2*%
%TO.N,Net-(J14-Pad11)*%
X364625000Y-164500000D03*
%TO.P,U12,32,OUT2*%
X364625000Y-163850000D03*
%TO.P,U12,33,OUT1*%
%TO.N,Net-(J14-Pad13)*%
X364625000Y-163200000D03*
%TO.P,U12,34,OUT1*%
X364625000Y-162550000D03*
%TO.P,U12,35,OUT0*%
%TO.N,Net-(J14-Pad15)*%
X364625000Y-161900000D03*
%TO.P,U12,36,OUT0*%
X364625000Y-161250000D03*
D12*
%TO.P,U12,37,VBB*%
%TO.N,+24V*%
X358000000Y-166775000D03*
%TD*%
D13*
%TO.P,C16,1*%
%TO.N,Earth*%
X358000000Y-255437500D03*
%TO.P,C16,2*%
%TO.N,+24V*%
X358000000Y-258562500D03*
%TD*%
D11*
%TO.P,U15,1,NC*%
%TO.N,unconnected-(U15-Pad1)*%
X351375000Y-263250000D03*
%TO.P,U15,2,VCC*%
%TO.N,Net-(MCU1-Pad27)*%
X351375000Y-263900000D03*
%TO.P,U15,3,DIS*%
%TO.N,Net-(MCU1-Pad2)*%
X351375000Y-264550000D03*
%TO.P,U15,4,CS*%
%TO.N,Net-(MCU1-Pad36)*%
X351375000Y-265200000D03*
%TO.P,U15,5,SCLK*%
%TO.N,Net-(R1-Pad2)*%
X351375000Y-265850000D03*
%TO.P,U15,6,SI*%
%TO.N,Net-(U1-Pad6)*%
X351375000Y-266500000D03*
%TO.P,U15,7,NC*%
%TO.N,unconnected-(U15-Pad7)*%
X351375000Y-267150000D03*
%TO.P,U15,8,NC*%
%TO.N,unconnected-(U15-Pad8)*%
X351375000Y-267800000D03*
%TO.P,U15,9,NC*%
%TO.N,unconnected-(U15-Pad9)*%
X351375000Y-268450000D03*
%TO.P,U15,10,NC*%
%TO.N,unconnected-(U15-Pad10)*%
X351375000Y-269100000D03*
%TO.P,U15,11,NC*%
%TO.N,unconnected-(U15-Pad11)*%
X351375000Y-269750000D03*
%TO.P,U15,12,NC*%
%TO.N,unconnected-(U15-Pad12)*%
X351375000Y-270400000D03*
%TO.P,U15,13,SO*%
%TO.N,unconnected-(U15-Pad13)*%
X351375000Y-271050000D03*
%TO.P,U15,14,DIAG*%
%TO.N,unconnected-(U15-Pad14)*%
X351375000Y-271700000D03*
%TO.P,U15,15,GNDCC*%
%TO.N,GND*%
X351375000Y-272350000D03*
%TO.P,U15,16,NC*%
%TO.N,unconnected-(U15-Pad16)*%
X351375000Y-273000000D03*
%TO.P,U15,17,NC*%
%TO.N,unconnected-(U15-Pad17)*%
X351375000Y-273650000D03*
%TO.P,U15,18,NC*%
%TO.N,unconnected-(U15-Pad18)*%
X351375000Y-274300000D03*
%TO.P,U15,19,GNDbb*%
%TO.N,Earth*%
X364625000Y-274300000D03*
%TO.P,U15,20,NC*%
%TO.N,unconnected-(U15-Pad20)*%
X364625000Y-273650000D03*
%TO.P,U15,21,OUT7*%
%TO.N,Net-(J17-Pad1)*%
X364625000Y-273000000D03*
%TO.P,U15,22,OUT7*%
X364625000Y-272350000D03*
%TO.P,U15,23,OUT6*%
%TO.N,Net-(J17-Pad3)*%
X364625000Y-271700000D03*
%TO.P,U15,24,OUT6*%
X364625000Y-271050000D03*
%TO.P,U15,25,OUT5*%
%TO.N,Net-(J17-Pad5)*%
X364625000Y-270400000D03*
%TO.P,U15,26,OUT5*%
X364625000Y-269750000D03*
%TO.P,U15,27,OUT4*%
%TO.N,Net-(J17-Pad7)*%
X364625000Y-269100000D03*
%TO.P,U15,28,OUT4*%
X364625000Y-268450000D03*
%TO.P,U15,29,OUT3*%
%TO.N,Net-(J17-Pad9)*%
X364625000Y-267800000D03*
%TO.P,U15,30,OUT3*%
X364625000Y-267150000D03*
%TO.P,U15,31,OUT2*%
%TO.N,Net-(J17-Pad11)*%
X364625000Y-266500000D03*
%TO.P,U15,32,OUT2*%
X364625000Y-265850000D03*
%TO.P,U15,33,OUT1*%
%TO.N,Net-(J17-Pad13)*%
X364625000Y-265200000D03*
%TO.P,U15,34,OUT1*%
X364625000Y-264550000D03*
%TO.P,U15,35,OUT0*%
%TO.N,Net-(J17-Pad15)*%
X364625000Y-263900000D03*
%TO.P,U15,36,OUT0*%
X364625000Y-263250000D03*
D12*
%TO.P,U15,37,VBB*%
%TO.N,+24V*%
X358000000Y-268775000D03*
%TD*%
D14*
%TO.P,C17,1*%
%TO.N,Earth*%
X358000000Y-316037500D03*
%TO.P,C17,2*%
%TO.N,+24V*%
X358000000Y-312912500D03*
%TD*%
D10*
%TO.P,J6,1,Pin_1*%
%TO.N,Net-(J6-Pad1)*%
X293000000Y-152750000D03*
%TO.P,J6,2,Pin_2*%
%TO.N,Earth*%
X281800000Y-154500000D03*
%TO.P,J6,3,Pin_3*%
%TO.N,Net-(J6-Pad3)*%
X293000000Y-156250000D03*
%TO.P,J6,4,Pin_4*%
%TO.N,Earth*%
X281800000Y-158000000D03*
%TO.P,J6,5,Pin_5*%
%TO.N,Net-(J6-Pad5)*%
X293000000Y-159750000D03*
%TO.P,J6,6,Pin_6*%
%TO.N,Earth*%
X281800000Y-161500000D03*
%TO.P,J6,7,Pin_7*%
%TO.N,Net-(J6-Pad7)*%
X293000000Y-163250000D03*
%TO.P,J6,8,Pin_8*%
%TO.N,Earth*%
X281800000Y-165000000D03*
%TO.P,J6,9,Pin_9*%
%TO.N,Net-(J6-Pad9)*%
X293000000Y-166750000D03*
%TO.P,J6,10,Pin_10*%
%TO.N,Earth*%
X281800000Y-168500000D03*
%TO.P,J6,11,Pin_11*%
%TO.N,Net-(J6-Pad11)*%
X293000000Y-170250000D03*
%TO.P,J6,12,Pin_12*%
%TO.N,Earth*%
X281800000Y-172000000D03*
%TO.P,J6,13,Pin_13*%
%TO.N,Net-(J6-Pad13)*%
X293000000Y-173750000D03*
%TO.P,J6,14,Pin_14*%
%TO.N,Earth*%
X281800000Y-175500000D03*
%TO.P,J6,15,Pin_15*%
%TO.N,Net-(J6-Pad15)*%
X293000000Y-177250000D03*
%TO.P,J6,16,Pin_16*%
%TO.N,Earth*%
X281800000Y-179000000D03*
%TD*%
%TO.P,J22,1,Pin_1*%
%TO.N,Net-(J22-Pad1)*%
X419000000Y-262725000D03*
%TO.P,J22,2,Pin_2*%
%TO.N,Earth*%
X430200000Y-260975000D03*
%TO.P,J22,3,Pin_3*%
%TO.N,Net-(J22-Pad3)*%
X419000000Y-259225000D03*
%TO.P,J22,4,Pin_4*%
%TO.N,Earth*%
X430200000Y-257475000D03*
%TO.P,J22,5,Pin_5*%
%TO.N,Net-(J22-Pad5)*%
X419000000Y-255725000D03*
%TO.P,J22,6,Pin_6*%
%TO.N,Earth*%
X430200000Y-253975000D03*
%TO.P,J22,7,Pin_7*%
%TO.N,Net-(J22-Pad7)*%
X419000000Y-252225000D03*
%TO.P,J22,8,Pin_8*%
%TO.N,Earth*%
X430200000Y-250475000D03*
%TO.P,J22,9,Pin_9*%
%TO.N,Net-(J22-Pad9)*%
X419000000Y-248725000D03*
%TO.P,J22,10,Pin_10*%
%TO.N,Earth*%
X430200000Y-246975000D03*
%TO.P,J22,11,Pin_11*%
%TO.N,Net-(J22-Pad11)*%
X419000000Y-245225000D03*
%TO.P,J22,12,Pin_12*%
%TO.N,Earth*%
X430200000Y-243475000D03*
%TO.P,J22,13,Pin_13*%
%TO.N,Net-(J22-Pad13)*%
X419000000Y-241725000D03*
%TO.P,J22,14,Pin_14*%
%TO.N,Earth*%
X430200000Y-239975000D03*
%TO.P,J22,15,Pin_15*%
%TO.N,Net-(J22-Pad15)*%
X419000000Y-238225000D03*
%TO.P,J22,16,Pin_16*%
%TO.N,Earth*%
X430200000Y-236475000D03*
%TD*%
D13*
%TO.P,C4,1*%
%TO.N,Earth*%
X260000000Y-271437500D03*
%TO.P,C4,2*%
%TO.N,+24V*%
X260000000Y-274562500D03*
%TD*%
D11*
%TO.P,U22,1,NC*%
%TO.N,unconnected-(U22-Pad1)*%
X398375000Y-313250000D03*
%TO.P,U22,2,VCC*%
%TO.N,Net-(MCU1-Pad27)*%
X398375000Y-313900000D03*
%TO.P,U22,3,DIS*%
%TO.N,Net-(MCU1-Pad2)*%
X398375000Y-314550000D03*
%TO.P,U22,4,CS*%
%TO.N,Net-(MCU1-Pad32)*%
X398375000Y-315200000D03*
%TO.P,U22,5,SCLK*%
%TO.N,Net-(R1-Pad2)*%
X398375000Y-315850000D03*
%TO.P,U22,6,SI*%
%TO.N,Net-(U1-Pad6)*%
X398375000Y-316500000D03*
%TO.P,U22,7,NC*%
%TO.N,unconnected-(U22-Pad7)*%
X398375000Y-317150000D03*
%TO.P,U22,8,NC*%
%TO.N,unconnected-(U22-Pad8)*%
X398375000Y-317800000D03*
%TO.P,U22,9,NC*%
%TO.N,unconnected-(U22-Pad9)*%
X398375000Y-318450000D03*
%TO.P,U22,10,NC*%
%TO.N,unconnected-(U22-Pad10)*%
X398375000Y-319100000D03*
%TO.P,U22,11,NC*%
%TO.N,unconnected-(U22-Pad11)*%
X398375000Y-319750000D03*
%TO.P,U22,12,NC*%
%TO.N,unconnected-(U22-Pad12)*%
X398375000Y-320400000D03*
%TO.P,U22,13,SO*%
%TO.N,unconnected-(U22-Pad13)*%
X398375000Y-321050000D03*
%TO.P,U22,14,DIAG*%
%TO.N,unconnected-(U22-Pad14)*%
X398375000Y-321700000D03*
%TO.P,U22,15,GNDCC*%
%TO.N,GND*%
X398375000Y-322350000D03*
%TO.P,U22,16,NC*%
%TO.N,unconnected-(U22-Pad16)*%
X398375000Y-323000000D03*
%TO.P,U22,17,NC*%
%TO.N,unconnected-(U22-Pad17)*%
X398375000Y-323650000D03*
%TO.P,U22,18,NC*%
%TO.N,unconnected-(U22-Pad18)*%
X398375000Y-324300000D03*
%TO.P,U22,19,GNDbb*%
%TO.N,Earth*%
X411625000Y-324300000D03*
%TO.P,U22,20,NC*%
%TO.N,unconnected-(U22-Pad20)*%
X411625000Y-323650000D03*
%TO.P,U22,21,OUT7*%
%TO.N,Net-(J24-Pad1)*%
X411625000Y-323000000D03*
%TO.P,U22,22,OUT7*%
X411625000Y-322350000D03*
%TO.P,U22,23,OUT6*%
%TO.N,Net-(J24-Pad3)*%
X411625000Y-321700000D03*
%TO.P,U22,24,OUT6*%
X411625000Y-321050000D03*
%TO.P,U22,25,OUT5*%
%TO.N,Net-(J24-Pad5)*%
X411625000Y-320400000D03*
%TO.P,U22,26,OUT5*%
X411625000Y-319750000D03*
%TO.P,U22,27,OUT4*%
%TO.N,Net-(J24-Pad7)*%
X411625000Y-319100000D03*
%TO.P,U22,28,OUT4*%
X411625000Y-318450000D03*
%TO.P,U22,29,OUT3*%
%TO.N,Net-(J24-Pad9)*%
X411625000Y-317800000D03*
%TO.P,U22,30,OUT3*%
X411625000Y-317150000D03*
%TO.P,U22,31,OUT2*%
%TO.N,Net-(J24-Pad11)*%
X411625000Y-316500000D03*
%TO.P,U22,32,OUT2*%
X411625000Y-315850000D03*
%TO.P,U22,33,OUT1*%
%TO.N,Net-(J24-Pad13)*%
X411625000Y-315200000D03*
%TO.P,U22,34,OUT1*%
X411625000Y-314550000D03*
%TO.P,U22,35,OUT0*%
%TO.N,Net-(J24-Pad15)*%
X411625000Y-313900000D03*
%TO.P,U22,36,OUT0*%
X411625000Y-313250000D03*
D12*
%TO.P,U22,37,VBB*%
%TO.N,+24V*%
X405000000Y-318775000D03*
%TD*%
D14*
%TO.P,C15,1*%
%TO.N,Earth*%
X358000000Y-248037500D03*
%TO.P,C15,2*%
%TO.N,+24V*%
X358000000Y-244912500D03*
%TD*%
D10*
%TO.P,J7,1,Pin_1*%
%TO.N,Net-(J7-Pad1)*%
X293000000Y-186750000D03*
%TO.P,J7,2,Pin_2*%
%TO.N,Earth*%
X281800000Y-188500000D03*
%TO.P,J7,3,Pin_3*%
%TO.N,Net-(J7-Pad3)*%
X293000000Y-190250000D03*
%TO.P,J7,4,Pin_4*%
%TO.N,Earth*%
X281800000Y-192000000D03*
%TO.P,J7,5,Pin_5*%
%TO.N,Net-(J7-Pad5)*%
X293000000Y-193750000D03*
%TO.P,J7,6,Pin_6*%
%TO.N,Earth*%
X281800000Y-195500000D03*
%TO.P,J7,7,Pin_7*%
%TO.N,Net-(J7-Pad7)*%
X293000000Y-197250000D03*
%TO.P,J7,8,Pin_8*%
%TO.N,Earth*%
X281800000Y-199000000D03*
%TO.P,J7,9,Pin_9*%
%TO.N,Net-(J7-Pad9)*%
X293000000Y-200750000D03*
%TO.P,J7,10,Pin_10*%
%TO.N,Earth*%
X281800000Y-202500000D03*
%TO.P,J7,11,Pin_11*%
%TO.N,Net-(J7-Pad11)*%
X293000000Y-204250000D03*
%TO.P,J7,12,Pin_12*%
%TO.N,Earth*%
X281800000Y-206000000D03*
%TO.P,J7,13,Pin_13*%
%TO.N,Net-(J7-Pad13)*%
X293000000Y-207750000D03*
%TO.P,J7,14,Pin_14*%
%TO.N,Earth*%
X281800000Y-209500000D03*
%TO.P,J7,15,Pin_15*%
%TO.N,Net-(J7-Pad15)*%
X293000000Y-211250000D03*
%TO.P,J7,16,Pin_16*%
%TO.N,Earth*%
X281800000Y-213000000D03*
%TD*%
D13*
%TO.P,C5,1*%
%TO.N,Earth*%
X260000000Y-305437500D03*
%TO.P,C5,2*%
%TO.N,+24V*%
X260000000Y-308562500D03*
%TD*%
D10*
%TO.P,J1,1,Pin_1*%
%TO.N,Net-(J1-Pad1)*%
X246000000Y-170750000D03*
%TO.P,J1,2,Pin_2*%
%TO.N,Earth*%
X234800000Y-172500000D03*
%TO.P,J1,3,Pin_3*%
%TO.N,Net-(J1-Pad3)*%
X246000000Y-174250000D03*
%TO.P,J1,4,Pin_4*%
%TO.N,Earth*%
X234800000Y-176000000D03*
%TO.P,J1,5,Pin_5*%
%TO.N,Net-(J1-Pad5)*%
X246000000Y-177750000D03*
%TO.P,J1,6,Pin_6*%
%TO.N,Earth*%
X234800000Y-179500000D03*
%TO.P,J1,7,Pin_7*%
%TO.N,Net-(J1-Pad7)*%
X246000000Y-181250000D03*
%TO.P,J1,8,Pin_8*%
%TO.N,Earth*%
X234800000Y-183000000D03*
%TO.P,J1,9,Pin_9*%
%TO.N,Net-(J1-Pad9)*%
X246000000Y-184750000D03*
%TO.P,J1,10,Pin_10*%
%TO.N,Earth*%
X234800000Y-186500000D03*
%TO.P,J1,11,Pin_11*%
%TO.N,Net-(J1-Pad11)*%
X246000000Y-188250000D03*
%TO.P,J1,12,Pin_12*%
%TO.N,Earth*%
X234800000Y-190000000D03*
%TO.P,J1,13,Pin_13*%
%TO.N,Net-(J1-Pad13)*%
X246000000Y-191750000D03*
%TO.P,J1,14,Pin_14*%
%TO.N,Earth*%
X234800000Y-193500000D03*
%TO.P,J1,15,Pin_15*%
%TO.N,Net-(J1-Pad15)*%
X246000000Y-195250000D03*
%TO.P,J1,16,Pin_16*%
%TO.N,Earth*%
X234800000Y-197000000D03*
%TD*%
D11*
%TO.P,U9,1,NC*%
%TO.N,unconnected-(U9-Pad1)*%
X313625000Y-272275000D03*
%TO.P,U9,2,VCC*%
%TO.N,Net-(MCU1-Pad15)*%
X313625000Y-271625000D03*
%TO.P,U9,3,DIS*%
%TO.N,Net-(MCU1-Pad2)*%
X313625000Y-270975000D03*
%TO.P,U9,4,CS*%
%TO.N,Net-(MCU1-Pad11)*%
X313625000Y-270325000D03*
%TO.P,U9,5,SCLK*%
%TO.N,Net-(R1-Pad2)*%
X313625000Y-269675000D03*
%TO.P,U9,6,SI*%
%TO.N,Net-(U1-Pad6)*%
X313625000Y-269025000D03*
%TO.P,U9,7,NC*%
%TO.N,unconnected-(U9-Pad7)*%
X313625000Y-268375000D03*
%TO.P,U9,8,NC*%
%TO.N,unconnected-(U9-Pad8)*%
X313625000Y-267725000D03*
%TO.P,U9,9,NC*%
%TO.N,unconnected-(U9-Pad9)*%
X313625000Y-267075000D03*
%TO.P,U9,10,NC*%
%TO.N,unconnected-(U9-Pad10)*%
X313625000Y-266425000D03*
%TO.P,U9,11,NC*%
%TO.N,unconnected-(U9-Pad11)*%
X313625000Y-265775000D03*
%TO.P,U9,12,NC*%
%TO.N,unconnected-(U9-Pad12)*%
X313625000Y-265125000D03*
%TO.P,U9,13,SO*%
%TO.N,unconnected-(U9-Pad13)*%
X313625000Y-264475000D03*
%TO.P,U9,14,DIAG*%
%TO.N,unconnected-(U9-Pad14)*%
X313625000Y-263825000D03*
%TO.P,U9,15,GNDCC*%
%TO.N,GND*%
X313625000Y-263175000D03*
%TO.P,U9,16,NC*%
%TO.N,unconnected-(U9-Pad16)*%
X313625000Y-262525000D03*
%TO.P,U9,17,NC*%
%TO.N,unconnected-(U9-Pad17)*%
X313625000Y-261875000D03*
%TO.P,U9,18,NC*%
%TO.N,unconnected-(U9-Pad18)*%
X313625000Y-261225000D03*
%TO.P,U9,19,GNDbb*%
%TO.N,Earth*%
X300375000Y-261225000D03*
%TO.P,U9,20,NC*%
%TO.N,unconnected-(U9-Pad20)*%
X300375000Y-261875000D03*
%TO.P,U9,21,OUT7*%
%TO.N,Net-(J9-Pad1)*%
X300375000Y-262525000D03*
%TO.P,U9,22,OUT7*%
X300375000Y-263175000D03*
%TO.P,U9,23,OUT6*%
%TO.N,Net-(J9-Pad3)*%
X300375000Y-263825000D03*
%TO.P,U9,24,OUT6*%
X300375000Y-264475000D03*
%TO.P,U9,25,OUT5*%
%TO.N,Net-(J9-Pad5)*%
X300375000Y-265125000D03*
%TO.P,U9,26,OUT5*%
X300375000Y-265775000D03*
%TO.P,U9,27,OUT4*%
%TO.N,Net-(J9-Pad7)*%
X300375000Y-266425000D03*
%TO.P,U9,28,OUT4*%
X300375000Y-267075000D03*
%TO.P,U9,29,OUT3*%
%TO.N,Net-(J9-Pad9)*%
X300375000Y-267725000D03*
%TO.P,U9,30,OUT3*%
X300375000Y-268375000D03*
%TO.P,U9,31,OUT2*%
%TO.N,Net-(J9-Pad11)*%
X300375000Y-269025000D03*
%TO.P,U9,32,OUT2*%
X300375000Y-269675000D03*
%TO.P,U9,33,OUT1*%
%TO.N,Net-(J9-Pad13)*%
X300375000Y-270325000D03*
%TO.P,U9,34,OUT1*%
X300375000Y-270975000D03*
%TO.P,U9,35,OUT0*%
%TO.N,Net-(J9-Pad15)*%
X300375000Y-271625000D03*
%TO.P,U9,36,OUT0*%
X300375000Y-272275000D03*
D12*
%TO.P,U9,37,VBB*%
%TO.N,+24V*%
X307000000Y-266750000D03*
%TD*%
D13*
%TO.P,C2,1*%
%TO.N,Earth*%
X260000000Y-203437500D03*
%TO.P,C2,2*%
%TO.N,+24V*%
X260000000Y-206562500D03*
%TD*%
D10*
%TO.P,J19,1,Pin_1*%
%TO.N,Net-(J19-Pad1)*%
X372000000Y-348725000D03*
%TO.P,J19,2,Pin_2*%
%TO.N,Earth*%
X383200000Y-346975000D03*
%TO.P,J19,3,Pin_3*%
%TO.N,Net-(J19-Pad3)*%
X372000000Y-345225000D03*
%TO.P,J19,4,Pin_4*%
%TO.N,Earth*%
X383200000Y-343475000D03*
%TO.P,J19,5,Pin_5*%
%TO.N,Net-(J19-Pad5)*%
X372000000Y-341725000D03*
%TO.P,J19,6,Pin_6*%
%TO.N,Earth*%
X383200000Y-339975000D03*
%TO.P,J19,7,Pin_7*%
%TO.N,Net-(J19-Pad7)*%
X372000000Y-338225000D03*
%TO.P,J19,8,Pin_8*%
%TO.N,Earth*%
X383200000Y-336475000D03*
%TO.P,J19,9,Pin_9*%
%TO.N,Net-(J19-Pad9)*%
X372000000Y-334725000D03*
%TO.P,J19,10,Pin_10*%
%TO.N,Earth*%
X383200000Y-332975000D03*
%TO.P,J19,11,Pin_11*%
%TO.N,Net-(J19-Pad11)*%
X372000000Y-331225000D03*
%TO.P,J19,12,Pin_12*%
%TO.N,Earth*%
X383200000Y-329475000D03*
%TO.P,J19,13,Pin_13*%
%TO.N,Net-(J19-Pad13)*%
X372000000Y-327725000D03*
%TO.P,J19,14,Pin_14*%
%TO.N,Earth*%
X383200000Y-325975000D03*
%TO.P,J19,15,Pin_15*%
%TO.N,Net-(J19-Pad15)*%
X372000000Y-324225000D03*
%TO.P,J19,16,Pin_16*%
%TO.N,Earth*%
X383200000Y-322475000D03*
%TD*%
D11*
%TO.P,U3,1,NC*%
%TO.N,unconnected-(U3-Pad1)*%
X266625000Y-256275000D03*
%TO.P,U3,2,VCC*%
%TO.N,Net-(MCU1-Pad15)*%
X266625000Y-255625000D03*
%TO.P,U3,3,DIS*%
%TO.N,Net-(MCU1-Pad2)*%
X266625000Y-254975000D03*
%TO.P,U3,4,CS*%
%TO.N,Net-(MCU1-Pad5)*%
X266625000Y-254325000D03*
%TO.P,U3,5,SCLK*%
%TO.N,Net-(R1-Pad2)*%
X266625000Y-253675000D03*
%TO.P,U3,6,SI*%
%TO.N,Net-(U1-Pad6)*%
X266625000Y-253025000D03*
%TO.P,U3,7,NC*%
%TO.N,unconnected-(U3-Pad7)*%
X266625000Y-252375000D03*
%TO.P,U3,8,NC*%
%TO.N,unconnected-(U3-Pad8)*%
X266625000Y-251725000D03*
%TO.P,U3,9,NC*%
%TO.N,unconnected-(U3-Pad9)*%
X266625000Y-251075000D03*
%TO.P,U3,10,NC*%
%TO.N,unconnected-(U3-Pad10)*%
X266625000Y-250425000D03*
%TO.P,U3,11,NC*%
%TO.N,unconnected-(U3-Pad11)*%
X266625000Y-249775000D03*
%TO.P,U3,12,NC*%
%TO.N,unconnected-(U3-Pad12)*%
X266625000Y-249125000D03*
%TO.P,U3,13,SO*%
%TO.N,unconnected-(U3-Pad13)*%
X266625000Y-248475000D03*
%TO.P,U3,14,DIAG*%
%TO.N,unconnected-(U3-Pad14)*%
X266625000Y-247825000D03*
%TO.P,U3,15,GNDCC*%
%TO.N,GND*%
X266625000Y-247175000D03*
%TO.P,U3,16,NC*%
%TO.N,unconnected-(U3-Pad16)*%
X266625000Y-246525000D03*
%TO.P,U3,17,NC*%
%TO.N,unconnected-(U3-Pad17)*%
X266625000Y-245875000D03*
%TO.P,U3,18,NC*%
%TO.N,unconnected-(U3-Pad18)*%
X266625000Y-245225000D03*
%TO.P,U3,19,GNDbb*%
%TO.N,Earth*%
X253375000Y-245225000D03*
%TO.P,U3,20,NC*%
%TO.N,unconnected-(U3-Pad20)*%
X253375000Y-245875000D03*
%TO.P,U3,21,OUT7*%
%TO.N,Net-(J3-Pad1)*%
X253375000Y-246525000D03*
%TO.P,U3,22,OUT7*%
X253375000Y-247175000D03*
%TO.P,U3,23,OUT6*%
%TO.N,Net-(J3-Pad3)*%
X253375000Y-247825000D03*
%TO.P,U3,24,OUT6*%
X253375000Y-248475000D03*
%TO.P,U3,25,OUT5*%
%TO.N,Net-(J3-Pad5)*%
X253375000Y-249125000D03*
%TO.P,U3,26,OUT5*%
X253375000Y-249775000D03*
%TO.P,U3,27,OUT4*%
%TO.N,Net-(J3-Pad7)*%
X253375000Y-250425000D03*
%TO.P,U3,28,OUT4*%
X253375000Y-251075000D03*
%TO.P,U3,29,OUT3*%
%TO.N,Net-(J3-Pad9)*%
X253375000Y-251725000D03*
%TO.P,U3,30,OUT3*%
X253375000Y-252375000D03*
%TO.P,U3,31,OUT2*%
%TO.N,Net-(J3-Pad11)*%
X253375000Y-253025000D03*
%TO.P,U3,32,OUT2*%
X253375000Y-253675000D03*
%TO.P,U3,33,OUT1*%
%TO.N,Net-(J3-Pad13)*%
X253375000Y-254325000D03*
%TO.P,U3,34,OUT1*%
X253375000Y-254975000D03*
%TO.P,U3,35,OUT0*%
%TO.N,Net-(J3-Pad15)*%
X253375000Y-255625000D03*
%TO.P,U3,36,OUT0*%
X253375000Y-256275000D03*
D12*
%TO.P,U3,37,VBB*%
%TO.N,+24V*%
X260000000Y-250750000D03*
%TD*%
D10*
%TO.P,J8,1,Pin_1*%
%TO.N,Net-(J8-Pad1)*%
X293000000Y-220750000D03*
%TO.P,J8,2,Pin_2*%
%TO.N,Earth*%
X281800000Y-222500000D03*
%TO.P,J8,3,Pin_3*%
%TO.N,Net-(J8-Pad3)*%
X293000000Y-224250000D03*
%TO.P,J8,4,Pin_4*%
%TO.N,Earth*%
X281800000Y-226000000D03*
%TO.P,J8,5,Pin_5*%
%TO.N,Net-(J8-Pad5)*%
X293000000Y-227750000D03*
%TO.P,J8,6,Pin_6*%
%TO.N,Earth*%
X281800000Y-229500000D03*
%TO.P,J8,7,Pin_7*%
%TO.N,Net-(J8-Pad7)*%
X293000000Y-231250000D03*
%TO.P,J8,8,Pin_8*%
%TO.N,Earth*%
X281800000Y-233000000D03*
%TO.P,J8,9,Pin_9*%
%TO.N,Net-(J8-Pad9)*%
X293000000Y-234750000D03*
%TO.P,J8,10,Pin_10*%
%TO.N,Earth*%
X281800000Y-236500000D03*
%TO.P,J8,11,Pin_11*%
%TO.N,Net-(J8-Pad11)*%
X293000000Y-238250000D03*
%TO.P,J8,12,Pin_12*%
%TO.N,Earth*%
X281800000Y-240000000D03*
%TO.P,J8,13,Pin_13*%
%TO.N,Net-(J8-Pad13)*%
X293000000Y-241750000D03*
%TO.P,J8,14,Pin_14*%
%TO.N,Earth*%
X281800000Y-243500000D03*
%TO.P,J8,15,Pin_15*%
%TO.N,Net-(J8-Pad15)*%
X293000000Y-245250000D03*
%TO.P,J8,16,Pin_16*%
%TO.N,Earth*%
X281800000Y-247000000D03*
%TD*%
D13*
%TO.P,C20,1*%
%TO.N,Earth*%
X405000000Y-203437500D03*
%TO.P,C20,2*%
%TO.N,+24V*%
X405000000Y-206562500D03*
%TD*%
D17*
%TO.P,MCU1,1,GND*%
%TO.N,GND*%
X324880000Y-141425000D03*
%TO.P,MCU1,2*%
%TO.N,Net-(MCU1-Pad2)*%
X324880000Y-143965000D03*
%TO.P,MCU1,3*%
%TO.N,Net-(MCU1-Pad3)*%
X324880000Y-146505000D03*
%TO.P,MCU1,4*%
%TO.N,Net-(MCU1-Pad4)*%
X324880000Y-149045000D03*
%TO.P,MCU1,5*%
%TO.N,Net-(MCU1-Pad5)*%
X324880000Y-151585000D03*
%TO.P,MCU1,6*%
%TO.N,Net-(MCU1-Pad6)*%
X324880000Y-154125000D03*
%TO.P,MCU1,7*%
%TO.N,Net-(MCU1-Pad7)*%
X324880000Y-156665000D03*
%TO.P,MCU1,8*%
%TO.N,Net-(MCU1-Pad8)*%
X324880000Y-159205000D03*
%TO.P,MCU1,9*%
%TO.N,Net-(MCU1-Pad9)*%
X324880000Y-161745000D03*
%TO.P,MCU1,10*%
%TO.N,Net-(MCU1-Pad10)*%
X324880000Y-164285000D03*
%TO.P,MCU1,11*%
%TO.N,Net-(MCU1-Pad11)*%
X324880000Y-166825000D03*
%TO.P,MCU1,12*%
%TO.N,Net-(MCU1-Pad12)*%
X324880000Y-169365000D03*
%TO.P,MCU1,13*%
%TO.N,Net-(MCU1-Pad13)*%
X324880000Y-171905000D03*
%TO.P,MCU1,14*%
%TO.N,unconnected-(MCU1-Pad14)*%
X324880000Y-174445000D03*
%TO.P,MCU1,15,3.3V*%
%TO.N,Net-(MCU1-Pad15)*%
X324880000Y-176985000D03*
%TO.P,MCU1,16*%
%TO.N,Net-(MCU1-Pad16)*%
X324880000Y-179525000D03*
%TO.P,MCU1,17*%
%TO.N,unconnected-(MCU1-Pad17)*%
X324880000Y-182065000D03*
%TO.P,MCU1,18*%
%TO.N,unconnected-(MCU1-Pad18)*%
X324880000Y-184605000D03*
%TO.P,MCU1,19*%
%TO.N,unconnected-(MCU1-Pad19)*%
X324880000Y-187145000D03*
%TO.P,MCU1,20*%
%TO.N,unconnected-(MCU1-Pad20)*%
X324880000Y-189685000D03*
%TO.P,MCU1,21*%
%TO.N,unconnected-(MCU1-Pad21)*%
X324880000Y-192225000D03*
%TO.P,MCU1,22*%
%TO.N,unconnected-(MCU1-Pad22)*%
X324880000Y-194765000D03*
%TO.P,MCU1,23*%
%TO.N,unconnected-(MCU1-Pad23)*%
X324880000Y-197305000D03*
%TO.P,MCU1,24*%
%TO.N,unconnected-(MCU1-Pad24)*%
X324880000Y-199845000D03*
%TO.P,MCU1,25,Vin*%
%TO.N,unconnected-(MCU1-Pad25)*%
X340120000Y-141425000D03*
%TO.P,MCU1,26,GND*%
%TO.N,GND*%
X340120000Y-143965000D03*
%TO.P,MCU1,27,3.3V*%
%TO.N,Net-(MCU1-Pad27)*%
X340120000Y-146505000D03*
%TO.P,MCU1,28*%
%TO.N,Net-(MCU1-Pad28)*%
X340120000Y-149045000D03*
%TO.P,MCU1,29*%
%TO.N,Net-(MCU1-Pad29)*%
X340120000Y-151585000D03*
%TO.P,MCU1,30*%
%TO.N,Net-(MCU1-Pad30)*%
X340120000Y-154125000D03*
%TO.P,MCU1,31*%
%TO.N,Net-(MCU1-Pad31)*%
X340120000Y-156665000D03*
%TO.P,MCU1,32*%
%TO.N,Net-(MCU1-Pad32)*%
X340120000Y-159205000D03*
%TO.P,MCU1,33*%
%TO.N,Net-(MCU1-Pad33)*%
X340120000Y-161745000D03*
%TO.P,MCU1,34*%
%TO.N,Net-(MCU1-Pad34)*%
X340120000Y-164285000D03*
%TO.P,MCU1,35*%
%TO.N,Net-(MCU1-Pad35)*%
X340120000Y-166825000D03*
%TO.P,MCU1,36*%
%TO.N,Net-(MCU1-Pad36)*%
X340120000Y-169365000D03*
%TO.P,MCU1,37*%
%TO.N,Net-(MCU1-Pad37)*%
X340120000Y-171905000D03*
%TO.P,MCU1,38*%
%TO.N,Net-(MCU1-Pad38)*%
X340120000Y-174445000D03*
%TO.P,MCU1,39,GND*%
%TO.N,GND*%
X340120000Y-176985000D03*
%TO.P,MCU1,40*%
%TO.N,Net-(MCU1-Pad40)*%
X340120000Y-179525000D03*
%TO.P,MCU1,41*%
%TO.N,unconnected-(MCU1-Pad41)*%
X340120000Y-182065000D03*
%TO.P,MCU1,42*%
%TO.N,unconnected-(MCU1-Pad42)*%
X340120000Y-184605000D03*
%TO.P,MCU1,43*%
%TO.N,unconnected-(MCU1-Pad43)*%
X340120000Y-187145000D03*
%TO.P,MCU1,44*%
%TO.N,unconnected-(MCU1-Pad44)*%
X340120000Y-189685000D03*
%TO.P,MCU1,45*%
%TO.N,unconnected-(MCU1-Pad45)*%
X340120000Y-192225000D03*
%TO.P,MCU1,46*%
%TO.N,unconnected-(MCU1-Pad46)*%
X340120000Y-194765000D03*
%TO.P,MCU1,47*%
%TO.N,unconnected-(MCU1-Pad47)*%
X340120000Y-197305000D03*
%TO.P,MCU1,48*%
%TO.N,unconnected-(MCU1-Pad48)*%
X340120000Y-199845000D03*
%TD*%
D11*
%TO.P,U20,1,NC*%
%TO.N,unconnected-(U20-Pad1)*%
X398375000Y-245250000D03*
%TO.P,U20,2,VCC*%
%TO.N,Net-(MCU1-Pad27)*%
X398375000Y-245900000D03*
%TO.P,U20,3,DIS*%
%TO.N,Net-(MCU1-Pad2)*%
X398375000Y-246550000D03*
%TO.P,U20,4,CS*%
%TO.N,Net-(MCU1-Pad30)*%
X398375000Y-247200000D03*
%TO.P,U20,5,SCLK*%
%TO.N,Net-(R1-Pad2)*%
X398375000Y-247850000D03*
%TO.P,U20,6,SI*%
%TO.N,Net-(U1-Pad6)*%
X398375000Y-248500000D03*
%TO.P,U20,7,NC*%
%TO.N,unconnected-(U20-Pad7)*%
X398375000Y-249150000D03*
%TO.P,U20,8,NC*%
%TO.N,unconnected-(U20-Pad8)*%
X398375000Y-249800000D03*
%TO.P,U20,9,NC*%
%TO.N,unconnected-(U20-Pad9)*%
X398375000Y-250450000D03*
%TO.P,U20,10,NC*%
%TO.N,unconnected-(U20-Pad10)*%
X398375000Y-251100000D03*
%TO.P,U20,11,NC*%
%TO.N,unconnected-(U20-Pad11)*%
X398375000Y-251750000D03*
%TO.P,U20,12,NC*%
%TO.N,unconnected-(U20-Pad12)*%
X398375000Y-252400000D03*
%TO.P,U20,13,SO*%
%TO.N,unconnected-(U20-Pad13)*%
X398375000Y-253050000D03*
%TO.P,U20,14,DIAG*%
%TO.N,unconnected-(U20-Pad14)*%
X398375000Y-253700000D03*
%TO.P,U20,15,GNDCC*%
%TO.N,GND*%
X398375000Y-254350000D03*
%TO.P,U20,16,NC*%
%TO.N,unconnected-(U20-Pad16)*%
X398375000Y-255000000D03*
%TO.P,U20,17,NC*%
%TO.N,unconnected-(U20-Pad17)*%
X398375000Y-255650000D03*
%TO.P,U20,18,NC*%
%TO.N,unconnected-(U20-Pad18)*%
X398375000Y-256300000D03*
%TO.P,U20,19,GNDbb*%
%TO.N,Earth*%
X411625000Y-256300000D03*
%TO.P,U20,20,NC*%
%TO.N,unconnected-(U20-Pad20)*%
X411625000Y-255650000D03*
%TO.P,U20,21,OUT7*%
%TO.N,Net-(J22-Pad1)*%
X411625000Y-255000000D03*
%TO.P,U20,22,OUT7*%
X411625000Y-254350000D03*
%TO.P,U20,23,OUT6*%
%TO.N,Net-(J22-Pad3)*%
X411625000Y-253700000D03*
%TO.P,U20,24,OUT6*%
X411625000Y-253050000D03*
%TO.P,U20,25,OUT5*%
%TO.N,Net-(J22-Pad5)*%
X411625000Y-252400000D03*
%TO.P,U20,26,OUT5*%
X411625000Y-251750000D03*
%TO.P,U20,27,OUT4*%
%TO.N,Net-(J22-Pad7)*%
X411625000Y-251100000D03*
%TO.P,U20,28,OUT4*%
X411625000Y-250450000D03*
%TO.P,U20,29,OUT3*%
%TO.N,Net-(J22-Pad9)*%
X411625000Y-249800000D03*
%TO.P,U20,30,OUT3*%
X411625000Y-249150000D03*
%TO.P,U20,31,OUT2*%
%TO.N,Net-(J22-Pad11)*%
X411625000Y-248500000D03*
%TO.P,U20,32,OUT2*%
X411625000Y-247850000D03*
%TO.P,U20,33,OUT1*%
%TO.N,Net-(J22-Pad13)*%
X411625000Y-247200000D03*
%TO.P,U20,34,OUT1*%
X411625000Y-246550000D03*
%TO.P,U20,35,OUT0*%
%TO.N,Net-(J22-Pad15)*%
X411625000Y-245900000D03*
%TO.P,U20,36,OUT0*%
X411625000Y-245250000D03*
D12*
%TO.P,U20,37,VBB*%
%TO.N,+24V*%
X405000000Y-250775000D03*
%TD*%
D10*
%TO.P,J5,1,Pin_1*%
%TO.N,Net-(J5-Pad1)*%
X246000000Y-306750000D03*
%TO.P,J5,2,Pin_2*%
%TO.N,Earth*%
X234800000Y-308500000D03*
%TO.P,J5,3,Pin_3*%
%TO.N,Net-(J5-Pad3)*%
X246000000Y-310250000D03*
%TO.P,J5,4,Pin_4*%
%TO.N,Earth*%
X234800000Y-312000000D03*
%TO.P,J5,5,Pin_5*%
%TO.N,Net-(J5-Pad5)*%
X246000000Y-313750000D03*
%TO.P,J5,6,Pin_6*%
%TO.N,Earth*%
X234800000Y-315500000D03*
%TO.P,J5,7,Pin_7*%
%TO.N,Net-(J5-Pad7)*%
X246000000Y-317250000D03*
%TO.P,J5,8,Pin_8*%
%TO.N,Earth*%
X234800000Y-319000000D03*
%TO.P,J5,9,Pin_9*%
%TO.N,Net-(J5-Pad9)*%
X246000000Y-320750000D03*
%TO.P,J5,10,Pin_10*%
%TO.N,Earth*%
X234800000Y-322500000D03*
%TO.P,J5,11,Pin_11*%
%TO.N,Net-(J5-Pad11)*%
X246000000Y-324250000D03*
%TO.P,J5,12,Pin_12*%
%TO.N,Earth*%
X234800000Y-326000000D03*
%TO.P,J5,13,Pin_13*%
%TO.N,Net-(J5-Pad13)*%
X246000000Y-327750000D03*
%TO.P,J5,14,Pin_14*%
%TO.N,Earth*%
X234800000Y-329500000D03*
%TO.P,J5,15,Pin_15*%
%TO.N,Net-(J5-Pad15)*%
X246000000Y-331250000D03*
%TO.P,J5,16,Pin_16*%
%TO.N,Earth*%
X234800000Y-333000000D03*
%TD*%
%TO.P,J11,1,Pin_1*%
%TO.N,Net-(J11-Pad1)*%
X293000000Y-322750000D03*
%TO.P,J11,2,Pin_2*%
%TO.N,Earth*%
X281800000Y-324500000D03*
%TO.P,J11,3,Pin_3*%
%TO.N,Net-(J11-Pad3)*%
X293000000Y-326250000D03*
%TO.P,J11,4,Pin_4*%
%TO.N,Earth*%
X281800000Y-328000000D03*
%TO.P,J11,5,Pin_5*%
%TO.N,Net-(J11-Pad5)*%
X293000000Y-329750000D03*
%TO.P,J11,6,Pin_6*%
%TO.N,Earth*%
X281800000Y-331500000D03*
%TO.P,J11,7,Pin_7*%
%TO.N,Net-(J11-Pad7)*%
X293000000Y-333250000D03*
%TO.P,J11,8,Pin_8*%
%TO.N,Earth*%
X281800000Y-335000000D03*
%TO.P,J11,9,Pin_9*%
%TO.N,Net-(J11-Pad9)*%
X293000000Y-336750000D03*
%TO.P,J11,10,Pin_10*%
%TO.N,Earth*%
X281800000Y-338500000D03*
%TO.P,J11,11,Pin_11*%
%TO.N,Net-(J11-Pad11)*%
X293000000Y-340250000D03*
%TO.P,J11,12,Pin_12*%
%TO.N,Earth*%
X281800000Y-342000000D03*
%TO.P,J11,13,Pin_13*%
%TO.N,Net-(J11-Pad13)*%
X293000000Y-343750000D03*
%TO.P,J11,14,Pin_14*%
%TO.N,Earth*%
X281800000Y-345500000D03*
%TO.P,J11,15,Pin_15*%
%TO.N,Net-(J11-Pad15)*%
X293000000Y-347250000D03*
%TO.P,J11,16,Pin_16*%
%TO.N,Earth*%
X281800000Y-349000000D03*
%TD*%
D13*
%TO.P,C18,1*%
%TO.N,Earth*%
X358000000Y-323437500D03*
%TO.P,C18,2*%
%TO.N,+24V*%
X358000000Y-326562500D03*
%TD*%
%TO.P,C14,1*%
%TO.N,Earth*%
X358000000Y-187937500D03*
%TO.P,C14,2*%
%TO.N,+24V*%
X358000000Y-191062500D03*
%TD*%
D10*
%TO.P,J10,1,Pin_1*%
%TO.N,Net-(J10-Pad1)*%
X293000000Y-288750000D03*
%TO.P,J10,2,Pin_2*%
%TO.N,Earth*%
X281800000Y-290500000D03*
%TO.P,J10,3,Pin_3*%
%TO.N,Net-(J10-Pad3)*%
X293000000Y-292250000D03*
%TO.P,J10,4,Pin_4*%
%TO.N,Earth*%
X281800000Y-294000000D03*
%TO.P,J10,5,Pin_5*%
%TO.N,Net-(J10-Pad5)*%
X293000000Y-295750000D03*
%TO.P,J10,6,Pin_6*%
%TO.N,Earth*%
X281800000Y-297500000D03*
%TO.P,J10,7,Pin_7*%
%TO.N,Net-(J10-Pad7)*%
X293000000Y-299250000D03*
%TO.P,J10,8,Pin_8*%
%TO.N,Earth*%
X281800000Y-301000000D03*
%TO.P,J10,9,Pin_9*%
%TO.N,Net-(J10-Pad9)*%
X293000000Y-302750000D03*
%TO.P,J10,10,Pin_10*%
%TO.N,Earth*%
X281800000Y-304500000D03*
%TO.P,J10,11,Pin_11*%
%TO.N,Net-(J10-Pad11)*%
X293000000Y-306250000D03*
%TO.P,J10,12,Pin_12*%
%TO.N,Earth*%
X281800000Y-308000000D03*
%TO.P,J10,13,Pin_13*%
%TO.N,Net-(J10-Pad13)*%
X293000000Y-309750000D03*
%TO.P,J10,14,Pin_14*%
%TO.N,Earth*%
X281800000Y-311500000D03*
%TO.P,J10,15,Pin_15*%
%TO.N,Net-(J10-Pad15)*%
X293000000Y-313250000D03*
%TO.P,J10,16,Pin_16*%
%TO.N,Earth*%
X281800000Y-315000000D03*
%TD*%
D11*
%TO.P,U6,1,NC*%
%TO.N,unconnected-(U6-Pad1)*%
X313625000Y-170500000D03*
%TO.P,U6,2,VCC*%
%TO.N,Net-(MCU1-Pad15)*%
X313625000Y-169850000D03*
%TO.P,U6,3,DIS*%
%TO.N,Net-(MCU1-Pad2)*%
X313625000Y-169200000D03*
%TO.P,U6,4,CS*%
%TO.N,Net-(MCU1-Pad8)*%
X313625000Y-168550000D03*
%TO.P,U6,5,SCLK*%
%TO.N,Net-(R1-Pad2)*%
X313625000Y-167900000D03*
%TO.P,U6,6,SI*%
%TO.N,Net-(U1-Pad6)*%
X313625000Y-167250000D03*
%TO.P,U6,7,NC*%
%TO.N,unconnected-(U6-Pad7)*%
X313625000Y-166600000D03*
%TO.P,U6,8,NC*%
%TO.N,unconnected-(U6-Pad8)*%
X313625000Y-165950000D03*
%TO.P,U6,9,NC*%
%TO.N,unconnected-(U6-Pad9)*%
X313625000Y-165300000D03*
%TO.P,U6,10,NC*%
%TO.N,unconnected-(U6-Pad10)*%
X313625000Y-164650000D03*
%TO.P,U6,11,NC*%
%TO.N,unconnected-(U6-Pad11)*%
X313625000Y-164000000D03*
%TO.P,U6,12,NC*%
%TO.N,unconnected-(U6-Pad12)*%
X313625000Y-163350000D03*
%TO.P,U6,13,SO*%
%TO.N,unconnected-(U6-Pad13)*%
X313625000Y-162700000D03*
%TO.P,U6,14,DIAG*%
%TO.N,unconnected-(U6-Pad14)*%
X313625000Y-162050000D03*
%TO.P,U6,15,GNDCC*%
%TO.N,GND*%
X313625000Y-161400000D03*
%TO.P,U6,16,NC*%
%TO.N,unconnected-(U6-Pad16)*%
X313625000Y-160750000D03*
%TO.P,U6,17,NC*%
%TO.N,unconnected-(U6-Pad17)*%
X313625000Y-160100000D03*
%TO.P,U6,18,NC*%
%TO.N,unconnected-(U6-Pad18)*%
X313625000Y-159450000D03*
%TO.P,U6,19,GNDbb*%
%TO.N,Earth*%
X300375000Y-159450000D03*
%TO.P,U6,20,NC*%
%TO.N,unconnected-(U6-Pad20)*%
X300375000Y-160100000D03*
%TO.P,U6,21,OUT7*%
%TO.N,Net-(J6-Pad1)*%
X300375000Y-160750000D03*
%TO.P,U6,22,OUT7*%
X300375000Y-161400000D03*
%TO.P,U6,23,OUT6*%
%TO.N,Net-(J6-Pad3)*%
X300375000Y-162050000D03*
%TO.P,U6,24,OUT6*%
X300375000Y-162700000D03*
%TO.P,U6,25,OUT5*%
%TO.N,Net-(J6-Pad5)*%
X300375000Y-163350000D03*
%TO.P,U6,26,OUT5*%
X300375000Y-164000000D03*
%TO.P,U6,27,OUT4*%
%TO.N,Net-(J6-Pad7)*%
X300375000Y-164650000D03*
%TO.P,U6,28,OUT4*%
X300375000Y-165300000D03*
%TO.P,U6,29,OUT3*%
%TO.N,Net-(J6-Pad9)*%
X300375000Y-165950000D03*
%TO.P,U6,30,OUT3*%
X300375000Y-166600000D03*
%TO.P,U6,31,OUT2*%
%TO.N,Net-(J6-Pad11)*%
X300375000Y-167250000D03*
%TO.P,U6,32,OUT2*%
X300375000Y-167900000D03*
%TO.P,U6,33,OUT1*%
%TO.N,Net-(J6-Pad13)*%
X300375000Y-168550000D03*
%TO.P,U6,34,OUT1*%
X300375000Y-169200000D03*
%TO.P,U6,35,OUT0*%
%TO.N,Net-(J6-Pad15)*%
X300375000Y-169850000D03*
%TO.P,U6,36,OUT0*%
X300375000Y-170500000D03*
D12*
%TO.P,U6,37,VBB*%
%TO.N,+24V*%
X307000000Y-164975000D03*
%TD*%
D10*
%TO.P,J12,1,Pin_1*%
%TO.N,Earth*%
X330750000Y-347250000D03*
%TO.P,J12,2,Pin_2*%
%TO.N,+24V*%
X334250000Y-347250000D03*
%TD*%
D11*
%TO.P,U10,1,NC*%
%TO.N,unconnected-(U10-Pad1)*%
X313625000Y-306250000D03*
%TO.P,U10,2,VCC*%
%TO.N,Net-(MCU1-Pad15)*%
X313625000Y-305600000D03*
%TO.P,U10,3,DIS*%
%TO.N,Net-(MCU1-Pad2)*%
X313625000Y-304950000D03*
%TO.P,U10,4,CS*%
%TO.N,Net-(MCU1-Pad12)*%
X313625000Y-304300000D03*
%TO.P,U10,5,SCLK*%
%TO.N,Net-(R1-Pad2)*%
X313625000Y-303650000D03*
%TO.P,U10,6,SI*%
%TO.N,Net-(U1-Pad6)*%
X313625000Y-303000000D03*
%TO.P,U10,7,NC*%
%TO.N,unconnected-(U10-Pad7)*%
X313625000Y-302350000D03*
%TO.P,U10,8,NC*%
%TO.N,unconnected-(U10-Pad8)*%
X313625000Y-301700000D03*
%TO.P,U10,9,NC*%
%TO.N,unconnected-(U10-Pad9)*%
X313625000Y-301050000D03*
%TO.P,U10,10,NC*%
%TO.N,unconnected-(U10-Pad10)*%
X313625000Y-300400000D03*
%TO.P,U10,11,NC*%
%TO.N,unconnected-(U10-Pad11)*%
X313625000Y-299750000D03*
%TO.P,U10,12,NC*%
%TO.N,unconnected-(U10-Pad12)*%
X313625000Y-299100000D03*
%TO.P,U10,13,SO*%
%TO.N,unconnected-(U10-Pad13)*%
X313625000Y-298450000D03*
%TO.P,U10,14,DIAG*%
%TO.N,unconnected-(U10-Pad14)*%
X313625000Y-297800000D03*
%TO.P,U10,15,GNDCC*%
%TO.N,GND*%
X313625000Y-297150000D03*
%TO.P,U10,16,NC*%
%TO.N,unconnected-(U10-Pad16)*%
X313625000Y-296500000D03*
%TO.P,U10,17,NC*%
%TO.N,unconnected-(U10-Pad17)*%
X313625000Y-295850000D03*
%TO.P,U10,18,NC*%
%TO.N,unconnected-(U10-Pad18)*%
X313625000Y-295200000D03*
%TO.P,U10,19,GNDbb*%
%TO.N,Earth*%
X300375000Y-295200000D03*
%TO.P,U10,20,NC*%
%TO.N,unconnected-(U10-Pad20)*%
X300375000Y-295850000D03*
%TO.P,U10,21,OUT7*%
%TO.N,Net-(J10-Pad1)*%
X300375000Y-296500000D03*
%TO.P,U10,22,OUT7*%
X300375000Y-297150000D03*
%TO.P,U10,23,OUT6*%
%TO.N,Net-(J10-Pad3)*%
X300375000Y-297800000D03*
%TO.P,U10,24,OUT6*%
X300375000Y-298450000D03*
%TO.P,U10,25,OUT5*%
%TO.N,Net-(J10-Pad5)*%
X300375000Y-299100000D03*
%TO.P,U10,26,OUT5*%
X300375000Y-299750000D03*
%TO.P,U10,27,OUT4*%
%TO.N,Net-(J10-Pad7)*%
X300375000Y-300400000D03*
%TO.P,U10,28,OUT4*%
X300375000Y-301050000D03*
%TO.P,U10,29,OUT3*%
%TO.N,Net-(J10-Pad9)*%
X300375000Y-301700000D03*
%TO.P,U10,30,OUT3*%
X300375000Y-302350000D03*
%TO.P,U10,31,OUT2*%
%TO.N,Net-(J10-Pad11)*%
X300375000Y-303000000D03*
%TO.P,U10,32,OUT2*%
X300375000Y-303650000D03*
%TO.P,U10,33,OUT1*%
%TO.N,Net-(J10-Pad13)*%
X300375000Y-304300000D03*
%TO.P,U10,34,OUT1*%
X300375000Y-304950000D03*
%TO.P,U10,35,OUT0*%
%TO.N,Net-(J10-Pad15)*%
X300375000Y-305600000D03*
%TO.P,U10,36,OUT0*%
X300375000Y-306250000D03*
D12*
%TO.P,U10,37,VBB*%
%TO.N,+24V*%
X307000000Y-300725000D03*
%TD*%
D10*
%TO.P,J2,1,Pin_1*%
%TO.N,Net-(J2-Pad1)*%
X246000000Y-204750000D03*
%TO.P,J2,2,Pin_2*%
%TO.N,Earth*%
X234800000Y-206500000D03*
%TO.P,J2,3,Pin_3*%
%TO.N,Net-(J2-Pad3)*%
X246000000Y-208250000D03*
%TO.P,J2,4,Pin_4*%
%TO.N,Earth*%
X234800000Y-210000000D03*
%TO.P,J2,5,Pin_5*%
%TO.N,Net-(J2-Pad5)*%
X246000000Y-211750000D03*
%TO.P,J2,6,Pin_6*%
%TO.N,Earth*%
X234800000Y-213500000D03*
%TO.P,J2,7,Pin_7*%
%TO.N,Net-(J2-Pad7)*%
X246000000Y-215250000D03*
%TO.P,J2,8,Pin_8*%
%TO.N,Earth*%
X234800000Y-217000000D03*
%TO.P,J2,9,Pin_9*%
%TO.N,Net-(J2-Pad9)*%
X246000000Y-218750000D03*
%TO.P,J2,10,Pin_10*%
%TO.N,Earth*%
X234800000Y-220500000D03*
%TO.P,J2,11,Pin_11*%
%TO.N,Net-(J2-Pad11)*%
X246000000Y-222250000D03*
%TO.P,J2,12,Pin_12*%
%TO.N,Earth*%
X234800000Y-224000000D03*
%TO.P,J2,13,Pin_13*%
%TO.N,Net-(J2-Pad13)*%
X246000000Y-225750000D03*
%TO.P,J2,14,Pin_14*%
%TO.N,Earth*%
X234800000Y-227500000D03*
%TO.P,J2,15,Pin_15*%
%TO.N,Net-(J2-Pad15)*%
X246000000Y-229250000D03*
%TO.P,J2,16,Pin_16*%
%TO.N,Earth*%
X234800000Y-231000000D03*
%TD*%
%TO.P,J24,1,Pin_1*%
%TO.N,Net-(J24-Pad1)*%
X419000000Y-330725000D03*
%TO.P,J24,2,Pin_2*%
%TO.N,Earth*%
X430200000Y-328975000D03*
%TO.P,J24,3,Pin_3*%
%TO.N,Net-(J24-Pad3)*%
X419000000Y-327225000D03*
%TO.P,J24,4,Pin_4*%
%TO.N,Earth*%
X430200000Y-325475000D03*
%TO.P,J24,5,Pin_5*%
%TO.N,Net-(J24-Pad5)*%
X419000000Y-323725000D03*
%TO.P,J24,6,Pin_6*%
%TO.N,Earth*%
X430200000Y-321975000D03*
%TO.P,J24,7,Pin_7*%
%TO.N,Net-(J24-Pad7)*%
X419000000Y-320225000D03*
%TO.P,J24,8,Pin_8*%
%TO.N,Earth*%
X430200000Y-318475000D03*
%TO.P,J24,9,Pin_9*%
%TO.N,Net-(J24-Pad9)*%
X419000000Y-316725000D03*
%TO.P,J24,10,Pin_10*%
%TO.N,Earth*%
X430200000Y-314975000D03*
%TO.P,J24,11,Pin_11*%
%TO.N,Net-(J24-Pad11)*%
X419000000Y-313225000D03*
%TO.P,J24,12,Pin_12*%
%TO.N,Earth*%
X430200000Y-311475000D03*
%TO.P,J24,13,Pin_13*%
%TO.N,Net-(J24-Pad13)*%
X419000000Y-309725000D03*
%TO.P,J24,14,Pin_14*%
%TO.N,Earth*%
X430200000Y-307975000D03*
%TO.P,J24,15,Pin_15*%
%TO.N,Net-(J24-Pad15)*%
X419000000Y-306225000D03*
%TO.P,J24,16,Pin_16*%
%TO.N,Earth*%
X430200000Y-304475000D03*
%TD*%
D11*
%TO.P,U21,1,NC*%
%TO.N,unconnected-(U21-Pad1)*%
X398375000Y-279250000D03*
%TO.P,U21,2,VCC*%
%TO.N,Net-(MCU1-Pad27)*%
X398375000Y-279900000D03*
%TO.P,U21,3,DIS*%
%TO.N,Net-(MCU1-Pad2)*%
X398375000Y-280550000D03*
%TO.P,U21,4,CS*%
%TO.N,Net-(MCU1-Pad31)*%
X398375000Y-281200000D03*
%TO.P,U21,5,SCLK*%
%TO.N,Net-(R1-Pad2)*%
X398375000Y-281850000D03*
%TO.P,U21,6,SI*%
%TO.N,Net-(U1-Pad6)*%
X398375000Y-282500000D03*
%TO.P,U21,7,NC*%
%TO.N,unconnected-(U21-Pad7)*%
X398375000Y-283150000D03*
%TO.P,U21,8,NC*%
%TO.N,unconnected-(U21-Pad8)*%
X398375000Y-283800000D03*
%TO.P,U21,9,NC*%
%TO.N,unconnected-(U21-Pad9)*%
X398375000Y-284450000D03*
%TO.P,U21,10,NC*%
%TO.N,unconnected-(U21-Pad10)*%
X398375000Y-285100000D03*
%TO.P,U21,11,NC*%
%TO.N,unconnected-(U21-Pad11)*%
X398375000Y-285750000D03*
%TO.P,U21,12,NC*%
%TO.N,unconnected-(U21-Pad12)*%
X398375000Y-286400000D03*
%TO.P,U21,13,SO*%
%TO.N,unconnected-(U21-Pad13)*%
X398375000Y-287050000D03*
%TO.P,U21,14,DIAG*%
%TO.N,unconnected-(U21-Pad14)*%
X398375000Y-287700000D03*
%TO.P,U21,15,GNDCC*%
%TO.N,GND*%
X398375000Y-288350000D03*
%TO.P,U21,16,NC*%
%TO.N,unconnected-(U21-Pad16)*%
X398375000Y-289000000D03*
%TO.P,U21,17,NC*%
%TO.N,unconnected-(U21-Pad17)*%
X398375000Y-289650000D03*
%TO.P,U21,18,NC*%
%TO.N,unconnected-(U21-Pad18)*%
X398375000Y-290300000D03*
%TO.P,U21,19,GNDbb*%
%TO.N,Earth*%
X411625000Y-290300000D03*
%TO.P,U21,20,NC*%
%TO.N,unconnected-(U21-Pad20)*%
X411625000Y-289650000D03*
%TO.P,U21,21,OUT7*%
%TO.N,Net-(J23-Pad1)*%
X411625000Y-289000000D03*
%TO.P,U21,22,OUT7*%
X411625000Y-288350000D03*
%TO.P,U21,23,OUT6*%
%TO.N,Net-(J23-Pad3)*%
X411625000Y-287700000D03*
%TO.P,U21,24,OUT6*%
X411625000Y-287050000D03*
%TO.P,U21,25,OUT5*%
%TO.N,Net-(J23-Pad5)*%
X411625000Y-286400000D03*
%TO.P,U21,26,OUT5*%
X411625000Y-285750000D03*
%TO.P,U21,27,OUT4*%
%TO.N,Net-(J23-Pad7)*%
X411625000Y-285100000D03*
%TO.P,U21,28,OUT4*%
X411625000Y-284450000D03*
%TO.P,U21,29,OUT3*%
%TO.N,Net-(J23-Pad9)*%
X411625000Y-283800000D03*
%TO.P,U21,30,OUT3*%
X411625000Y-283150000D03*
%TO.P,U21,31,OUT2*%
%TO.N,Net-(J23-Pad11)*%
X411625000Y-282500000D03*
%TO.P,U21,32,OUT2*%
X411625000Y-281850000D03*
%TO.P,U21,33,OUT1*%
%TO.N,Net-(J23-Pad13)*%
X411625000Y-281200000D03*
%TO.P,U21,34,OUT1*%
X411625000Y-280550000D03*
%TO.P,U21,35,OUT0*%
%TO.N,Net-(J23-Pad15)*%
X411625000Y-279900000D03*
%TO.P,U21,36,OUT0*%
X411625000Y-279250000D03*
D12*
%TO.P,U21,37,VBB*%
%TO.N,+24V*%
X405000000Y-284775000D03*
%TD*%
D11*
%TO.P,U13,1,NC*%
%TO.N,unconnected-(U13-Pad1)*%
X351375000Y-195225000D03*
%TO.P,U13,2,VCC*%
%TO.N,Net-(MCU1-Pad27)*%
X351375000Y-195875000D03*
%TO.P,U13,3,DIS*%
%TO.N,Net-(MCU1-Pad2)*%
X351375000Y-196525000D03*
%TO.P,U13,4,CS*%
%TO.N,Net-(MCU1-Pad34)*%
X351375000Y-197175000D03*
%TO.P,U13,5,SCLK*%
%TO.N,Net-(R1-Pad2)*%
X351375000Y-197825000D03*
%TO.P,U13,6,SI*%
%TO.N,Net-(U1-Pad6)*%
X351375000Y-198475000D03*
%TO.P,U13,7,NC*%
%TO.N,unconnected-(U13-Pad7)*%
X351375000Y-199125000D03*
%TO.P,U13,8,NC*%
%TO.N,unconnected-(U13-Pad8)*%
X351375000Y-199775000D03*
%TO.P,U13,9,NC*%
%TO.N,unconnected-(U13-Pad9)*%
X351375000Y-200425000D03*
%TO.P,U13,10,NC*%
%TO.N,unconnected-(U13-Pad10)*%
X351375000Y-201075000D03*
%TO.P,U13,11,NC*%
%TO.N,unconnected-(U13-Pad11)*%
X351375000Y-201725000D03*
%TO.P,U13,12,NC*%
%TO.N,unconnected-(U13-Pad12)*%
X351375000Y-202375000D03*
%TO.P,U13,13,SO*%
%TO.N,unconnected-(U13-Pad13)*%
X351375000Y-203025000D03*
%TO.P,U13,14,DIAG*%
%TO.N,unconnected-(U13-Pad14)*%
X351375000Y-203675000D03*
%TO.P,U13,15,GNDCC*%
%TO.N,GND*%
X351375000Y-204325000D03*
%TO.P,U13,16,NC*%
%TO.N,unconnected-(U13-Pad16)*%
X351375000Y-204975000D03*
%TO.P,U13,17,NC*%
%TO.N,unconnected-(U13-Pad17)*%
X351375000Y-205625000D03*
%TO.P,U13,18,NC*%
%TO.N,unconnected-(U13-Pad18)*%
X351375000Y-206275000D03*
%TO.P,U13,19,GNDbb*%
%TO.N,Earth*%
X364625000Y-206275000D03*
%TO.P,U13,20,NC*%
%TO.N,unconnected-(U13-Pad20)*%
X364625000Y-205625000D03*
%TO.P,U13,21,OUT7*%
%TO.N,Net-(J15-Pad1)*%
X364625000Y-204975000D03*
%TO.P,U13,22,OUT7*%
X364625000Y-204325000D03*
%TO.P,U13,23,OUT6*%
%TO.N,Net-(J15-Pad3)*%
X364625000Y-203675000D03*
%TO.P,U13,24,OUT6*%
X364625000Y-203025000D03*
%TO.P,U13,25,OUT5*%
%TO.N,Net-(J15-Pad5)*%
X364625000Y-202375000D03*
%TO.P,U13,26,OUT5*%
X364625000Y-201725000D03*
%TO.P,U13,27,OUT4*%
%TO.N,Net-(J15-Pad7)*%
X364625000Y-201075000D03*
%TO.P,U13,28,OUT4*%
X364625000Y-200425000D03*
%TO.P,U13,29,OUT3*%
%TO.N,Net-(J15-Pad9)*%
X364625000Y-199775000D03*
%TO.P,U13,30,OUT3*%
X364625000Y-199125000D03*
%TO.P,U13,31,OUT2*%
%TO.N,Net-(J15-Pad11)*%
X364625000Y-198475000D03*
%TO.P,U13,32,OUT2*%
X364625000Y-197825000D03*
%TO.P,U13,33,OUT1*%
%TO.N,Net-(J15-Pad13)*%
X364625000Y-197175000D03*
%TO.P,U13,34,OUT1*%
X364625000Y-196525000D03*
%TO.P,U13,35,OUT0*%
%TO.N,Net-(J15-Pad15)*%
X364625000Y-195875000D03*
%TO.P,U13,36,OUT0*%
X364625000Y-195225000D03*
D12*
%TO.P,U13,37,VBB*%
%TO.N,+24V*%
X358000000Y-200750000D03*
%TD*%
D14*
%TO.P,C13,1*%
%TO.N,Earth*%
X358000000Y-179600000D03*
%TO.P,C13,2*%
%TO.N,+24V*%
X358000000Y-176475000D03*
%TD*%
D18*
%TO.P,C12,1*%
%TO.N,+24V*%
X334957953Y-336750000D03*
D19*
%TO.P,C12,2*%
%TO.N,Earth*%
X329957953Y-336750000D03*
%TD*%
D10*
%TO.P,J20,1,Pin_1*%
%TO.N,Net-(J20-Pad1)*%
X419000000Y-194725000D03*
%TO.P,J20,2,Pin_2*%
%TO.N,Earth*%
X430200000Y-192975000D03*
%TO.P,J20,3,Pin_3*%
%TO.N,Net-(J20-Pad3)*%
X419000000Y-191225000D03*
%TO.P,J20,4,Pin_4*%
%TO.N,Earth*%
X430200000Y-189475000D03*
%TO.P,J20,5,Pin_5*%
%TO.N,Net-(J20-Pad5)*%
X419000000Y-187725000D03*
%TO.P,J20,6,Pin_6*%
%TO.N,Earth*%
X430200000Y-185975000D03*
%TO.P,J20,7,Pin_7*%
%TO.N,Net-(J20-Pad7)*%
X419000000Y-184225000D03*
%TO.P,J20,8,Pin_8*%
%TO.N,Earth*%
X430200000Y-182475000D03*
%TO.P,J20,9,Pin_9*%
%TO.N,Net-(J20-Pad9)*%
X419000000Y-180725000D03*
%TO.P,J20,10,Pin_10*%
%TO.N,Earth*%
X430200000Y-178975000D03*
%TO.P,J20,11,Pin_11*%
%TO.N,Net-(J20-Pad11)*%
X419000000Y-177225000D03*
%TO.P,J20,12,Pin_12*%
%TO.N,Earth*%
X430200000Y-175475000D03*
%TO.P,J20,13,Pin_13*%
%TO.N,Net-(J20-Pad13)*%
X419000000Y-173725000D03*
%TO.P,J20,14,Pin_14*%
%TO.N,Earth*%
X430200000Y-171975000D03*
%TO.P,J20,15,Pin_15*%
%TO.N,Net-(J20-Pad15)*%
X419000000Y-170225000D03*
%TO.P,J20,16,Pin_16*%
%TO.N,Earth*%
X430200000Y-168475000D03*
%TD*%
D11*
%TO.P,U17,1,NC*%
%TO.N,unconnected-(U17-Pad1)*%
X351375000Y-331225000D03*
%TO.P,U17,2,VCC*%
%TO.N,Net-(MCU1-Pad27)*%
X351375000Y-331875000D03*
%TO.P,U17,3,DIS*%
%TO.N,Net-(MCU1-Pad2)*%
X351375000Y-332525000D03*
%TO.P,U17,4,CS*%
%TO.N,Net-(MCU1-Pad40)*%
X351375000Y-333175000D03*
%TO.P,U17,5,SCLK*%
%TO.N,Net-(R1-Pad2)*%
X351375000Y-333825000D03*
%TO.P,U17,6,SI*%
%TO.N,Net-(U1-Pad6)*%
X351375000Y-334475000D03*
%TO.P,U17,7,NC*%
%TO.N,unconnected-(U17-Pad7)*%
X351375000Y-335125000D03*
%TO.P,U17,8,NC*%
%TO.N,unconnected-(U17-Pad8)*%
X351375000Y-335775000D03*
%TO.P,U17,9,NC*%
%TO.N,unconnected-(U17-Pad9)*%
X351375000Y-336425000D03*
%TO.P,U17,10,NC*%
%TO.N,unconnected-(U17-Pad10)*%
X351375000Y-337075000D03*
%TO.P,U17,11,NC*%
%TO.N,unconnected-(U17-Pad11)*%
X351375000Y-337725000D03*
%TO.P,U17,12,NC*%
%TO.N,unconnected-(U17-Pad12)*%
X351375000Y-338375000D03*
%TO.P,U17,13,SO*%
%TO.N,unconnected-(U17-Pad13)*%
X351375000Y-339025000D03*
%TO.P,U17,14,DIAG*%
%TO.N,unconnected-(U17-Pad14)*%
X351375000Y-339675000D03*
%TO.P,U17,15,GNDCC*%
%TO.N,GND*%
X351375000Y-340325000D03*
%TO.P,U17,16,NC*%
%TO.N,unconnected-(U17-Pad16)*%
X351375000Y-340975000D03*
%TO.P,U17,17,NC*%
%TO.N,unconnected-(U17-Pad17)*%
X351375000Y-341625000D03*
%TO.P,U17,18,NC*%
%TO.N,unconnected-(U17-Pad18)*%
X351375000Y-342275000D03*
%TO.P,U17,19,GNDbb*%
%TO.N,Earth*%
X364625000Y-342275000D03*
%TO.P,U17,20,NC*%
%TO.N,unconnected-(U17-Pad20)*%
X364625000Y-341625000D03*
%TO.P,U17,21,OUT7*%
%TO.N,Net-(J19-Pad1)*%
X364625000Y-340975000D03*
%TO.P,U17,22,OUT7*%
X364625000Y-340325000D03*
%TO.P,U17,23,OUT6*%
%TO.N,Net-(J19-Pad3)*%
X364625000Y-339675000D03*
%TO.P,U17,24,OUT6*%
X364625000Y-339025000D03*
%TO.P,U17,25,OUT5*%
%TO.N,Net-(J19-Pad5)*%
X364625000Y-338375000D03*
%TO.P,U17,26,OUT5*%
X364625000Y-337725000D03*
%TO.P,U17,27,OUT4*%
%TO.N,Net-(J19-Pad7)*%
X364625000Y-337075000D03*
%TO.P,U17,28,OUT4*%
X364625000Y-336425000D03*
%TO.P,U17,29,OUT3*%
%TO.N,Net-(J19-Pad9)*%
X364625000Y-335775000D03*
%TO.P,U17,30,OUT3*%
X364625000Y-335125000D03*
%TO.P,U17,31,OUT2*%
%TO.N,Net-(J19-Pad11)*%
X364625000Y-334475000D03*
%TO.P,U17,32,OUT2*%
X364625000Y-333825000D03*
%TO.P,U17,33,OUT1*%
%TO.N,Net-(J19-Pad13)*%
X364625000Y-333175000D03*
%TO.P,U17,34,OUT1*%
X364625000Y-332525000D03*
%TO.P,U17,35,OUT0*%
%TO.N,Net-(J19-Pad15)*%
X364625000Y-331875000D03*
%TO.P,U17,36,OUT0*%
X364625000Y-331225000D03*
D12*
%TO.P,U17,37,VBB*%
%TO.N,+24V*%
X358000000Y-336750000D03*
%TD*%
D13*
%TO.P,C11,1*%
%TO.N,Earth*%
X307000000Y-321437500D03*
%TO.P,C11,2*%
%TO.N,+24V*%
X307000000Y-324562500D03*
%TD*%
D10*
%TO.P,J14,1,Pin_1*%
%TO.N,Net-(J14-Pad1)*%
X372000000Y-178725000D03*
%TO.P,J14,2,Pin_2*%
%TO.N,Earth*%
X383200000Y-176975000D03*
%TO.P,J14,3,Pin_3*%
%TO.N,Net-(J14-Pad3)*%
X372000000Y-175225000D03*
%TO.P,J14,4,Pin_4*%
%TO.N,Earth*%
X383200000Y-173475000D03*
%TO.P,J14,5,Pin_5*%
%TO.N,Net-(J14-Pad5)*%
X372000000Y-171725000D03*
%TO.P,J14,6,Pin_6*%
%TO.N,Earth*%
X383200000Y-169975000D03*
%TO.P,J14,7,Pin_7*%
%TO.N,Net-(J14-Pad7)*%
X372000000Y-168225000D03*
%TO.P,J14,8,Pin_8*%
%TO.N,Earth*%
X383200000Y-166475000D03*
%TO.P,J14,9,Pin_9*%
%TO.N,Net-(J14-Pad9)*%
X372000000Y-164725000D03*
%TO.P,J14,10,Pin_10*%
%TO.N,Earth*%
X383200000Y-162975000D03*
%TO.P,J14,11,Pin_11*%
%TO.N,Net-(J14-Pad11)*%
X372000000Y-161225000D03*
%TO.P,J14,12,Pin_12*%
%TO.N,Earth*%
X383200000Y-159475000D03*
%TO.P,J14,13,Pin_13*%
%TO.N,Net-(J14-Pad13)*%
X372000000Y-157725000D03*
%TO.P,J14,14,Pin_14*%
%TO.N,Earth*%
X383200000Y-155975000D03*
%TO.P,J14,15,Pin_15*%
%TO.N,Net-(J14-Pad15)*%
X372000000Y-154225000D03*
%TO.P,J14,16,Pin_16*%
%TO.N,Earth*%
X383200000Y-152475000D03*
%TD*%
D11*
%TO.P,U5,1,NC*%
%TO.N,unconnected-(U5-Pad1)*%
X266625000Y-324275000D03*
%TO.P,U5,2,VCC*%
%TO.N,Net-(MCU1-Pad15)*%
X266625000Y-323625000D03*
%TO.P,U5,3,DIS*%
%TO.N,Net-(MCU1-Pad2)*%
X266625000Y-322975000D03*
%TO.P,U5,4,CS*%
%TO.N,Net-(MCU1-Pad7)*%
X266625000Y-322325000D03*
%TO.P,U5,5,SCLK*%
%TO.N,Net-(R1-Pad2)*%
X266625000Y-321675000D03*
%TO.P,U5,6,SI*%
%TO.N,Net-(U1-Pad6)*%
X266625000Y-321025000D03*
%TO.P,U5,7,NC*%
%TO.N,unconnected-(U5-Pad7)*%
X266625000Y-320375000D03*
%TO.P,U5,8,NC*%
%TO.N,unconnected-(U5-Pad8)*%
X266625000Y-319725000D03*
%TO.P,U5,9,NC*%
%TO.N,unconnected-(U5-Pad9)*%
X266625000Y-319075000D03*
%TO.P,U5,10,NC*%
%TO.N,unconnected-(U5-Pad10)*%
X266625000Y-318425000D03*
%TO.P,U5,11,NC*%
%TO.N,unconnected-(U5-Pad11)*%
X266625000Y-317775000D03*
%TO.P,U5,12,NC*%
%TO.N,unconnected-(U5-Pad12)*%
X266625000Y-317125000D03*
%TO.P,U5,13,SO*%
%TO.N,unconnected-(U5-Pad13)*%
X266625000Y-316475000D03*
%TO.P,U5,14,DIAG*%
%TO.N,unconnected-(U5-Pad14)*%
X266625000Y-315825000D03*
%TO.P,U5,15,GNDCC*%
%TO.N,GND*%
X266625000Y-315175000D03*
%TO.P,U5,16,NC*%
%TO.N,unconnected-(U5-Pad16)*%
X266625000Y-314525000D03*
%TO.P,U5,17,NC*%
%TO.N,unconnected-(U5-Pad17)*%
X266625000Y-313875000D03*
%TO.P,U5,18,NC*%
%TO.N,unconnected-(U5-Pad18)*%
X266625000Y-313225000D03*
%TO.P,U5,19,GNDbb*%
%TO.N,Earth*%
X253375000Y-313225000D03*
%TO.P,U5,20,NC*%
%TO.N,unconnected-(U5-Pad20)*%
X253375000Y-313875000D03*
%TO.P,U5,21,OUT7*%
%TO.N,Net-(J5-Pad1)*%
X253375000Y-314525000D03*
%TO.P,U5,22,OUT7*%
X253375000Y-315175000D03*
%TO.P,U5,23,OUT6*%
%TO.N,Net-(J5-Pad3)*%
X253375000Y-315825000D03*
%TO.P,U5,24,OUT6*%
X253375000Y-316475000D03*
%TO.P,U5,25,OUT5*%
%TO.N,Net-(J5-Pad5)*%
X253375000Y-317125000D03*
%TO.P,U5,26,OUT5*%
X253375000Y-317775000D03*
%TO.P,U5,27,OUT4*%
%TO.N,Net-(J5-Pad7)*%
X253375000Y-318425000D03*
%TO.P,U5,28,OUT4*%
X253375000Y-319075000D03*
%TO.P,U5,29,OUT3*%
%TO.N,Net-(J5-Pad9)*%
X253375000Y-319725000D03*
%TO.P,U5,30,OUT3*%
X253375000Y-320375000D03*
%TO.P,U5,31,OUT2*%
%TO.N,Net-(J5-Pad11)*%
X253375000Y-321025000D03*
%TO.P,U5,32,OUT2*%
X253375000Y-321675000D03*
%TO.P,U5,33,OUT1*%
%TO.N,Net-(J5-Pad13)*%
X253375000Y-322325000D03*
%TO.P,U5,34,OUT1*%
X253375000Y-322975000D03*
%TO.P,U5,35,OUT0*%
%TO.N,Net-(J5-Pad15)*%
X253375000Y-323625000D03*
%TO.P,U5,36,OUT0*%
X253375000Y-324275000D03*
D12*
%TO.P,U5,37,VBB*%
%TO.N,+24V*%
X260000000Y-318750000D03*
%TD*%
D10*
%TO.P,J23,1,Pin_1*%
%TO.N,Net-(J23-Pad1)*%
X419000000Y-296725000D03*
%TO.P,J23,2,Pin_2*%
%TO.N,Earth*%
X430200000Y-294975000D03*
%TO.P,J23,3,Pin_3*%
%TO.N,Net-(J23-Pad3)*%
X419000000Y-293225000D03*
%TO.P,J23,4,Pin_4*%
%TO.N,Earth*%
X430200000Y-291475000D03*
%TO.P,J23,5,Pin_5*%
%TO.N,Net-(J23-Pad5)*%
X419000000Y-289725000D03*
%TO.P,J23,6,Pin_6*%
%TO.N,Earth*%
X430200000Y-287975000D03*
%TO.P,J23,7,Pin_7*%
%TO.N,Net-(J23-Pad7)*%
X419000000Y-286225000D03*
%TO.P,J23,8,Pin_8*%
%TO.N,Earth*%
X430200000Y-284475000D03*
%TO.P,J23,9,Pin_9*%
%TO.N,Net-(J23-Pad9)*%
X419000000Y-282725000D03*
%TO.P,J23,10,Pin_10*%
%TO.N,Earth*%
X430200000Y-280975000D03*
%TO.P,J23,11,Pin_11*%
%TO.N,Net-(J23-Pad11)*%
X419000000Y-279225000D03*
%TO.P,J23,12,Pin_12*%
%TO.N,Earth*%
X430200000Y-277475000D03*
%TO.P,J23,13,Pin_13*%
%TO.N,Net-(J23-Pad13)*%
X419000000Y-275725000D03*
%TO.P,J23,14,Pin_14*%
%TO.N,Earth*%
X430200000Y-273975000D03*
%TO.P,J23,15,Pin_15*%
%TO.N,Net-(J23-Pad15)*%
X419000000Y-272225000D03*
%TO.P,J23,16,Pin_16*%
%TO.N,Earth*%
X430200000Y-270475000D03*
%TD*%
D11*
%TO.P,U14,1,NC*%
%TO.N,unconnected-(U14-Pad1)*%
X351375000Y-229250000D03*
%TO.P,U14,2,VCC*%
%TO.N,Net-(MCU1-Pad27)*%
X351375000Y-229900000D03*
%TO.P,U14,3,DIS*%
%TO.N,Net-(MCU1-Pad2)*%
X351375000Y-230550000D03*
%TO.P,U14,4,CS*%
%TO.N,Net-(MCU1-Pad35)*%
X351375000Y-231200000D03*
%TO.P,U14,5,SCLK*%
%TO.N,Net-(R1-Pad2)*%
X351375000Y-231850000D03*
%TO.P,U14,6,SI*%
%TO.N,Net-(U1-Pad6)*%
X351375000Y-232500000D03*
%TO.P,U14,7,NC*%
%TO.N,unconnected-(U14-Pad7)*%
X351375000Y-233150000D03*
%TO.P,U14,8,NC*%
%TO.N,unconnected-(U14-Pad8)*%
X351375000Y-233800000D03*
%TO.P,U14,9,NC*%
%TO.N,unconnected-(U14-Pad9)*%
X351375000Y-234450000D03*
%TO.P,U14,10,NC*%
%TO.N,unconnected-(U14-Pad10)*%
X351375000Y-235100000D03*
%TO.P,U14,11,NC*%
%TO.N,unconnected-(U14-Pad11)*%
X351375000Y-235750000D03*
%TO.P,U14,12,NC*%
%TO.N,unconnected-(U14-Pad12)*%
X351375000Y-236400000D03*
%TO.P,U14,13,SO*%
%TO.N,unconnected-(U14-Pad13)*%
X351375000Y-237050000D03*
%TO.P,U14,14,DIAG*%
%TO.N,unconnected-(U14-Pad14)*%
X351375000Y-237700000D03*
%TO.P,U14,15,GNDCC*%
%TO.N,GND*%
X351375000Y-238350000D03*
%TO.P,U14,16,NC*%
%TO.N,unconnected-(U14-Pad16)*%
X351375000Y-239000000D03*
%TO.P,U14,17,NC*%
%TO.N,unconnected-(U14-Pad17)*%
X351375000Y-239650000D03*
%TO.P,U14,18,NC*%
%TO.N,unconnected-(U14-Pad18)*%
X351375000Y-240300000D03*
%TO.P,U14,19,GNDbb*%
%TO.N,Earth*%
X364625000Y-240300000D03*
%TO.P,U14,20,NC*%
%TO.N,unconnected-(U14-Pad20)*%
X364625000Y-239650000D03*
%TO.P,U14,21,OUT7*%
%TO.N,Net-(J16-Pad1)*%
X364625000Y-239000000D03*
%TO.P,U14,22,OUT7*%
X364625000Y-238350000D03*
%TO.P,U14,23,OUT6*%
%TO.N,Net-(J16-Pad3)*%
X364625000Y-237700000D03*
%TO.P,U14,24,OUT6*%
X364625000Y-237050000D03*
%TO.P,U14,25,OUT5*%
%TO.N,Net-(J16-Pad5)*%
X364625000Y-236400000D03*
%TO.P,U14,26,OUT5*%
X364625000Y-235750000D03*
%TO.P,U14,27,OUT4*%
%TO.N,Net-(J16-Pad7)*%
X364625000Y-235100000D03*
%TO.P,U14,28,OUT4*%
X364625000Y-234450000D03*
%TO.P,U14,29,OUT3*%
%TO.N,Net-(J16-Pad9)*%
X364625000Y-233800000D03*
%TO.P,U14,30,OUT3*%
X364625000Y-233150000D03*
%TO.P,U14,31,OUT2*%
%TO.N,Net-(J16-Pad11)*%
X364625000Y-232500000D03*
%TO.P,U14,32,OUT2*%
X364625000Y-231850000D03*
%TO.P,U14,33,OUT1*%
%TO.N,Net-(J16-Pad13)*%
X364625000Y-231200000D03*
%TO.P,U14,34,OUT1*%
X364625000Y-230550000D03*
%TO.P,U14,35,OUT0*%
%TO.N,Net-(J16-Pad15)*%
X364625000Y-229900000D03*
%TO.P,U14,36,OUT0*%
X364625000Y-229250000D03*
D12*
%TO.P,U14,37,VBB*%
%TO.N,+24V*%
X358000000Y-234775000D03*
%TD*%
D11*
%TO.P,U4,1,NC*%
%TO.N,unconnected-(U4-Pad1)*%
X266625000Y-290275000D03*
%TO.P,U4,2,VCC*%
%TO.N,Net-(MCU1-Pad15)*%
X266625000Y-289625000D03*
%TO.P,U4,3,DIS*%
%TO.N,Net-(MCU1-Pad2)*%
X266625000Y-288975000D03*
%TO.P,U4,4,CS*%
%TO.N,Net-(MCU1-Pad6)*%
X266625000Y-288325000D03*
%TO.P,U4,5,SCLK*%
%TO.N,Net-(R1-Pad2)*%
X266625000Y-287675000D03*
%TO.P,U4,6,SI*%
%TO.N,Net-(U1-Pad6)*%
X266625000Y-287025000D03*
%TO.P,U4,7,NC*%
%TO.N,unconnected-(U4-Pad7)*%
X266625000Y-286375000D03*
%TO.P,U4,8,NC*%
%TO.N,unconnected-(U4-Pad8)*%
X266625000Y-285725000D03*
%TO.P,U4,9,NC*%
%TO.N,unconnected-(U4-Pad9)*%
X266625000Y-285075000D03*
%TO.P,U4,10,NC*%
%TO.N,unconnected-(U4-Pad10)*%
X266625000Y-284425000D03*
%TO.P,U4,11,NC*%
%TO.N,unconnected-(U4-Pad11)*%
X266625000Y-283775000D03*
%TO.P,U4,12,NC*%
%TO.N,unconnected-(U4-Pad12)*%
X266625000Y-283125000D03*
%TO.P,U4,13,SO*%
%TO.N,unconnected-(U4-Pad13)*%
X266625000Y-282475000D03*
%TO.P,U4,14,DIAG*%
%TO.N,unconnected-(U4-Pad14)*%
X266625000Y-281825000D03*
%TO.P,U4,15,GNDCC*%
%TO.N,GND*%
X266625000Y-281175000D03*
%TO.P,U4,16,NC*%
%TO.N,unconnected-(U4-Pad16)*%
X266625000Y-280525000D03*
%TO.P,U4,17,NC*%
%TO.N,unconnected-(U4-Pad17)*%
X266625000Y-279875000D03*
%TO.P,U4,18,NC*%
%TO.N,unconnected-(U4-Pad18)*%
X266625000Y-279225000D03*
%TO.P,U4,19,GNDbb*%
%TO.N,Earth*%
X253375000Y-279225000D03*
%TO.P,U4,20,NC*%
%TO.N,unconnected-(U4-Pad20)*%
X253375000Y-279875000D03*
%TO.P,U4,21,OUT7*%
%TO.N,Net-(J4-Pad1)*%
X253375000Y-280525000D03*
%TO.P,U4,22,OUT7*%
X253375000Y-281175000D03*
%TO.P,U4,23,OUT6*%
%TO.N,Net-(J4-Pad3)*%
X253375000Y-281825000D03*
%TO.P,U4,24,OUT6*%
X253375000Y-282475000D03*
%TO.P,U4,25,OUT5*%
%TO.N,Net-(J4-Pad5)*%
X253375000Y-283125000D03*
%TO.P,U4,26,OUT5*%
X253375000Y-283775000D03*
%TO.P,U4,27,OUT4*%
%TO.N,Net-(J4-Pad7)*%
X253375000Y-284425000D03*
%TO.P,U4,28,OUT4*%
X253375000Y-285075000D03*
%TO.P,U4,29,OUT3*%
%TO.N,Net-(J4-Pad9)*%
X253375000Y-285725000D03*
%TO.P,U4,30,OUT3*%
X253375000Y-286375000D03*
%TO.P,U4,31,OUT2*%
%TO.N,Net-(J4-Pad11)*%
X253375000Y-287025000D03*
%TO.P,U4,32,OUT2*%
X253375000Y-287675000D03*
%TO.P,U4,33,OUT1*%
%TO.N,Net-(J4-Pad13)*%
X253375000Y-288325000D03*
%TO.P,U4,34,OUT1*%
X253375000Y-288975000D03*
%TO.P,U4,35,OUT0*%
%TO.N,Net-(J4-Pad15)*%
X253375000Y-289625000D03*
%TO.P,U4,36,OUT0*%
X253375000Y-290275000D03*
D12*
%TO.P,U4,37,VBB*%
%TO.N,+24V*%
X260000000Y-284750000D03*
%TD*%
D14*
%TO.P,C3,1*%
%TO.N,Earth*%
X260000000Y-264562500D03*
%TO.P,C3,2*%
%TO.N,+24V*%
X260000000Y-261437500D03*
%TD*%
%TO.P,C21,1*%
%TO.N,Earth*%
X405000000Y-264037500D03*
%TO.P,C21,2*%
%TO.N,+24V*%
X405000000Y-260912500D03*
%TD*%
%TO.P,C19,1*%
%TO.N,Earth*%
X405000000Y-196037500D03*
%TO.P,C19,2*%
%TO.N,+24V*%
X405000000Y-192912500D03*
%TD*%
D11*
%TO.P,U7,1,NC*%
%TO.N,unconnected-(U7-Pad1)*%
X313625000Y-204000000D03*
%TO.P,U7,2,VCC*%
%TO.N,Net-(MCU1-Pad15)*%
X313625000Y-203350000D03*
%TO.P,U7,3,DIS*%
%TO.N,Net-(MCU1-Pad2)*%
X313625000Y-202700000D03*
%TO.P,U7,4,CS*%
%TO.N,Net-(MCU1-Pad9)*%
X313625000Y-202050000D03*
%TO.P,U7,5,SCLK*%
%TO.N,Net-(R1-Pad2)*%
X313625000Y-201400000D03*
%TO.P,U7,6,SI*%
%TO.N,Net-(U1-Pad6)*%
X313625000Y-200750000D03*
%TO.P,U7,7,NC*%
%TO.N,unconnected-(U7-Pad7)*%
X313625000Y-200100000D03*
%TO.P,U7,8,NC*%
%TO.N,unconnected-(U7-Pad8)*%
X313625000Y-199450000D03*
%TO.P,U7,9,NC*%
%TO.N,unconnected-(U7-Pad9)*%
X313625000Y-198800000D03*
%TO.P,U7,10,NC*%
%TO.N,unconnected-(U7-Pad10)*%
X313625000Y-198150000D03*
%TO.P,U7,11,NC*%
%TO.N,unconnected-(U7-Pad11)*%
X313625000Y-197500000D03*
%TO.P,U7,12,NC*%
%TO.N,unconnected-(U7-Pad12)*%
X313625000Y-196850000D03*
%TO.P,U7,13,SO*%
%TO.N,unconnected-(U7-Pad13)*%
X313625000Y-196200000D03*
%TO.P,U7,14,DIAG*%
%TO.N,unconnected-(U7-Pad14)*%
X313625000Y-195550000D03*
%TO.P,U7,15,GNDCC*%
%TO.N,GND*%
X313625000Y-194900000D03*
%TO.P,U7,16,NC*%
%TO.N,unconnected-(U7-Pad16)*%
X313625000Y-194250000D03*
%TO.P,U7,17,NC*%
%TO.N,unconnected-(U7-Pad17)*%
X313625000Y-193600000D03*
%TO.P,U7,18,NC*%
%TO.N,unconnected-(U7-Pad18)*%
X313625000Y-192950000D03*
%TO.P,U7,19,GNDbb*%
%TO.N,Earth*%
X300375000Y-192950000D03*
%TO.P,U7,20,NC*%
%TO.N,unconnected-(U7-Pad20)*%
X300375000Y-193600000D03*
%TO.P,U7,21,OUT7*%
%TO.N,Net-(J7-Pad1)*%
X300375000Y-194250000D03*
%TO.P,U7,22,OUT7*%
X300375000Y-194900000D03*
%TO.P,U7,23,OUT6*%
%TO.N,Net-(J7-Pad3)*%
X300375000Y-195550000D03*
%TO.P,U7,24,OUT6*%
X300375000Y-196200000D03*
%TO.P,U7,25,OUT5*%
%TO.N,Net-(J7-Pad5)*%
X300375000Y-196850000D03*
%TO.P,U7,26,OUT5*%
X300375000Y-197500000D03*
%TO.P,U7,27,OUT4*%
%TO.N,Net-(J7-Pad7)*%
X300375000Y-198150000D03*
%TO.P,U7,28,OUT4*%
X300375000Y-198800000D03*
%TO.P,U7,29,OUT3*%
%TO.N,Net-(J7-Pad9)*%
X300375000Y-199450000D03*
%TO.P,U7,30,OUT3*%
X300375000Y-200100000D03*
%TO.P,U7,31,OUT2*%
%TO.N,Net-(J7-Pad11)*%
X300375000Y-200750000D03*
%TO.P,U7,32,OUT2*%
X300375000Y-201400000D03*
%TO.P,U7,33,OUT1*%
%TO.N,Net-(J7-Pad13)*%
X300375000Y-202050000D03*
%TO.P,U7,34,OUT1*%
X300375000Y-202700000D03*
%TO.P,U7,35,OUT0*%
%TO.N,Net-(J7-Pad15)*%
X300375000Y-203350000D03*
%TO.P,U7,36,OUT0*%
X300375000Y-204000000D03*
D12*
%TO.P,U7,37,VBB*%
%TO.N,+24V*%
X307000000Y-198475000D03*
%TD*%
D13*
%TO.P,C23,1*%
%TO.N,Earth*%
X405000000Y-305437500D03*
%TO.P,C23,2*%
%TO.N,+24V*%
X405000000Y-308562500D03*
%TD*%
D11*
%TO.P,U16,1,NC*%
%TO.N,unconnected-(U16-Pad1)*%
X351375000Y-297225000D03*
%TO.P,U16,2,VCC*%
%TO.N,Net-(MCU1-Pad27)*%
X351375000Y-297875000D03*
%TO.P,U16,3,DIS*%
%TO.N,Net-(MCU1-Pad2)*%
X351375000Y-298525000D03*
%TO.P,U16,4,CS*%
%TO.N,Net-(MCU1-Pad37)*%
X351375000Y-299175000D03*
%TO.P,U16,5,SCLK*%
%TO.N,Net-(R1-Pad2)*%
X351375000Y-299825000D03*
%TO.P,U16,6,SI*%
%TO.N,Net-(U1-Pad6)*%
X351375000Y-300475000D03*
%TO.P,U16,7,NC*%
%TO.N,unconnected-(U16-Pad7)*%
X351375000Y-301125000D03*
%TO.P,U16,8,NC*%
%TO.N,unconnected-(U16-Pad8)*%
X351375000Y-301775000D03*
%TO.P,U16,9,NC*%
%TO.N,unconnected-(U16-Pad9)*%
X351375000Y-302425000D03*
%TO.P,U16,10,NC*%
%TO.N,unconnected-(U16-Pad10)*%
X351375000Y-303075000D03*
%TO.P,U16,11,NC*%
%TO.N,unconnected-(U16-Pad11)*%
X351375000Y-303725000D03*
%TO.P,U16,12,NC*%
%TO.N,unconnected-(U16-Pad12)*%
X351375000Y-304375000D03*
%TO.P,U16,13,SO*%
%TO.N,unconnected-(U16-Pad13)*%
X351375000Y-305025000D03*
%TO.P,U16,14,DIAG*%
%TO.N,unconnected-(U16-Pad14)*%
X351375000Y-305675000D03*
%TO.P,U16,15,GNDCC*%
%TO.N,GND*%
X351375000Y-306325000D03*
%TO.P,U16,16,NC*%
%TO.N,unconnected-(U16-Pad16)*%
X351375000Y-306975000D03*
%TO.P,U16,17,NC*%
%TO.N,unconnected-(U16-Pad17)*%
X351375000Y-307625000D03*
%TO.P,U16,18,NC*%
%TO.N,unconnected-(U16-Pad18)*%
X351375000Y-308275000D03*
%TO.P,U16,19,GNDbb*%
%TO.N,Earth*%
X364625000Y-308275000D03*
%TO.P,U16,20,NC*%
%TO.N,unconnected-(U16-Pad20)*%
X364625000Y-307625000D03*
%TO.P,U16,21,OUT7*%
%TO.N,Net-(J18-Pad1)*%
X364625000Y-306975000D03*
%TO.P,U16,22,OUT7*%
X364625000Y-306325000D03*
%TO.P,U16,23,OUT6*%
%TO.N,Net-(J18-Pad3)*%
X364625000Y-305675000D03*
%TO.P,U16,24,OUT6*%
X364625000Y-305025000D03*
%TO.P,U16,25,OUT5*%
%TO.N,Net-(J18-Pad5)*%
X364625000Y-304375000D03*
%TO.P,U16,26,OUT5*%
X364625000Y-303725000D03*
%TO.P,U16,27,OUT4*%
%TO.N,Net-(J18-Pad7)*%
X364625000Y-303075000D03*
%TO.P,U16,28,OUT4*%
X364625000Y-302425000D03*
%TO.P,U16,29,OUT3*%
%TO.N,Net-(J18-Pad9)*%
X364625000Y-301775000D03*
%TO.P,U16,30,OUT3*%
X364625000Y-301125000D03*
%TO.P,U16,31,OUT2*%
%TO.N,Net-(J18-Pad11)*%
X364625000Y-300475000D03*
%TO.P,U16,32,OUT2*%
X364625000Y-299825000D03*
%TO.P,U16,33,OUT1*%
%TO.N,Net-(J18-Pad13)*%
X364625000Y-299175000D03*
%TO.P,U16,34,OUT1*%
X364625000Y-298525000D03*
%TO.P,U16,35,OUT0*%
%TO.N,Net-(J18-Pad15)*%
X364625000Y-297875000D03*
%TO.P,U16,36,OUT0*%
X364625000Y-297225000D03*
D12*
%TO.P,U16,37,VBB*%
%TO.N,+24V*%
X358000000Y-302750000D03*
%TD*%
D13*
%TO.P,C9,1*%
%TO.N,Earth*%
X307000000Y-253437500D03*
%TO.P,C9,2*%
%TO.N,+24V*%
X307000000Y-256562500D03*
%TD*%
D11*
%TO.P,U1,1,NC*%
%TO.N,unconnected-(U1-Pad1)*%
X266625000Y-188275000D03*
%TO.P,U1,2,VCC*%
%TO.N,Net-(MCU1-Pad15)*%
X266625000Y-187625000D03*
%TO.P,U1,3,DIS*%
%TO.N,Net-(MCU1-Pad2)*%
X266625000Y-186975000D03*
%TO.P,U1,4,CS*%
%TO.N,Net-(MCU1-Pad3)*%
X266625000Y-186325000D03*
%TO.P,U1,5,SCLK*%
%TO.N,Net-(R1-Pad2)*%
X266625000Y-185675000D03*
%TO.P,U1,6,SI*%
%TO.N,Net-(U1-Pad6)*%
X266625000Y-185025000D03*
%TO.P,U1,7,NC*%
%TO.N,unconnected-(U1-Pad7)*%
X266625000Y-184375000D03*
%TO.P,U1,8,NC*%
%TO.N,unconnected-(U1-Pad8)*%
X266625000Y-183725000D03*
%TO.P,U1,9,NC*%
%TO.N,unconnected-(U1-Pad9)*%
X266625000Y-183075000D03*
%TO.P,U1,10,NC*%
%TO.N,unconnected-(U1-Pad10)*%
X266625000Y-182425000D03*
%TO.P,U1,11,NC*%
%TO.N,unconnected-(U1-Pad11)*%
X266625000Y-181775000D03*
%TO.P,U1,12,NC*%
%TO.N,unconnected-(U1-Pad12)*%
X266625000Y-181125000D03*
%TO.P,U1,13,SO*%
%TO.N,unconnected-(U1-Pad13)*%
X266625000Y-180475000D03*
%TO.P,U1,14,DIAG*%
%TO.N,unconnected-(U1-Pad14)*%
X266625000Y-179825000D03*
%TO.P,U1,15,GNDCC*%
%TO.N,GND*%
X266625000Y-179175000D03*
%TO.P,U1,16,NC*%
%TO.N,unconnected-(U1-Pad16)*%
X266625000Y-178525000D03*
%TO.P,U1,17,NC*%
%TO.N,unconnected-(U1-Pad17)*%
X266625000Y-177875000D03*
%TO.P,U1,18,NC*%
%TO.N,unconnected-(U1-Pad18)*%
X266625000Y-177225000D03*
%TO.P,U1,19,GNDbb*%
%TO.N,Earth*%
X253375000Y-177225000D03*
%TO.P,U1,20,NC*%
%TO.N,unconnected-(U1-Pad20)*%
X253375000Y-177875000D03*
%TO.P,U1,21,OUT7*%
%TO.N,Net-(J1-Pad1)*%
X253375000Y-178525000D03*
%TO.P,U1,22,OUT7*%
X253375000Y-179175000D03*
%TO.P,U1,23,OUT6*%
%TO.N,Net-(J1-Pad3)*%
X253375000Y-179825000D03*
%TO.P,U1,24,OUT6*%
X253375000Y-180475000D03*
%TO.P,U1,25,OUT5*%
%TO.N,Net-(J1-Pad5)*%
X253375000Y-181125000D03*
%TO.P,U1,26,OUT5*%
X253375000Y-181775000D03*
%TO.P,U1,27,OUT4*%
%TO.N,Net-(J1-Pad7)*%
X253375000Y-182425000D03*
%TO.P,U1,28,OUT4*%
X253375000Y-183075000D03*
%TO.P,U1,29,OUT3*%
%TO.N,Net-(J1-Pad9)*%
X253375000Y-183725000D03*
%TO.P,U1,30,OUT3*%
X253375000Y-184375000D03*
%TO.P,U1,31,OUT2*%
%TO.N,Net-(J1-Pad11)*%
X253375000Y-185025000D03*
%TO.P,U1,32,OUT2*%
X253375000Y-185675000D03*
%TO.P,U1,33,OUT1*%
%TO.N,Net-(J1-Pad13)*%
X253375000Y-186325000D03*
%TO.P,U1,34,OUT1*%
X253375000Y-186975000D03*
%TO.P,U1,35,OUT0*%
%TO.N,Net-(J1-Pad15)*%
X253375000Y-187625000D03*
%TO.P,U1,36,OUT0*%
X253375000Y-188275000D03*
D12*
%TO.P,U1,37,VBB*%
%TO.N,+24V*%
X260000000Y-182750000D03*
%TD*%
D14*
%TO.P,C6,1*%
%TO.N,Earth*%
X307000000Y-178562500D03*
%TO.P,C6,2*%
%TO.N,+24V*%
X307000000Y-175437500D03*
%TD*%
D20*
%TO.N,Earth*%
X358000000Y-252000000D03*
X260000000Y-200000000D03*
X307000000Y-151000000D03*
X405000000Y-301500000D03*
X405000000Y-231000000D03*
X307000000Y-182000000D03*
X307000000Y-250000000D03*
X307000000Y-318000000D03*
X307000000Y-218500000D03*
X405000000Y-268000000D03*
X358000000Y-215000000D03*
X260000000Y-169000000D03*
X358000000Y-184000000D03*
X405000000Y-200000000D03*
X307000000Y-286500000D03*
X358000000Y-282500000D03*
X358000000Y-350500000D03*
X260000000Y-302000000D03*
X358000000Y-320000000D03*
X260000000Y-236500000D03*
X260000000Y-268000000D03*
X405000000Y-332500000D03*
D21*
%TO.N,+24V*%
X307000000Y-195000000D03*
X405000000Y-213000000D03*
X358000000Y-306000000D03*
X307000000Y-229000000D03*
X260000000Y-213000000D03*
X358000000Y-204000000D03*
X260000000Y-247000000D03*
X307000000Y-236000000D03*
X307000000Y-304000000D03*
X405000000Y-179000000D03*
X358000000Y-238000000D03*
X405000000Y-186000000D03*
X307000000Y-297000000D03*
X260000000Y-281000000D03*
X358000000Y-272000000D03*
X405000000Y-315000000D03*
X358000000Y-333000000D03*
X405000000Y-254000000D03*
X307000000Y-202000000D03*
X307000000Y-161000000D03*
X307000000Y-270000000D03*
X358000000Y-163000000D03*
X358000000Y-197000000D03*
X260000000Y-220000000D03*
X260000000Y-179000000D03*
X405000000Y-247000000D03*
X260000000Y-322000000D03*
X260000000Y-315000000D03*
X260000000Y-288000000D03*
X405000000Y-220000000D03*
X358000000Y-231000000D03*
X405000000Y-281000000D03*
X358000000Y-299000000D03*
X260000000Y-186000000D03*
X405000000Y-288000000D03*
X307000000Y-263000000D03*
X358000000Y-265000000D03*
X307000000Y-331000000D03*
X405000000Y-322000000D03*
X358000000Y-340000000D03*
X358000000Y-170000000D03*
X260000000Y-254000000D03*
X307000000Y-338000000D03*
X307000000Y-168000000D03*
D22*
%TO.N,GND*%
X400500000Y-287250000D03*
X264750000Y-280250000D03*
X353500000Y-339000000D03*
X311750000Y-160500000D03*
X353500000Y-271250000D03*
X264750000Y-212250000D03*
X264750000Y-178250000D03*
X353500000Y-169250000D03*
X314075000Y-145780500D03*
X311750000Y-262250000D03*
X353500000Y-203250000D03*
X400500000Y-321000000D03*
X353500000Y-237250000D03*
X311750000Y-228250000D03*
X400500000Y-253250000D03*
X311750000Y-194000000D03*
X400500000Y-185250000D03*
X400500000Y-219250000D03*
X264750000Y-314250000D03*
X311750000Y-330250000D03*
X264750000Y-246250000D03*
X272000000Y-149500000D03*
X311750000Y-296250000D03*
X353500000Y-305250000D03*
%TO.N,Net-(MCU1-Pad2)*%
X273262299Y-216537299D03*
X322500000Y-264775000D03*
X275750000Y-180025000D03*
X392250000Y-172750000D03*
X319262299Y-199762299D03*
X342750000Y-158750000D03*
X346224500Y-191250000D03*
X322500000Y-298500000D03*
X320012299Y-267287299D03*
X320500000Y-300500000D03*
X391250000Y-239250000D03*
X275750000Y-282275000D03*
X390750000Y-272500000D03*
X275750000Y-214025000D03*
X322500000Y-196500000D03*
X273762299Y-250037299D03*
X391750000Y-205750000D03*
X344250000Y-326250000D03*
X345250000Y-258250000D03*
X274262299Y-283787299D03*
X322500000Y-155750000D03*
X356750000Y-149250000D03*
X322500000Y-162750000D03*
X344750000Y-291750000D03*
X345750000Y-224750000D03*
X390250000Y-306250000D03*
X272512299Y-183287299D03*
X275750000Y-248025000D03*
X322500000Y-230500000D03*
X319762299Y-233262299D03*
%TO.N,Net-(MCU1-Pad27)*%
X349000000Y-143750000D03*
X349000000Y-161025000D03*
X349080497Y-194919503D03*
X349012299Y-296487701D03*
X349000000Y-330500000D03*
X395250000Y-312025000D03*
X395250000Y-175525000D03*
X395250000Y-209525000D03*
X395250000Y-277775000D03*
X349080497Y-228694503D03*
X349012299Y-262512701D03*
X395250000Y-243525000D03*
%TO.N,Net-(MCU1-Pad15)*%
X269774598Y-289299598D03*
X269750000Y-181525000D03*
X318125000Y-143375000D03*
X317024598Y-237024598D03*
X317024598Y-203024598D03*
X269750000Y-255275000D03*
X269774598Y-187049598D03*
X269774598Y-221250402D03*
X317012299Y-305012299D03*
X317024598Y-271299598D03*
X317012299Y-169262299D03*
X269762299Y-323037299D03*
X317132330Y-339142269D03*
%TO.N,Net-(R1-Pad2)*%
X389250000Y-144750000D03*
X348000000Y-299250000D03*
X268762299Y-252787299D03*
X316000000Y-200750000D03*
X348000000Y-163275000D03*
X348000000Y-197250000D03*
X316000000Y-269025000D03*
D23*
X317125000Y-142375000D03*
D22*
X315987701Y-302737701D03*
X394250000Y-179250000D03*
X348000000Y-231250000D03*
X394250000Y-213250000D03*
X394250000Y-281250000D03*
X268750000Y-180500000D03*
X348000000Y-333250000D03*
X394250000Y-247250000D03*
X316000000Y-167000000D03*
X348000000Y-265250000D03*
X394250000Y-315250000D03*
X268762299Y-320787299D03*
X316000000Y-336750000D03*
X268737701Y-185012701D03*
X268762299Y-218787299D03*
X348000000Y-144750000D03*
X268750000Y-286775000D03*
X316000000Y-234750000D03*
%TO.N,Net-(U1-Pad6)*%
X317750000Y-197500000D03*
X393250000Y-247775000D03*
X317750000Y-333500000D03*
X393250000Y-315775000D03*
X317750000Y-299750000D03*
X347000000Y-145750000D03*
X347000000Y-231775000D03*
X270750000Y-283525000D03*
X270750000Y-215775000D03*
X317900000Y-144850000D03*
X393250000Y-213775000D03*
X270750000Y-249775000D03*
X347000000Y-299750000D03*
X270750000Y-317775000D03*
X347000000Y-164025000D03*
X393250000Y-281775000D03*
X317750000Y-231750000D03*
X270750000Y-181700000D03*
X317750000Y-164000000D03*
X388750000Y-145750000D03*
X393250000Y-179775000D03*
X347000000Y-333750000D03*
X317750000Y-266025000D03*
X347000000Y-197750000D03*
X331125000Y-165625000D03*
X327750000Y-169000000D03*
X347000000Y-265775000D03*
%TD*%
D24*
%TO.N,Earth*%
X300375000Y-227200000D02*
X300375000Y-225125000D01*
X411625000Y-261375000D02*
X405000000Y-268000000D01*
X253375000Y-245225000D02*
X253375000Y-243125000D01*
D25*
X307000000Y-250000000D02*
X307000000Y-253437500D01*
X260000000Y-271437500D02*
X260000000Y-268000000D01*
D24*
X411625000Y-222300000D02*
X411625000Y-224375000D01*
D25*
X358000000Y-184000000D02*
X358000000Y-179600000D01*
D24*
X411625000Y-290300000D02*
X411625000Y-294875000D01*
X300375000Y-188625000D02*
X307000000Y-182000000D01*
X300375000Y-159450000D02*
X300375000Y-157625000D01*
D25*
X405000000Y-203437500D02*
X405000000Y-200000000D01*
D24*
X411625000Y-294875000D02*
X405000000Y-301500000D01*
X364625000Y-313375000D02*
X358000000Y-320000000D01*
X364625000Y-342275000D02*
X364625000Y-343875000D01*
X364625000Y-240300000D02*
X364625000Y-245375000D01*
D25*
X405000000Y-305437500D02*
X405000000Y-301500000D01*
D24*
X364625000Y-206275000D02*
X364625000Y-208375000D01*
X300375000Y-225125000D02*
X307000000Y-218500000D01*
X411625000Y-324300000D02*
X411625000Y-325875000D01*
X300375000Y-324625000D02*
X307000000Y-318000000D01*
X364625000Y-172300000D02*
X364625000Y-177375000D01*
X364625000Y-274300000D02*
X364625000Y-275875000D01*
X253375000Y-175625000D02*
X260000000Y-169000000D01*
X300375000Y-329200000D02*
X300375000Y-324625000D01*
X411625000Y-193375000D02*
X405000000Y-200000000D01*
X300375000Y-157625000D02*
X307000000Y-151000000D01*
X253375000Y-211225000D02*
X253375000Y-206625000D01*
D25*
X307000000Y-185437500D02*
X307000000Y-182000000D01*
X260000000Y-268000000D02*
X260000000Y-264562500D01*
X358000000Y-252000000D02*
X358000000Y-248037500D01*
X358000000Y-255437500D02*
X358000000Y-252000000D01*
X405000000Y-271437500D02*
X405000000Y-268000000D01*
D24*
X364625000Y-275875000D02*
X358000000Y-282500000D01*
X411625000Y-188300000D02*
X411625000Y-193375000D01*
X253375000Y-308625000D02*
X260000000Y-302000000D01*
D25*
X358000000Y-187937500D02*
X358000000Y-184000000D01*
D24*
X253375000Y-274625000D02*
X260000000Y-268000000D01*
D25*
X307000000Y-246562500D02*
X307000000Y-250000000D01*
X307000000Y-178562500D02*
X307000000Y-182000000D01*
D24*
X300375000Y-261225000D02*
X300375000Y-256625000D01*
D25*
X260000000Y-305437500D02*
X260000000Y-302000000D01*
D24*
X300375000Y-295200000D02*
X300375000Y-293125000D01*
X300375000Y-293125000D02*
X307000000Y-286500000D01*
X253375000Y-313225000D02*
X253375000Y-308625000D01*
X364625000Y-343875000D02*
X358000000Y-350500000D01*
X364625000Y-208375000D02*
X358000000Y-215000000D01*
X253375000Y-206625000D02*
X260000000Y-200000000D01*
D25*
X358000000Y-323437500D02*
X358000000Y-320000000D01*
D24*
X300375000Y-192950000D02*
X300375000Y-188625000D01*
D25*
X307000000Y-314562500D02*
X307000000Y-318000000D01*
X260000000Y-203437500D02*
X260000000Y-200000000D01*
X307000000Y-321437500D02*
X307000000Y-318000000D01*
D24*
X300375000Y-256625000D02*
X307000000Y-250000000D01*
X364625000Y-308275000D02*
X364625000Y-313375000D01*
D25*
X405000000Y-196037500D02*
X405000000Y-200000000D01*
D24*
X411625000Y-256300000D02*
X411625000Y-261375000D01*
D26*
X330750000Y-347250000D02*
X330750000Y-337542047D01*
D24*
X253375000Y-243125000D02*
X260000000Y-236500000D01*
X253375000Y-177225000D02*
X253375000Y-175625000D01*
D25*
X405000000Y-264037500D02*
X405000000Y-268000000D01*
X260000000Y-196652500D02*
X259910000Y-196562500D01*
X358000000Y-316037500D02*
X358000000Y-320000000D01*
D24*
X411625000Y-325875000D02*
X405000000Y-332500000D01*
X364625000Y-245375000D02*
X358000000Y-252000000D01*
D25*
X260000000Y-200000000D02*
X260000000Y-196652500D01*
D26*
X330750000Y-337542047D02*
X329957953Y-336750000D01*
D24*
X253375000Y-279225000D02*
X253375000Y-274625000D01*
X364625000Y-177375000D02*
X358000000Y-184000000D01*
X411625000Y-224375000D02*
X405000000Y-231000000D01*
D25*
%TO.N,+24V*%
X405000000Y-281000000D02*
X405000000Y-274562500D01*
X260000000Y-281000000D02*
X260000000Y-274562500D01*
X307000000Y-188562500D02*
X307000000Y-195000000D01*
X405000000Y-254000000D02*
X405000000Y-260912500D01*
X358000000Y-197000000D02*
X358000000Y-191062500D01*
X260000000Y-261437500D02*
X260000000Y-254000000D01*
D26*
X334250000Y-337457953D02*
X334957953Y-336750000D01*
D25*
X358000000Y-258562500D02*
X358000000Y-265000000D01*
X307000000Y-304000000D02*
X307000000Y-311437500D01*
X307000000Y-175437500D02*
X307000000Y-168000000D01*
D26*
X334250000Y-347250000D02*
X334250000Y-337457953D01*
D25*
X307000000Y-324562500D02*
X307000000Y-331000000D01*
X405000000Y-206562500D02*
X405000000Y-213000000D01*
X358000000Y-244912500D02*
X358000000Y-238000000D01*
X259910000Y-186090000D02*
X260000000Y-186000000D01*
X260000000Y-308562500D02*
X260000000Y-315000000D01*
X260000000Y-206562500D02*
X260000000Y-213000000D01*
X307000000Y-243437500D02*
X307000000Y-236000000D01*
X405000000Y-186000000D02*
X405000000Y-192912500D01*
X259910000Y-193437500D02*
X259910000Y-186090000D01*
X307000000Y-256562500D02*
X307000000Y-263000000D01*
X405000000Y-308562500D02*
X405000000Y-315000000D01*
X358000000Y-312912500D02*
X358000000Y-306000000D01*
X358000000Y-326562500D02*
X358000000Y-333000000D01*
X358000000Y-176475000D02*
X358000000Y-170000000D01*
D27*
%TO.N,Net-(J1-Pad1)*%
X248500000Y-173250000D02*
X246000000Y-170750000D01*
X253375000Y-178525000D02*
X252475000Y-178525000D01*
X252475000Y-178525000D02*
X248500000Y-174550000D01*
X253375000Y-179175000D02*
X253375000Y-178525000D01*
X248500000Y-174550000D02*
X248500000Y-173250000D01*
%TO.N,Net-(J1-Pad3)*%
X252225000Y-180475000D02*
X253375000Y-180475000D01*
X253375000Y-179825000D02*
X253375000Y-180475000D01*
X246000000Y-174250000D02*
X252225000Y-180475000D01*
%TO.N,Net-(J1-Pad5)*%
X253375000Y-181125000D02*
X253375000Y-181775000D01*
X246000000Y-177750000D02*
X250025000Y-181775000D01*
X250025000Y-181775000D02*
X253375000Y-181775000D01*
%TO.N,Net-(J1-Pad7)*%
X253375000Y-182425000D02*
X253375000Y-183075000D01*
X247825000Y-183075000D02*
X253375000Y-183075000D01*
X246000000Y-181250000D02*
X247825000Y-183075000D01*
%TO.N,Net-(J1-Pad9)*%
X246000000Y-184750000D02*
X246375000Y-184375000D01*
X246375000Y-184375000D02*
X253375000Y-184375000D01*
X253375000Y-183725000D02*
X253375000Y-184375000D01*
%TO.N,Net-(J1-Pad11)*%
X246000000Y-188250000D02*
X248575000Y-185675000D01*
X248575000Y-185675000D02*
X253375000Y-185675000D01*
X253375000Y-185025000D02*
X253375000Y-185675000D01*
%TO.N,Net-(J1-Pad13)*%
X250775000Y-186975000D02*
X253375000Y-186975000D01*
X246000000Y-191750000D02*
X250775000Y-186975000D01*
X253375000Y-186325000D02*
X253375000Y-186975000D01*
%TO.N,Net-(J1-Pad15)*%
X252975000Y-188275000D02*
X253375000Y-188275000D01*
X246000000Y-195250000D02*
X252975000Y-188275000D01*
X253375000Y-187625000D02*
X253375000Y-188275000D01*
%TO.N,Net-(J2-Pad1)*%
X252475000Y-212525000D02*
X248750000Y-208800000D01*
X253375000Y-212525000D02*
X252475000Y-212525000D01*
X253375000Y-213175000D02*
X253375000Y-212525000D01*
X248750000Y-207500000D02*
X246000000Y-204750000D01*
X248750000Y-208800000D02*
X248750000Y-207500000D01*
%TO.N,Net-(J2-Pad3)*%
X253375000Y-213825000D02*
X253375000Y-214475000D01*
X252225000Y-214475000D02*
X253375000Y-214475000D01*
X246000000Y-208250000D02*
X252225000Y-214475000D01*
%TO.N,Net-(J2-Pad5)*%
X246000000Y-211750000D02*
X250025000Y-215775000D01*
X250025000Y-215775000D02*
X253375000Y-215775000D01*
X253375000Y-215125000D02*
X253375000Y-215775000D01*
%TO.N,Net-(J2-Pad7)*%
X253375000Y-216425000D02*
X253375000Y-217075000D01*
X247825000Y-217075000D02*
X253375000Y-217075000D01*
X246000000Y-215250000D02*
X247825000Y-217075000D01*
%TO.N,Net-(J2-Pad9)*%
X253375000Y-217725000D02*
X253375000Y-218375000D01*
X246000000Y-218750000D02*
X246325000Y-218425000D01*
X246325000Y-218425000D02*
X253500000Y-218425000D01*
%TO.N,Net-(J2-Pad11)*%
X253375000Y-219025000D02*
X253375000Y-219675000D01*
X248575000Y-219675000D02*
X253375000Y-219675000D01*
X246000000Y-222250000D02*
X248575000Y-219675000D01*
%TO.N,Net-(J2-Pad13)*%
X246000000Y-225750000D02*
X250775000Y-220975000D01*
X250775000Y-220975000D02*
X253375000Y-220975000D01*
X253375000Y-220325000D02*
X253375000Y-220975000D01*
%TO.N,Net-(J2-Pad15)*%
X252975000Y-222275000D02*
X253375000Y-222275000D01*
X246000000Y-229250000D02*
X252975000Y-222275000D01*
X253375000Y-221625000D02*
X253375000Y-222275000D01*
%TO.N,Net-(J3-Pad3)*%
X252225000Y-248475000D02*
X253375000Y-248475000D01*
X253375000Y-247825000D02*
X253375000Y-248475000D01*
X246000000Y-242250000D02*
X252225000Y-248475000D01*
%TO.N,Net-(J3-Pad7)*%
X246000000Y-249250000D02*
X247825000Y-251075000D01*
X247825000Y-251075000D02*
X253375000Y-251075000D01*
X253375000Y-250425000D02*
X253375000Y-251075000D01*
%TO.N,Net-(J3-Pad9)*%
X253375000Y-251725000D02*
X253375000Y-252375000D01*
X246000000Y-252750000D02*
X246375000Y-252375000D01*
X246375000Y-252375000D02*
X253375000Y-252375000D01*
%TO.N,Net-(J3-Pad11)*%
X248575000Y-253675000D02*
X253375000Y-253675000D01*
X253375000Y-253025000D02*
X253375000Y-253675000D01*
X246000000Y-256250000D02*
X248575000Y-253675000D01*
%TO.N,Net-(J3-Pad13)*%
X253375000Y-254325000D02*
X253375000Y-254975000D01*
X250775000Y-254975000D02*
X253375000Y-254975000D01*
X246000000Y-259750000D02*
X250775000Y-254975000D01*
D28*
%TO.N,GND*%
X313625000Y-194900000D02*
X312650000Y-194900000D01*
X313625000Y-161400000D02*
X312650000Y-161400000D01*
X398375000Y-322350000D02*
X399150000Y-322350000D01*
X312650000Y-194900000D02*
X311750000Y-194000000D01*
X352425000Y-306325000D02*
X353500000Y-305250000D01*
X266625000Y-281175000D02*
X265675000Y-281175000D01*
X398375000Y-186350000D02*
X399400000Y-186350000D01*
X351375000Y-306325000D02*
X352425000Y-306325000D01*
X313625000Y-263175000D02*
X312675000Y-263175000D01*
X399400000Y-254350000D02*
X400500000Y-253250000D01*
X352400000Y-272350000D02*
X353500000Y-271250000D01*
X266625000Y-315175000D02*
X265675000Y-315175000D01*
X266625000Y-213175000D02*
X265675000Y-213175000D01*
D24*
X320480000Y-145825000D02*
X315250000Y-145825000D01*
D28*
X399400000Y-288350000D02*
X400500000Y-287250000D01*
X351375000Y-340325000D02*
X352175000Y-340325000D01*
X313625000Y-297150000D02*
X312650000Y-297150000D01*
X352400000Y-170350000D02*
X353500000Y-169250000D01*
X312650000Y-229150000D02*
X311750000Y-228250000D01*
X352425000Y-204325000D02*
X353500000Y-203250000D01*
X351375000Y-238350000D02*
X352400000Y-238350000D01*
X351375000Y-272350000D02*
X352400000Y-272350000D01*
X313625000Y-331150000D02*
X312650000Y-331150000D01*
X351375000Y-170350000D02*
X352400000Y-170350000D01*
D24*
X324880000Y-141425000D02*
X320480000Y-145825000D01*
D28*
X313625000Y-229150000D02*
X312650000Y-229150000D01*
X265675000Y-179175000D02*
X264750000Y-178250000D01*
X266625000Y-247175000D02*
X265675000Y-247175000D01*
X352400000Y-238350000D02*
X353500000Y-237250000D01*
X312650000Y-331150000D02*
X311750000Y-330250000D01*
D24*
X275675000Y-145825000D02*
X272000000Y-149500000D01*
X314075000Y-145825000D02*
X275675000Y-145825000D01*
D28*
X265675000Y-213175000D02*
X264750000Y-212250000D01*
X399400000Y-220350000D02*
X400500000Y-219250000D01*
D24*
X314075000Y-145825000D02*
X314075000Y-145780500D01*
D28*
X351375000Y-204325000D02*
X352425000Y-204325000D01*
X398375000Y-220350000D02*
X399400000Y-220350000D01*
X352175000Y-340325000D02*
X353500000Y-339000000D01*
X312650000Y-161400000D02*
X311750000Y-160500000D01*
X399400000Y-186350000D02*
X400500000Y-185250000D01*
X398375000Y-254350000D02*
X399400000Y-254350000D01*
X312675000Y-263175000D02*
X311750000Y-262250000D01*
X265675000Y-247175000D02*
X264750000Y-246250000D01*
X398375000Y-288350000D02*
X399400000Y-288350000D01*
D24*
X315250000Y-145825000D02*
X314075000Y-145825000D01*
D28*
X265675000Y-281175000D02*
X264750000Y-280250000D01*
X266625000Y-179175000D02*
X265675000Y-179175000D01*
X312650000Y-297150000D02*
X311750000Y-296250000D01*
X265675000Y-315175000D02*
X264750000Y-314250000D01*
X399150000Y-322350000D02*
X400500000Y-321000000D01*
D27*
%TO.N,Net-(J3-Pad15)*%
X252975000Y-256275000D02*
X253375000Y-256275000D01*
X246000000Y-263250000D02*
X252975000Y-256275000D01*
X253375000Y-255625000D02*
X253375000Y-256275000D01*
%TO.N,Net-(J4-Pad1)*%
X253375000Y-280525000D02*
X252475000Y-280525000D01*
X253375000Y-281175000D02*
X253375000Y-280525000D01*
X252475000Y-280525000D02*
X248750000Y-276800000D01*
X248750000Y-275500000D02*
X246000000Y-272750000D01*
X248750000Y-276800000D02*
X248750000Y-275500000D01*
D28*
%TO.N,Net-(MCU1-Pad16)*%
X321400000Y-183005000D02*
X321400000Y-183150000D01*
X324880000Y-179525000D02*
X321400000Y-183005000D01*
X315700000Y-338300000D02*
X321400000Y-332600000D01*
X313625000Y-338300000D02*
X315700000Y-338300000D01*
X321400000Y-332600000D02*
X321400000Y-183150000D01*
D27*
%TO.N,Net-(J4-Pad3)*%
X252225000Y-282475000D02*
X253375000Y-282475000D01*
X246000000Y-276250000D02*
X252225000Y-282475000D01*
X253375000Y-281825000D02*
X253375000Y-282475000D01*
D28*
%TO.N,Net-(MCU1-Pad28)*%
X342665000Y-146500000D02*
X340120000Y-149045000D01*
X391500000Y-174250000D02*
X391500000Y-149556802D01*
X391500000Y-149556802D02*
X388443198Y-146500000D01*
X388443198Y-146500000D02*
X342665000Y-146500000D01*
X396425000Y-179200000D02*
X396425000Y-179175000D01*
X396425000Y-179175000D02*
X391500000Y-174250000D01*
X398375000Y-179200000D02*
X396425000Y-179200000D01*
D27*
%TO.N,Net-(J4-Pad5)*%
X246000000Y-279750000D02*
X250025000Y-283775000D01*
X253375000Y-283125000D02*
X253375000Y-283775000D01*
X250025000Y-283775000D02*
X253375000Y-283775000D01*
D28*
%TO.N,Net-(MCU1-Pad29)*%
X344705000Y-147000000D02*
X340120000Y-151585000D01*
X388250000Y-147000000D02*
X344705000Y-147000000D01*
X398375000Y-213200000D02*
X396450000Y-213200000D01*
X391000000Y-207750000D02*
X391000000Y-149750000D01*
X396450000Y-213200000D02*
X391000000Y-207750000D01*
X391000000Y-149750000D02*
X388250000Y-147000000D01*
D27*
%TO.N,Net-(J4-Pad7)*%
X246000000Y-283250000D02*
X247825000Y-285075000D01*
X253375000Y-284425000D02*
X253375000Y-285075000D01*
X247825000Y-285075000D02*
X253375000Y-285075000D01*
D28*
%TO.N,Net-(MCU1-Pad31)*%
X396800000Y-281200000D02*
X390000000Y-274400000D01*
X387977208Y-148000000D02*
X348785000Y-148000000D01*
X390000000Y-150022792D02*
X387977208Y-148000000D01*
X390000000Y-274400000D02*
X390000000Y-150022792D01*
X398375000Y-281200000D02*
X396800000Y-281200000D01*
X348785000Y-148000000D02*
X340120000Y-156665000D01*
D27*
%TO.N,Net-(J4-Pad9)*%
X253375000Y-285725000D02*
X253375000Y-286375000D01*
X246000000Y-286750000D02*
X246375000Y-286375000D01*
X246375000Y-286375000D02*
X253375000Y-286375000D01*
D28*
%TO.N,Net-(MCU1-Pad32)*%
X387840812Y-148500000D02*
X350825000Y-148500000D01*
X389500000Y-150159188D02*
X387840812Y-148500000D01*
X350825000Y-148500000D02*
X340120000Y-159205000D01*
X396425000Y-315200000D02*
X389500000Y-308275000D01*
X389500000Y-308275000D02*
X389500000Y-150159188D01*
X398375000Y-315200000D02*
X396425000Y-315200000D01*
D27*
%TO.N,Net-(J4-Pad11)*%
X248575000Y-287675000D02*
X253375000Y-287675000D01*
X253375000Y-287025000D02*
X253375000Y-287675000D01*
X246000000Y-290250000D02*
X248575000Y-287675000D01*
D28*
%TO.N,Net-(MCU1-Pad34)*%
X345500000Y-169665000D02*
X340120000Y-164285000D01*
X349675000Y-197175000D02*
X345500000Y-193000000D01*
X351375000Y-197175000D02*
X349675000Y-197175000D01*
X345500000Y-193000000D02*
X345500000Y-169665000D01*
D27*
%TO.N,Net-(J4-Pad13)*%
X246000000Y-293750000D02*
X250775000Y-288975000D01*
X250775000Y-288975000D02*
X253375000Y-288975000D01*
X253375000Y-288325000D02*
X253375000Y-288975000D01*
D28*
%TO.N,Net-(MCU1-Pad35)*%
X351375000Y-231200000D02*
X349925000Y-231200000D01*
X349925000Y-231200000D02*
X344950000Y-226225000D01*
X344950000Y-226225000D02*
X344950000Y-171655000D01*
X344950000Y-171655000D02*
X340120000Y-166825000D01*
D27*
%TO.N,Net-(J4-Pad15)*%
X252975000Y-290275000D02*
X253375000Y-290275000D01*
X246000000Y-297250000D02*
X252975000Y-290275000D01*
X253375000Y-289625000D02*
X253375000Y-290275000D01*
D28*
%TO.N,Net-(MCU1-Pad37)*%
X344000000Y-175785000D02*
X340120000Y-171905000D01*
X351375000Y-299175000D02*
X349925000Y-299175000D01*
X344000000Y-293250000D02*
X344000000Y-175785000D01*
X349925000Y-299175000D02*
X344000000Y-293250000D01*
D27*
%TO.N,Net-(J5-Pad1)*%
X253375000Y-315175000D02*
X253375000Y-314525000D01*
X252475000Y-314525000D02*
X248750000Y-310800000D01*
X248750000Y-310800000D02*
X248750000Y-309500000D01*
X248750000Y-309500000D02*
X246000000Y-306750000D01*
X253375000Y-314525000D02*
X252475000Y-314525000D01*
D28*
%TO.N,Net-(MCU1-Pad40)*%
X343550000Y-182955000D02*
X340120000Y-179525000D01*
X349675000Y-333175000D02*
X343525000Y-327025000D01*
X343550000Y-186250000D02*
X343550000Y-182955000D01*
X343525000Y-186275000D02*
X343550000Y-186250000D01*
X351375000Y-333175000D02*
X349675000Y-333175000D01*
X343525000Y-327025000D02*
X343525000Y-186275000D01*
D27*
%TO.N,Net-(J5-Pad3)*%
X253375000Y-315825000D02*
X253375000Y-316475000D01*
X252225000Y-316475000D02*
X253375000Y-316475000D01*
X246000000Y-310250000D02*
X252225000Y-316475000D01*
%TO.N,Net-(J5-Pad5)*%
X253375000Y-317125000D02*
X253375000Y-317775000D01*
X250025000Y-317775000D02*
X253375000Y-317775000D01*
X246000000Y-313750000D02*
X250025000Y-317775000D01*
%TO.N,Net-(J5-Pad7)*%
X247825000Y-319075000D02*
X253375000Y-319075000D01*
X246000000Y-317250000D02*
X247825000Y-319075000D01*
X253375000Y-318425000D02*
X253375000Y-319075000D01*
%TO.N,Net-(J5-Pad9)*%
X253375000Y-319725000D02*
X253375000Y-320375000D01*
X246375000Y-320375000D02*
X253375000Y-320375000D01*
X246000000Y-320750000D02*
X246375000Y-320375000D01*
%TO.N,Net-(J5-Pad11)*%
X246000000Y-324250000D02*
X248575000Y-321675000D01*
X248575000Y-321675000D02*
X253375000Y-321675000D01*
X253375000Y-321025000D02*
X253375000Y-321675000D01*
%TO.N,Net-(J5-Pad13)*%
X250775000Y-322975000D02*
X253375000Y-322975000D01*
X253375000Y-322325000D02*
X253375000Y-322975000D01*
X246000000Y-327750000D02*
X250775000Y-322975000D01*
%TO.N,Net-(J5-Pad15)*%
X246000000Y-331250000D02*
X252975000Y-324275000D01*
X253375000Y-323625000D02*
X253375000Y-324275000D01*
X252975000Y-324275000D02*
X253375000Y-324275000D01*
%TO.N,Net-(J6-Pad1)*%
X295750000Y-155500000D02*
X293000000Y-152750000D01*
X295750000Y-157025000D02*
X295750000Y-155500000D01*
X300375000Y-161400000D02*
X300375000Y-160750000D01*
X299475000Y-160750000D02*
X295750000Y-157025000D01*
X300375000Y-160750000D02*
X299475000Y-160750000D01*
%TO.N,Net-(J6-Pad3)*%
X293000000Y-156250000D02*
X299450000Y-162700000D01*
X300375000Y-162050000D02*
X300375000Y-162700000D01*
X299450000Y-162700000D02*
X300375000Y-162700000D01*
%TO.N,Net-(J6-Pad5)*%
X293000000Y-159750000D02*
X297250000Y-164000000D01*
X297250000Y-164000000D02*
X300375000Y-164000000D01*
X300375000Y-163350000D02*
X300375000Y-164000000D01*
%TO.N,Net-(J6-Pad7)*%
X300375000Y-164650000D02*
X300375000Y-165300000D01*
X295050000Y-165300000D02*
X300375000Y-165300000D01*
X293000000Y-163250000D02*
X295050000Y-165300000D01*
%TO.N,Net-(J6-Pad9)*%
X293150000Y-166600000D02*
X300375000Y-166600000D01*
X300375000Y-165950000D02*
X300375000Y-166600000D01*
X293000000Y-166750000D02*
X293150000Y-166600000D01*
%TO.N,Net-(J6-Pad11)*%
X293000000Y-170250000D02*
X295350000Y-167900000D01*
X300375000Y-167250000D02*
X300375000Y-167900000D01*
X295350000Y-167900000D02*
X300375000Y-167900000D01*
%TO.N,Net-(J6-Pad13)*%
X293000000Y-173750000D02*
X297550000Y-169200000D01*
X300375000Y-168550000D02*
X300375000Y-169200000D01*
X297550000Y-169200000D02*
X300375000Y-169200000D01*
%TO.N,Net-(J6-Pad15)*%
X293000000Y-177250000D02*
X299750000Y-170500000D01*
X300375000Y-169850000D02*
X300375000Y-170500000D01*
X299750000Y-170500000D02*
X300375000Y-170500000D01*
%TO.N,Net-(J7-Pad1)*%
X300375000Y-194250000D02*
X299475000Y-194250000D01*
X295750000Y-189500000D02*
X293000000Y-186750000D01*
X300375000Y-194900000D02*
X300375000Y-194250000D01*
X299475000Y-194250000D02*
X295750000Y-190525000D01*
X295750000Y-190525000D02*
X295750000Y-189500000D01*
%TO.N,Net-(J7-Pad3)*%
X298950000Y-196200000D02*
X300375000Y-196200000D01*
X300375000Y-195550000D02*
X300375000Y-196200000D01*
X293000000Y-190250000D02*
X298950000Y-196200000D01*
%TO.N,Net-(J7-Pad5)*%
X296750000Y-197500000D02*
X300375000Y-197500000D01*
X300375000Y-196850000D02*
X300375000Y-197500000D01*
X293000000Y-193750000D02*
X296750000Y-197500000D01*
%TO.N,Net-(J7-Pad7)*%
X300375000Y-198150000D02*
X300375000Y-198800000D01*
X293000000Y-197250000D02*
X294550000Y-198800000D01*
X294550000Y-198800000D02*
X300375000Y-198800000D01*
%TO.N,Net-(J7-Pad9)*%
X300375000Y-199450000D02*
X300375000Y-200100000D01*
X293000000Y-200750000D02*
X293650000Y-200100000D01*
X293650000Y-200100000D02*
X300375000Y-200100000D01*
%TO.N,Net-(J7-Pad11)*%
X295850000Y-201400000D02*
X300375000Y-201400000D01*
X300375000Y-200750000D02*
X300375000Y-201400000D01*
X293000000Y-204250000D02*
X295850000Y-201400000D01*
%TO.N,Net-(J7-Pad13)*%
X298050000Y-202700000D02*
X300375000Y-202700000D01*
X300375000Y-202050000D02*
X300375000Y-202700000D01*
X293000000Y-207750000D02*
X298050000Y-202700000D01*
%TO.N,Net-(J7-Pad15)*%
X300375000Y-203350000D02*
X300375000Y-204000000D01*
X300250000Y-204000000D02*
X300375000Y-204000000D01*
X293000000Y-211250000D02*
X300250000Y-204000000D01*
%TO.N,Net-(J8-Pad1)*%
X300375000Y-229150000D02*
X300375000Y-228500000D01*
X295750000Y-223500000D02*
X293000000Y-220750000D01*
X299475000Y-228500000D02*
X295750000Y-224775000D01*
X300375000Y-228500000D02*
X299475000Y-228500000D01*
X295750000Y-224775000D02*
X295750000Y-223500000D01*
%TO.N,Net-(J8-Pad5)*%
X293000000Y-227750000D02*
X297000000Y-231750000D01*
X297000000Y-231750000D02*
X300375000Y-231750000D01*
X300375000Y-231100000D02*
X300375000Y-231750000D01*
%TO.N,Net-(J8-Pad7)*%
X293000000Y-231250000D02*
X294800000Y-233050000D01*
X294800000Y-233050000D02*
X300375000Y-233050000D01*
X300375000Y-232400000D02*
X300375000Y-233050000D01*
%TO.N,Net-(J8-Pad9)*%
X293000000Y-234750000D02*
X293400000Y-234350000D01*
X300375000Y-233700000D02*
X300375000Y-234350000D01*
X293400000Y-234350000D02*
X300375000Y-234350000D01*
%TO.N,Net-(J8-Pad11)*%
X293000000Y-238250000D02*
X295600000Y-235650000D01*
X300375000Y-235000000D02*
X300375000Y-235650000D01*
X295600000Y-235650000D02*
X300375000Y-235650000D01*
%TO.N,Net-(J8-Pad13)*%
X293000000Y-241750000D02*
X297800000Y-236950000D01*
X300375000Y-236300000D02*
X300375000Y-236950000D01*
X297800000Y-236950000D02*
X300375000Y-236950000D01*
%TO.N,Net-(J8-Pad15)*%
X300000000Y-238250000D02*
X300375000Y-238250000D01*
X293000000Y-245250000D02*
X300000000Y-238250000D01*
X300375000Y-237600000D02*
X300375000Y-238250000D01*
%TO.N,Net-(J9-Pad1)*%
X295750000Y-258800000D02*
X295750000Y-257500000D01*
X295750000Y-257500000D02*
X293000000Y-254750000D01*
X300375000Y-263175000D02*
X300375000Y-262525000D01*
X300375000Y-262525000D02*
X299475000Y-262525000D01*
X299475000Y-262525000D02*
X295750000Y-258800000D01*
%TO.N,Net-(J9-Pad3)*%
X300375000Y-263825000D02*
X300375000Y-264475000D01*
X299225000Y-264475000D02*
X300375000Y-264475000D01*
X293000000Y-258250000D02*
X299225000Y-264475000D01*
%TO.N,Net-(J9-Pad5)*%
X293000000Y-261750000D02*
X297025000Y-265775000D01*
X300375000Y-265125000D02*
X300375000Y-265775000D01*
X297025000Y-265775000D02*
X300375000Y-265775000D01*
%TO.N,Net-(J9-Pad7)*%
X294825000Y-267075000D02*
X300375000Y-267075000D01*
X293000000Y-265250000D02*
X294825000Y-267075000D01*
X300375000Y-266425000D02*
X300375000Y-267075000D01*
%TO.N,Net-(J9-Pad9)*%
X300375000Y-267725000D02*
X300375000Y-268375000D01*
X293000000Y-268750000D02*
X293375000Y-268375000D01*
X293375000Y-268375000D02*
X300375000Y-268375000D01*
%TO.N,Net-(J9-Pad11)*%
X300375000Y-269025000D02*
X300375000Y-269675000D01*
X293000000Y-272250000D02*
X295575000Y-269675000D01*
X295575000Y-269675000D02*
X300375000Y-269675000D01*
%TO.N,Net-(J9-Pad13)*%
X297775000Y-270975000D02*
X300375000Y-270975000D01*
X300375000Y-270325000D02*
X300375000Y-270975000D01*
X293000000Y-275750000D02*
X297775000Y-270975000D01*
%TO.N,Net-(J9-Pad15)*%
X300375000Y-271625000D02*
X300375000Y-272275000D01*
X299975000Y-272275000D02*
X300375000Y-272275000D01*
X300375000Y-272275000D02*
X299872056Y-272275000D01*
X293000000Y-279250000D02*
X299975000Y-272275000D01*
%TO.N,Net-(J10-Pad3)*%
X300375000Y-297800000D02*
X300375000Y-298450000D01*
X299200000Y-298450000D02*
X300375000Y-298450000D01*
X293000000Y-292250000D02*
X299200000Y-298450000D01*
%TO.N,Net-(J10-Pad5)*%
X297000000Y-299750000D02*
X300375000Y-299750000D01*
X300375000Y-299100000D02*
X300375000Y-299750000D01*
X293000000Y-295750000D02*
X297000000Y-299750000D01*
%TO.N,Net-(J10-Pad7)*%
X293000000Y-299250000D02*
X294850000Y-301100000D01*
X294850000Y-301100000D02*
X300500000Y-301100000D01*
X300375000Y-300400000D02*
X300375000Y-301050000D01*
%TO.N,Net-(J10-Pad9)*%
X293000000Y-302750000D02*
X293400000Y-302350000D01*
X300375000Y-301700000D02*
X300375000Y-302350000D01*
X293400000Y-302350000D02*
X300375000Y-302350000D01*
%TO.N,Net-(J10-Pad11)*%
X293000000Y-306250000D02*
X295600000Y-303650000D01*
X295600000Y-303650000D02*
X300375000Y-303650000D01*
X300375000Y-303000000D02*
X300375000Y-303650000D01*
%TO.N,Net-(J10-Pad13)*%
X293000000Y-309750000D02*
X297800000Y-304950000D01*
X297800000Y-304950000D02*
X300375000Y-304950000D01*
X300375000Y-304300000D02*
X300375000Y-304950000D01*
%TO.N,Net-(J10-Pad15)*%
X293000000Y-313250000D02*
X300000000Y-306250000D01*
X300000000Y-306250000D02*
X300375000Y-306250000D01*
X300375000Y-305600000D02*
X300375000Y-306250000D01*
%TO.N,Net-(J11-Pad1)*%
X295750000Y-325500000D02*
X293000000Y-322750000D01*
X300375000Y-331150000D02*
X300375000Y-330500000D01*
X295750000Y-326775000D02*
X295750000Y-325500000D01*
X299475000Y-330500000D02*
X295750000Y-326775000D01*
X300375000Y-330500000D02*
X299475000Y-330500000D01*
%TO.N,Net-(J11-Pad3)*%
X293000000Y-326250000D02*
X299200000Y-332450000D01*
X299200000Y-332450000D02*
X300375000Y-332450000D01*
X300375000Y-331800000D02*
X300375000Y-332450000D01*
%TO.N,Net-(J11-Pad5)*%
X293000000Y-329750000D02*
X297000000Y-333750000D01*
X300375000Y-333100000D02*
X300375000Y-333750000D01*
X297000000Y-333750000D02*
X300375000Y-333750000D01*
%TO.N,Net-(J11-Pad7)*%
X300375000Y-334400000D02*
X300375000Y-335050000D01*
X294800000Y-335050000D02*
X300375000Y-335050000D01*
X293000000Y-333250000D02*
X294800000Y-335050000D01*
%TO.N,Net-(J11-Pad9)*%
X300375000Y-335700000D02*
X300375000Y-336350000D01*
X293000000Y-336750000D02*
X293400000Y-336350000D01*
X293400000Y-336350000D02*
X300375000Y-336350000D01*
%TO.N,Net-(J11-Pad11)*%
X300375000Y-337000000D02*
X300375000Y-337650000D01*
X295600000Y-337650000D02*
X300375000Y-337650000D01*
X293000000Y-340250000D02*
X295600000Y-337650000D01*
%TO.N,Net-(J11-Pad13)*%
X293000000Y-343750000D02*
X297800000Y-338950000D01*
X297800000Y-338950000D02*
X300375000Y-338950000D01*
X300375000Y-338300000D02*
X300375000Y-338950000D01*
%TO.N,Net-(J11-Pad15)*%
X300000000Y-340250000D02*
X300375000Y-340250000D01*
X300375000Y-339600000D02*
X300375000Y-340250000D01*
X293000000Y-347250000D02*
X300000000Y-340250000D01*
D28*
%TO.N,Net-(MCU1-Pad2)*%
X391750000Y-207388604D02*
X396911396Y-212550000D01*
X322500000Y-198750000D02*
X322500000Y-200500000D01*
X396911396Y-246550000D02*
X391250000Y-240888604D01*
X398375000Y-314550000D02*
X396661396Y-314550000D01*
X322500000Y-222250000D02*
X322500000Y-230500000D01*
X316074598Y-236950000D02*
X319762299Y-233262299D01*
X316050000Y-304950000D02*
X320500000Y-300500000D01*
X345250000Y-259775000D02*
X345250000Y-258250000D01*
X346224500Y-191250000D02*
X346224500Y-193088104D01*
X391750000Y-205750000D02*
X391750000Y-207388604D01*
X313625000Y-236950000D02*
X316074598Y-236950000D01*
X266625000Y-254975000D02*
X268824598Y-254975000D01*
X349911396Y-230550000D02*
X345750000Y-226388604D01*
X344250000Y-326250000D02*
X344250000Y-327113604D01*
X391250000Y-240888604D02*
X391250000Y-239250000D01*
X398375000Y-280550000D02*
X396911396Y-280550000D01*
X396911396Y-280550000D02*
X390750000Y-274388604D01*
X313625000Y-270975000D02*
X316324598Y-270975000D01*
X349661396Y-196525000D02*
X351375000Y-196525000D01*
X268824598Y-186975000D02*
X272512299Y-183287299D01*
X316324598Y-202700000D02*
X319262299Y-199762299D01*
X268800000Y-322975000D02*
X266625000Y-322975000D01*
X313625000Y-202700000D02*
X316324598Y-202700000D01*
X396661396Y-314550000D02*
X390250000Y-308138604D01*
X316050000Y-169200000D02*
X322500000Y-162750000D01*
X345475000Y-158750000D02*
X349275000Y-162550000D01*
X275750000Y-316025000D02*
X275750000Y-180025000D01*
X390250000Y-308138604D02*
X390250000Y-306250000D01*
X398375000Y-246550000D02*
X396911396Y-246550000D01*
X345750000Y-226388604D02*
X345750000Y-224750000D01*
X398375000Y-178550000D02*
X396775000Y-178550000D01*
X396775000Y-178550000D02*
X392250000Y-174025000D01*
X268800000Y-322975000D02*
X275750000Y-316025000D01*
X313625000Y-304950000D02*
X316050000Y-304950000D01*
X313625000Y-169200000D02*
X316050000Y-169200000D01*
X266625000Y-288975000D02*
X269074598Y-288975000D01*
X266625000Y-220975000D02*
X268824598Y-220975000D01*
X390750000Y-274388604D02*
X390750000Y-272500000D01*
X346224500Y-193088104D02*
X349661396Y-196525000D01*
X322500000Y-264775000D02*
X322500000Y-267025000D01*
X266625000Y-186975000D02*
X268824598Y-186975000D01*
X349661396Y-332525000D02*
X351375000Y-332525000D01*
X344750000Y-293250000D02*
X344750000Y-291750000D01*
X322500000Y-200500000D02*
X322500000Y-222500000D01*
X268824598Y-220975000D02*
X273262299Y-216537299D01*
X322500000Y-230750000D02*
X322500000Y-264500000D01*
X322500000Y-289250000D02*
X322500000Y-298500000D01*
X275750000Y-180250000D02*
X275750000Y-150750000D01*
X351375000Y-230550000D02*
X349911396Y-230550000D01*
X396911396Y-212550000D02*
X398375000Y-212550000D01*
X316000000Y-149250000D02*
X322500000Y-155750000D01*
X269074598Y-288975000D02*
X274262299Y-283787299D01*
X322500000Y-266750000D02*
X322500000Y-289500000D01*
X352250000Y-149250000D02*
X342750000Y-158750000D01*
X350025000Y-264550000D02*
X345250000Y-259775000D01*
X268824598Y-254975000D02*
X273762299Y-250037299D01*
X275750000Y-150750000D02*
X277250000Y-149250000D01*
X351375000Y-264550000D02*
X350025000Y-264550000D01*
X313625000Y-338950000D02*
X316300000Y-338950000D01*
X351375000Y-298525000D02*
X350025000Y-298525000D01*
X349275000Y-162550000D02*
X351375000Y-162550000D01*
X316300000Y-338950000D02*
X322500000Y-332750000D01*
X344250000Y-327113604D02*
X349661396Y-332525000D01*
X392250000Y-174025000D02*
X392250000Y-172750000D01*
X350025000Y-298525000D02*
X344750000Y-293250000D01*
X356750000Y-149250000D02*
X352250000Y-149250000D01*
X316324598Y-270975000D02*
X320012299Y-267287299D01*
X342750000Y-158750000D02*
X345475000Y-158750000D01*
X277250000Y-149250000D02*
X316000000Y-149250000D01*
X322500000Y-332750000D02*
X322500000Y-298750000D01*
X322500000Y-196500000D02*
X322500000Y-198750000D01*
%TO.N,Net-(MCU1-Pad3)*%
X266625000Y-186325000D02*
X268450000Y-186325000D01*
X273000000Y-181775000D02*
X273000000Y-180750000D01*
X273000000Y-150000000D02*
X273000000Y-180750000D01*
X276495000Y-146505000D02*
X273000000Y-150000000D01*
X324880000Y-146505000D02*
X276495000Y-146505000D01*
X268450000Y-186325000D02*
X273000000Y-181775000D01*
%TO.N,Net-(MCU1-Pad4)*%
X268450000Y-220325000D02*
X273500000Y-215275000D01*
X322835000Y-147000000D02*
X324880000Y-149045000D01*
X273500000Y-215275000D02*
X273500000Y-150136396D01*
X273500000Y-150136396D02*
X276636396Y-147000000D01*
X276636396Y-147000000D02*
X322835000Y-147000000D01*
X266625000Y-220325000D02*
X268450000Y-220325000D01*
%TO.N,Net-(MCU1-Pad5)*%
X324880000Y-151585000D02*
X320795000Y-147500000D01*
X274000000Y-150272792D02*
X274000000Y-248775000D01*
X320795000Y-147500000D02*
X276772792Y-147500000D01*
X276772792Y-147500000D02*
X274000000Y-150272792D01*
X274000000Y-248775000D02*
X268450000Y-254325000D01*
X268450000Y-254325000D02*
X266625000Y-254325000D01*
%TO.N,Net-(MCU1-Pad6)*%
X324880000Y-154125000D02*
X318755000Y-148000000D01*
X318755000Y-148000000D02*
X277000000Y-148000000D01*
X268700000Y-288325000D02*
X274500000Y-282525000D01*
X274500000Y-282525000D02*
X274500000Y-281500000D01*
X274500000Y-150500000D02*
X274500000Y-281500000D01*
X277000000Y-148000000D02*
X274500000Y-150500000D01*
X266625000Y-288325000D02*
X268700000Y-288325000D01*
%TO.N,Net-(MCU1-Pad7)*%
X316715000Y-148500000D02*
X324880000Y-156665000D01*
X275000000Y-315775000D02*
X275000000Y-150636396D01*
X266625000Y-322325000D02*
X268450000Y-322325000D01*
X268450000Y-322325000D02*
X275000000Y-315775000D01*
X277136396Y-148500000D02*
X316715000Y-148500000D01*
X275000000Y-150636396D02*
X277136396Y-148500000D01*
%TO.N,Net-(MCU1-Pad8)*%
X313625000Y-168550000D02*
X315450000Y-168550000D01*
X324880000Y-159205000D02*
X315535000Y-168550000D01*
X315535000Y-168550000D02*
X315450000Y-168550000D01*
%TO.N,Net-(MCU1-Pad9)*%
X313625000Y-202050000D02*
X315950000Y-202050000D01*
X319500000Y-167125000D02*
X324880000Y-161745000D01*
X319500000Y-198500000D02*
X319500000Y-167125000D01*
X315950000Y-202050000D02*
X319500000Y-198500000D01*
%TO.N,Net-(MCU1-Pad10)*%
X320000000Y-232000000D02*
X320000000Y-231750000D01*
X315700000Y-236300000D02*
X320000000Y-232000000D01*
X320000000Y-169165000D02*
X324880000Y-164285000D01*
X313625000Y-236300000D02*
X315700000Y-236300000D01*
X320000000Y-231750000D02*
X320000000Y-169165000D01*
%TO.N,Net-(MCU1-Pad11)*%
X315950000Y-270325000D02*
X320500000Y-265775000D01*
X313625000Y-270325000D02*
X315950000Y-270325000D01*
X320500000Y-265775000D02*
X320500000Y-171205000D01*
X320500000Y-171205000D02*
X324880000Y-166825000D01*
%TO.N,Net-(MCU1-Pad12)*%
X313625000Y-304300000D02*
X315450000Y-304300000D01*
X320950000Y-298800000D02*
X320950000Y-291550000D01*
X315450000Y-304300000D02*
X320950000Y-298800000D01*
X320950000Y-173295000D02*
X324880000Y-169365000D01*
X320950000Y-291550000D02*
X320950000Y-173295000D01*
D27*
%TO.N,Net-(MCU1-Pad13)*%
X327750000Y-174050000D02*
X327025000Y-174050000D01*
X327025000Y-174050000D02*
X324880000Y-171905000D01*
D28*
%TO.N,Net-(MCU1-Pad27)*%
X398375000Y-245900000D02*
X397575000Y-245900000D01*
X397125000Y-313900000D02*
X395250000Y-312025000D01*
X351375000Y-229900000D02*
X350285994Y-229900000D01*
X398375000Y-279900000D02*
X397375000Y-279900000D01*
X398375000Y-211900000D02*
X397575000Y-211900000D01*
X395250000Y-148750000D02*
X395250000Y-175525000D01*
X351375000Y-161900000D02*
X349875000Y-161900000D01*
X351375000Y-297875000D02*
X350399598Y-297875000D01*
X351375000Y-331875000D02*
X350375000Y-331875000D01*
X397575000Y-177900000D02*
X395250000Y-175575000D01*
X350375000Y-331875000D02*
X349000000Y-330500000D01*
X350399598Y-297875000D02*
X349012299Y-296487701D01*
X390250000Y-143750000D02*
X395250000Y-148750000D01*
X349000000Y-143750000D02*
X390250000Y-143750000D01*
X395250000Y-209575000D02*
X395250000Y-209525000D01*
X395250000Y-175575000D02*
X395250000Y-175525000D01*
X395250000Y-243575000D02*
X395250000Y-243525000D01*
X350285994Y-229900000D02*
X349080497Y-228694503D01*
X398375000Y-177900000D02*
X397575000Y-177900000D01*
X350399598Y-263900000D02*
X349012299Y-262512701D01*
X398375000Y-313900000D02*
X397125000Y-313900000D01*
X397575000Y-211900000D02*
X395250000Y-209575000D01*
X349875000Y-161900000D02*
X349000000Y-161025000D01*
X351375000Y-263900000D02*
X350399598Y-263900000D01*
X350035994Y-195875000D02*
X349080497Y-194919503D01*
X397575000Y-245900000D02*
X395250000Y-243575000D01*
X351375000Y-195875000D02*
X350035994Y-195875000D01*
X397375000Y-279900000D02*
X395250000Y-277775000D01*
%TO.N,Net-(MCU1-Pad30)*%
X398375000Y-247200000D02*
X396675000Y-247200000D01*
X390500000Y-241025000D02*
X390500000Y-149886396D01*
X388113604Y-147500000D02*
X346745000Y-147500000D01*
X346745000Y-147500000D02*
X340120000Y-154125000D01*
X390500000Y-149886396D02*
X388113604Y-147500000D01*
X396675000Y-247200000D02*
X390500000Y-241025000D01*
%TO.N,Net-(MCU1-Pad33)*%
X351375000Y-163200000D02*
X349175000Y-163200000D01*
X347720000Y-161745000D02*
X340120000Y-161745000D01*
X349175000Y-163200000D02*
X347720000Y-161745000D01*
D24*
%TO.N,Net-(MCU1-Pad38)*%
X340065000Y-174500000D02*
X340120000Y-174445000D01*
X336500000Y-174500000D02*
X340065000Y-174500000D01*
D27*
%TO.N,Net-(J14-Pad15)*%
X372000000Y-154225000D02*
X364975000Y-161250000D01*
X364975000Y-161250000D02*
X364625000Y-161250000D01*
X364625000Y-161900000D02*
X364625000Y-161250000D01*
%TO.N,Net-(J15-Pad3)*%
X365800000Y-203025000D02*
X364625000Y-203025000D01*
X364625000Y-203675000D02*
X364625000Y-203025000D01*
X372000000Y-209225000D02*
X365800000Y-203025000D01*
%TO.N,Net-(J15-Pad11)*%
X364625000Y-198475000D02*
X364625000Y-197825000D01*
X372000000Y-195225000D02*
X369400000Y-197825000D01*
X369400000Y-197825000D02*
X364625000Y-197825000D01*
%TO.N,Net-(J15-Pad13)*%
X372000000Y-191725000D02*
X367200000Y-196525000D01*
X367200000Y-196525000D02*
X364625000Y-196525000D01*
X364625000Y-197175000D02*
X364625000Y-196525000D01*
%TO.N,Net-(J16-Pad1)*%
X369500000Y-244225000D02*
X372000000Y-246725000D01*
X365525000Y-239000000D02*
X369500000Y-242975000D01*
X364625000Y-239000000D02*
X365525000Y-239000000D01*
X364625000Y-239000000D02*
X364625000Y-238350000D01*
X369500000Y-242975000D02*
X369500000Y-244225000D01*
%TO.N,Net-(J16-Pad3)*%
X365825000Y-237050000D02*
X364625000Y-237050000D01*
X364625000Y-237700000D02*
X364625000Y-237050000D01*
X372000000Y-243225000D02*
X365825000Y-237050000D01*
%TO.N,Net-(J16-Pad5)*%
X372000000Y-239725000D02*
X368025000Y-235750000D01*
X364625000Y-236400000D02*
X364625000Y-235750000D01*
X368025000Y-235750000D02*
X364625000Y-235750000D01*
%TO.N,Net-(J16-Pad7)*%
X364625000Y-235100000D02*
X364625000Y-234450000D01*
X370225000Y-234450000D02*
X364625000Y-234450000D01*
X372000000Y-236225000D02*
X370225000Y-234450000D01*
%TO.N,Net-(J16-Pad9)*%
X364625000Y-233800000D02*
X364625000Y-233150000D01*
X371575000Y-233150000D02*
X364625000Y-233150000D01*
X372000000Y-232725000D02*
X371575000Y-233150000D01*
%TO.N,Net-(J16-Pad11)*%
X369375000Y-231850000D02*
X364625000Y-231850000D01*
X364625000Y-232500000D02*
X364625000Y-231850000D01*
X372000000Y-229225000D02*
X369375000Y-231850000D01*
%TO.N,Net-(J16-Pad13)*%
X367175000Y-230550000D02*
X364625000Y-230550000D01*
X364625000Y-231200000D02*
X364625000Y-230550000D01*
X372000000Y-225725000D02*
X367175000Y-230550000D01*
%TO.N,Net-(J16-Pad15)*%
X372000000Y-222225000D02*
X364975000Y-229250000D01*
X364975000Y-229250000D02*
X364625000Y-229250000D01*
X364625000Y-229900000D02*
X364625000Y-229250000D01*
%TO.N,Net-(J17-Pad1)*%
X364625000Y-273000000D02*
X365525000Y-273000000D01*
X369500000Y-278225000D02*
X372000000Y-280725000D01*
X365525000Y-273000000D02*
X369500000Y-276975000D01*
X369500000Y-276975000D02*
X369500000Y-278225000D01*
X364625000Y-272350000D02*
X364625000Y-273000000D01*
%TO.N,Net-(J17-Pad3)*%
X365825000Y-271050000D02*
X364625000Y-271050000D01*
X364625000Y-271700000D02*
X364625000Y-271050000D01*
X372000000Y-277225000D02*
X365825000Y-271050000D01*
%TO.N,Net-(J17-Pad7)*%
X370225000Y-268450000D02*
X364625000Y-268450000D01*
X372000000Y-270225000D02*
X370225000Y-268450000D01*
X364625000Y-269100000D02*
X364625000Y-268450000D01*
%TO.N,Net-(J17-Pad9)*%
X364625000Y-267800000D02*
X364625000Y-267150000D01*
X371575000Y-267150000D02*
X364625000Y-267150000D01*
X372000000Y-266725000D02*
X371575000Y-267150000D01*
%TO.N,Net-(J17-Pad13)*%
X367175000Y-264550000D02*
X364625000Y-264550000D01*
X364625000Y-265200000D02*
X364625000Y-264550000D01*
X372000000Y-259725000D02*
X367175000Y-264550000D01*
%TO.N,Net-(J17-Pad15)*%
X364975000Y-263250000D02*
X364625000Y-263250000D01*
X372000000Y-256225000D02*
X364975000Y-263250000D01*
X364625000Y-263900000D02*
X364625000Y-263250000D01*
%TO.N,Net-(J18-Pad1)*%
X364625000Y-306325000D02*
X364625000Y-306975000D01*
X364625000Y-306975000D02*
X365525000Y-306975000D01*
X365525000Y-306975000D02*
X369500000Y-310950000D01*
X369500000Y-312225000D02*
X372000000Y-314725000D01*
X369500000Y-310950000D02*
X369500000Y-312225000D01*
%TO.N,Net-(J18-Pad3)*%
X364625000Y-305675000D02*
X364625000Y-305025000D01*
X365800000Y-305025000D02*
X364625000Y-305025000D01*
X372000000Y-311225000D02*
X365800000Y-305025000D01*
%TO.N,Net-(J18-Pad5)*%
X368000000Y-303725000D02*
X364625000Y-303725000D01*
X372000000Y-307725000D02*
X368000000Y-303725000D01*
X364625000Y-304375000D02*
X364625000Y-303725000D01*
%TO.N,Net-(J18-Pad7)*%
X372000000Y-304225000D02*
X370200000Y-302425000D01*
X370200000Y-302425000D02*
X364625000Y-302425000D01*
X364625000Y-303075000D02*
X364625000Y-302425000D01*
%TO.N,Net-(J18-Pad9)*%
X371600000Y-301125000D02*
X364625000Y-301125000D01*
X364625000Y-301775000D02*
X364625000Y-301125000D01*
X372000000Y-300725000D02*
X371600000Y-301125000D01*
%TO.N,Net-(J18-Pad11)*%
X369400000Y-299825000D02*
X364625000Y-299825000D01*
X364625000Y-300475000D02*
X364625000Y-299825000D01*
X372000000Y-297225000D02*
X369400000Y-299825000D01*
%TO.N,Net-(J18-Pad13)*%
X364625000Y-299175000D02*
X364625000Y-298525000D01*
X372000000Y-293725000D02*
X367200000Y-298525000D01*
X367200000Y-298525000D02*
X364625000Y-298525000D01*
%TO.N,Net-(J18-Pad15)*%
X372000000Y-290225000D02*
X365000000Y-297225000D01*
X365000000Y-297225000D02*
X364625000Y-297225000D01*
X364625000Y-297875000D02*
X364625000Y-297225000D01*
%TO.N,Net-(J19-Pad1)*%
X365525000Y-340975000D02*
X369500000Y-344950000D01*
X364625000Y-340975000D02*
X365525000Y-340975000D01*
X369500000Y-344950000D02*
X369500000Y-346225000D01*
X369500000Y-346225000D02*
X372000000Y-348725000D01*
X364625000Y-340325000D02*
X364625000Y-340975000D01*
%TO.N,Net-(J19-Pad3)*%
X372000000Y-345225000D02*
X365750000Y-338975000D01*
X365750000Y-338975000D02*
X364475000Y-338975000D01*
X364625000Y-339675000D02*
X364625000Y-339025000D01*
%TO.N,Net-(J19-Pad5)*%
X364625000Y-338375000D02*
X364625000Y-337725000D01*
X372000000Y-341725000D02*
X368000000Y-337725000D01*
X368000000Y-337725000D02*
X364625000Y-337725000D01*
%TO.N,Net-(J19-Pad7)*%
X372000000Y-338225000D02*
X370200000Y-336425000D01*
X370200000Y-336425000D02*
X364625000Y-336425000D01*
X364625000Y-337075000D02*
X364625000Y-336425000D01*
%TO.N,Net-(J19-Pad9)*%
X372000000Y-334725000D02*
X371600000Y-335125000D01*
X371600000Y-335125000D02*
X364625000Y-335125000D01*
X364625000Y-335775000D02*
X364625000Y-335125000D01*
%TO.N,Net-(J19-Pad11)*%
X372000000Y-331225000D02*
X369400000Y-333825000D01*
X369400000Y-333825000D02*
X364625000Y-333825000D01*
X364625000Y-334475000D02*
X364625000Y-333825000D01*
%TO.N,Net-(J19-Pad13)*%
X364625000Y-333175000D02*
X364625000Y-332525000D01*
X367200000Y-332525000D02*
X364625000Y-332525000D01*
X372000000Y-327725000D02*
X367200000Y-332525000D01*
%TO.N,Net-(J19-Pad15)*%
X372000000Y-324225000D02*
X365000000Y-331225000D01*
X364625000Y-331875000D02*
X364625000Y-331225000D01*
X365000000Y-331225000D02*
X364625000Y-331225000D01*
%TO.N,Net-(J20-Pad1)*%
X416500000Y-190975000D02*
X416500000Y-192225000D01*
X412525000Y-187000000D02*
X416500000Y-190975000D01*
X411625000Y-187000000D02*
X412525000Y-187000000D01*
X416500000Y-192225000D02*
X419000000Y-194725000D01*
X411625000Y-186350000D02*
X411625000Y-187000000D01*
%TO.N,Net-(J20-Pad3)*%
X411625000Y-185700000D02*
X411625000Y-185050000D01*
X419000000Y-191225000D02*
X412825000Y-185050000D01*
X412825000Y-185050000D02*
X411625000Y-185050000D01*
%TO.N,Net-(J20-Pad5)*%
X419000000Y-187725000D02*
X415025000Y-183750000D01*
X415025000Y-183750000D02*
X411625000Y-183750000D01*
X411625000Y-184400000D02*
X411625000Y-183750000D01*
%TO.N,Net-(J20-Pad7)*%
X417225000Y-182450000D02*
X411625000Y-182450000D01*
X419000000Y-184225000D02*
X417225000Y-182450000D01*
X411625000Y-183100000D02*
X411625000Y-182450000D01*
%TO.N,Net-(J20-Pad9)*%
X419000000Y-180725000D02*
X418575000Y-181150000D01*
X418575000Y-181150000D02*
X411625000Y-181150000D01*
X411625000Y-181800000D02*
X411625000Y-181150000D01*
%TO.N,Net-(J20-Pad11)*%
X411625000Y-180500000D02*
X411625000Y-179850000D01*
X416375000Y-179850000D02*
X411625000Y-179850000D01*
X419000000Y-177225000D02*
X416375000Y-179850000D01*
%TO.N,Net-(J20-Pad13)*%
X411625000Y-179200000D02*
X411625000Y-178550000D01*
X414175000Y-178550000D02*
X411625000Y-178550000D01*
X419000000Y-173725000D02*
X414175000Y-178550000D01*
%TO.N,Net-(J20-Pad15)*%
X419000000Y-170225000D02*
X411975000Y-177250000D01*
X411625000Y-177900000D02*
X411625000Y-177250000D01*
X411975000Y-177250000D02*
X411625000Y-177250000D01*
%TO.N,Net-(J21-Pad1)*%
X413000000Y-221000000D02*
X416500000Y-224500000D01*
X411625000Y-220350000D02*
X411625000Y-221000000D01*
X411625000Y-221000000D02*
X413000000Y-221000000D01*
X416500000Y-224500000D02*
X416500000Y-226225000D01*
X416500000Y-226225000D02*
X419000000Y-228725000D01*
%TO.N,Net-(J21-Pad3)*%
X419000000Y-225225000D02*
X412825000Y-219050000D01*
X411625000Y-219700000D02*
X411625000Y-219050000D01*
X412825000Y-219050000D02*
X411625000Y-219050000D01*
%TO.N,Net-(J21-Pad5)*%
X411625000Y-218400000D02*
X411625000Y-217750000D01*
X415025000Y-217750000D02*
X411625000Y-217750000D01*
X419000000Y-221725000D02*
X415025000Y-217750000D01*
%TO.N,Net-(J21-Pad7)*%
X411625000Y-217100000D02*
X411625000Y-216450000D01*
X419000000Y-218225000D02*
X417225000Y-216450000D01*
X417225000Y-216450000D02*
X411625000Y-216450000D01*
%TO.N,Net-(J21-Pad9)*%
X418575000Y-215150000D02*
X411625000Y-215150000D01*
X419000000Y-214725000D02*
X418575000Y-215150000D01*
X411625000Y-215800000D02*
X411625000Y-215150000D01*
%TO.N,Net-(J21-Pad11)*%
X411625000Y-214500000D02*
X411625000Y-213850000D01*
X416375000Y-213850000D02*
X411625000Y-213850000D01*
X419000000Y-211225000D02*
X416375000Y-213850000D01*
%TO.N,Net-(J21-Pad13)*%
X419000000Y-207725000D02*
X414175000Y-212550000D01*
X414175000Y-212550000D02*
X411625000Y-212550000D01*
X411625000Y-213200000D02*
X411625000Y-212550000D01*
%TO.N,Net-(J21-Pad15)*%
X411625000Y-211900000D02*
X411625000Y-211250000D01*
X411975000Y-211250000D02*
X411625000Y-211250000D01*
X419000000Y-204225000D02*
X411975000Y-211250000D01*
%TO.N,Net-(J22-Pad3)*%
X419000000Y-259225000D02*
X412825000Y-253050000D01*
X411625000Y-253700000D02*
X411625000Y-253050000D01*
X412825000Y-253050000D02*
X411625000Y-253050000D01*
%TO.N,Net-(J22-Pad5)*%
X419000000Y-255725000D02*
X415025000Y-251750000D01*
X411625000Y-252400000D02*
X411625000Y-251750000D01*
X415025000Y-251750000D02*
X411625000Y-251750000D01*
%TO.N,Net-(J22-Pad9)*%
X418575000Y-249150000D02*
X411625000Y-249150000D01*
X419000000Y-248725000D02*
X418575000Y-249150000D01*
X411625000Y-249800000D02*
X411625000Y-249150000D01*
%TO.N,Net-(J22-Pad11)*%
X416375000Y-247850000D02*
X411625000Y-247850000D01*
X419000000Y-245225000D02*
X416375000Y-247850000D01*
X411625000Y-248500000D02*
X411625000Y-247850000D01*
%TO.N,Net-(J22-Pad13)*%
X411625000Y-247200000D02*
X411625000Y-246550000D01*
X414175000Y-246550000D02*
X411625000Y-246550000D01*
X419000000Y-241725000D02*
X414175000Y-246550000D01*
%TO.N,Net-(J22-Pad15)*%
X411975000Y-245250000D02*
X411625000Y-245250000D01*
X419000000Y-238225000D02*
X411975000Y-245250000D01*
X411625000Y-245900000D02*
X411625000Y-245250000D01*
%TO.N,Net-(J23-Pad1)*%
X411625000Y-289000000D02*
X412525000Y-289000000D01*
X411625000Y-288350000D02*
X411625000Y-289000000D01*
X416500000Y-294225000D02*
X419000000Y-296725000D01*
X412525000Y-289000000D02*
X416500000Y-292975000D01*
X416500000Y-292975000D02*
X416500000Y-294225000D01*
%TO.N,Net-(J23-Pad3)*%
X412825000Y-287050000D02*
X411625000Y-287050000D01*
X411625000Y-287700000D02*
X411625000Y-287050000D01*
X419000000Y-293225000D02*
X412825000Y-287050000D01*
%TO.N,Net-(J23-Pad5)*%
X411625000Y-286400000D02*
X411625000Y-285750000D01*
X419000000Y-289725000D02*
X415025000Y-285750000D01*
X415025000Y-285750000D02*
X411625000Y-285750000D01*
%TO.N,Net-(J23-Pad7)*%
X419000000Y-286225000D02*
X417225000Y-284450000D01*
X417225000Y-284450000D02*
X411625000Y-284450000D01*
X411625000Y-285100000D02*
X411625000Y-284450000D01*
%TO.N,Net-(J23-Pad9)*%
X418575000Y-283150000D02*
X411625000Y-283150000D01*
X411625000Y-283800000D02*
X411625000Y-283150000D01*
X419000000Y-282725000D02*
X418575000Y-283150000D01*
%TO.N,Net-(J23-Pad11)*%
X416375000Y-281850000D02*
X411625000Y-281850000D01*
X419000000Y-279225000D02*
X416375000Y-281850000D01*
X411625000Y-282500000D02*
X411625000Y-281850000D01*
%TO.N,Net-(J23-Pad13)*%
X414175000Y-280550000D02*
X411625000Y-280550000D01*
X419000000Y-275725000D02*
X414175000Y-280550000D01*
X411625000Y-281200000D02*
X411625000Y-280550000D01*
%TO.N,Net-(J23-Pad15)*%
X419000000Y-272225000D02*
X411975000Y-279250000D01*
X411975000Y-279250000D02*
X411625000Y-279250000D01*
X411625000Y-279900000D02*
X411625000Y-279250000D01*
%TO.N,Net-(J24-Pad1)*%
X416500000Y-326975000D02*
X416500000Y-328225000D01*
X412525000Y-323000000D02*
X416500000Y-326975000D01*
X411625000Y-323000000D02*
X412525000Y-323000000D01*
X411625000Y-322350000D02*
X411625000Y-323000000D01*
X416500000Y-328225000D02*
X419000000Y-330725000D01*
%TO.N,Net-(J24-Pad3)*%
X419000000Y-327225000D02*
X412775000Y-321000000D01*
X411625000Y-321700000D02*
X411625000Y-321050000D01*
X412775000Y-321000000D02*
X411500000Y-321000000D01*
%TO.N,Net-(J24-Pad5)*%
X415025000Y-319750000D02*
X411625000Y-319750000D01*
X419000000Y-323725000D02*
X415025000Y-319750000D01*
X411625000Y-320400000D02*
X411625000Y-319750000D01*
%TO.N,Net-(J24-Pad7)*%
X419000000Y-320225000D02*
X417225000Y-318450000D01*
X417225000Y-318450000D02*
X411625000Y-318450000D01*
X411625000Y-319100000D02*
X411625000Y-318450000D01*
%TO.N,Net-(J24-Pad9)*%
X411625000Y-317800000D02*
X411625000Y-317150000D01*
X419000000Y-316725000D02*
X418575000Y-317150000D01*
X418575000Y-317150000D02*
X411625000Y-317150000D01*
%TO.N,Net-(J24-Pad11)*%
X416375000Y-315850000D02*
X411625000Y-315850000D01*
X419000000Y-313225000D02*
X416375000Y-315850000D01*
X411625000Y-316500000D02*
X411625000Y-315850000D01*
%TO.N,Net-(J24-Pad13)*%
X411625000Y-315200000D02*
X411625000Y-314550000D01*
X414175000Y-314550000D02*
X411625000Y-314550000D01*
X419000000Y-309725000D02*
X414175000Y-314550000D01*
%TO.N,Net-(J24-Pad15)*%
X411625000Y-313900000D02*
X411625000Y-313250000D01*
X419000000Y-306225000D02*
X411975000Y-313250000D01*
X411975000Y-313250000D02*
X411625000Y-313250000D01*
D28*
%TO.N,Net-(MCU1-Pad36)*%
X344500000Y-173745000D02*
X344500000Y-259775000D01*
X349925000Y-265200000D02*
X351375000Y-265200000D01*
X340120000Y-169365000D02*
X344500000Y-173745000D01*
X344500000Y-259775000D02*
X349925000Y-265200000D01*
D27*
%TO.N,Net-(J3-Pad1)*%
X249000000Y-243050000D02*
X249000000Y-241750000D01*
X253375000Y-247175000D02*
X253375000Y-246525000D01*
X249000000Y-241750000D02*
X246000000Y-238750000D01*
X252475000Y-246525000D02*
X249000000Y-243050000D01*
X253375000Y-246525000D02*
X252475000Y-246525000D01*
%TO.N,Net-(J3-Pad5)*%
X250025000Y-249775000D02*
X253375000Y-249775000D01*
X246000000Y-245750000D02*
X250025000Y-249775000D01*
X253375000Y-249125000D02*
X253375000Y-249775000D01*
%TO.N,Net-(J8-Pad3)*%
X300375000Y-229800000D02*
X300375000Y-230450000D01*
X299200000Y-230450000D02*
X300375000Y-230450000D01*
X293000000Y-224250000D02*
X299200000Y-230450000D01*
%TO.N,Net-(J10-Pad1)*%
X299475000Y-296500000D02*
X295750000Y-292775000D01*
X300375000Y-296500000D02*
X299475000Y-296500000D01*
X295750000Y-291500000D02*
X293000000Y-288750000D01*
X300375000Y-297150000D02*
X300375000Y-296500000D01*
X295750000Y-292775000D02*
X295750000Y-291500000D01*
%TO.N,Net-(J14-Pad1)*%
X364625000Y-170350000D02*
X364625000Y-171000000D01*
X365525000Y-171000000D02*
X369250000Y-174725000D01*
X369250000Y-174725000D02*
X369250000Y-175975000D01*
X369250000Y-175975000D02*
X372000000Y-178725000D01*
X364625000Y-171000000D02*
X365525000Y-171000000D01*
%TO.N,Net-(J14-Pad3)*%
X372000000Y-175225000D02*
X365825000Y-169050000D01*
X364625000Y-169700000D02*
X364625000Y-169050000D01*
X365825000Y-169050000D02*
X364625000Y-169050000D01*
%TO.N,Net-(J14-Pad5)*%
X372000000Y-171725000D02*
X368025000Y-167750000D01*
X364625000Y-168400000D02*
X364625000Y-167750000D01*
X368025000Y-167750000D02*
X364625000Y-167750000D01*
%TO.N,Net-(J14-Pad7)*%
X372000000Y-168225000D02*
X370225000Y-166450000D01*
X370225000Y-166450000D02*
X364625000Y-166450000D01*
X364625000Y-167100000D02*
X364625000Y-166450000D01*
%TO.N,Net-(J14-Pad9)*%
X371575000Y-165150000D02*
X364625000Y-165150000D01*
X364625000Y-165800000D02*
X364625000Y-165150000D01*
X372000000Y-164725000D02*
X371575000Y-165150000D01*
%TO.N,Net-(J14-Pad11)*%
X372000000Y-161225000D02*
X369375000Y-163850000D01*
X364625000Y-164500000D02*
X364625000Y-163850000D01*
X369375000Y-163850000D02*
X364625000Y-163850000D01*
%TO.N,Net-(J14-Pad13)*%
X364625000Y-163200000D02*
X364625000Y-162550000D01*
X367175000Y-162550000D02*
X364625000Y-162550000D01*
X372000000Y-157725000D02*
X367175000Y-162550000D01*
%TO.N,Net-(J15-Pad1)*%
X369500000Y-210225000D02*
X372000000Y-212725000D01*
X365525000Y-204975000D02*
X369500000Y-208950000D01*
X369500000Y-208950000D02*
X369500000Y-210225000D01*
X364625000Y-204975000D02*
X364625000Y-204325000D01*
X364625000Y-204975000D02*
X365525000Y-204975000D01*
%TO.N,Net-(J15-Pad5)*%
X372000000Y-205725000D02*
X368000000Y-201725000D01*
X364625000Y-202375000D02*
X364625000Y-201725000D01*
X368000000Y-201725000D02*
X364625000Y-201725000D01*
%TO.N,Net-(J15-Pad7)*%
X364625000Y-201075000D02*
X364625000Y-200425000D01*
X370200000Y-200425000D02*
X364625000Y-200425000D01*
X372000000Y-202225000D02*
X370200000Y-200425000D01*
%TO.N,Net-(J15-Pad9)*%
X371600000Y-199125000D02*
X364625000Y-199125000D01*
X364625000Y-199775000D02*
X364625000Y-199125000D01*
X372000000Y-198725000D02*
X371600000Y-199125000D01*
%TO.N,Net-(J15-Pad15)*%
X365000000Y-195225000D02*
X364625000Y-195225000D01*
X364625000Y-195875000D02*
X364625000Y-195225000D01*
X372000000Y-188225000D02*
X365000000Y-195225000D01*
%TO.N,Net-(J17-Pad5)*%
X368025000Y-269750000D02*
X364625000Y-269750000D01*
X364625000Y-270400000D02*
X364625000Y-269750000D01*
X372000000Y-273725000D02*
X368025000Y-269750000D01*
%TO.N,Net-(J17-Pad11)*%
X369375000Y-265850000D02*
X364625000Y-265850000D01*
X372000000Y-263225000D02*
X369375000Y-265850000D01*
X364625000Y-266500000D02*
X364625000Y-265850000D01*
%TO.N,Net-(J22-Pad1)*%
X416500000Y-258975000D02*
X416500000Y-260225000D01*
X412525000Y-255000000D02*
X416500000Y-258975000D01*
X411625000Y-255000000D02*
X412525000Y-255000000D01*
X411625000Y-255000000D02*
X411625000Y-254350000D01*
X416500000Y-260225000D02*
X419000000Y-262725000D01*
%TO.N,Net-(J22-Pad7)*%
X419000000Y-252225000D02*
X417225000Y-250450000D01*
X411625000Y-251100000D02*
X411625000Y-250450000D01*
X417225000Y-250450000D02*
X411625000Y-250450000D01*
D28*
%TO.N,Net-(MCU1-Pad15)*%
X269750000Y-149125000D02*
X269750000Y-181750000D01*
X317012299Y-305012299D02*
X316424598Y-305600000D01*
X316424598Y-305600000D02*
X313625000Y-305600000D01*
X317024598Y-237024598D02*
X316449196Y-237600000D01*
X318125000Y-143375000D02*
X317175000Y-144325000D01*
X317132330Y-339142269D02*
X316674599Y-339600000D01*
X266625000Y-255625000D02*
X269400000Y-255625000D01*
X316674599Y-339600000D02*
X313625000Y-339600000D01*
X269449196Y-289625000D02*
X266625000Y-289625000D01*
X316700098Y-271625000D02*
X313625000Y-271625000D01*
X317025500Y-271299598D02*
X316700098Y-271625000D01*
X329500000Y-142250000D02*
X329500000Y-175500000D01*
X317175000Y-144325000D02*
X274550000Y-144325000D01*
X269400000Y-255625000D02*
X269750000Y-255275000D01*
X317012299Y-169262299D02*
X316424598Y-169850000D01*
X316449196Y-237600000D02*
X313625000Y-237600000D01*
X317024598Y-203024598D02*
X316699196Y-203350000D01*
X269199196Y-187625000D02*
X266625000Y-187625000D01*
X269774598Y-187049598D02*
X269199196Y-187625000D01*
X269174598Y-323625000D02*
X266625000Y-323625000D01*
X316424598Y-169850000D02*
X313625000Y-169850000D01*
X328015000Y-176985000D02*
X324880000Y-176985000D01*
X318125000Y-143375000D02*
X322500000Y-139000000D01*
X269774598Y-221250402D02*
X269400000Y-221625000D01*
X317025500Y-271299598D02*
X317024598Y-271299598D01*
X329500000Y-175500000D02*
X328015000Y-176985000D01*
X269774598Y-289299598D02*
X269449196Y-289625000D01*
X326250000Y-139000000D02*
X329500000Y-142250000D01*
X269400000Y-221625000D02*
X266625000Y-221625000D01*
X322500000Y-139000000D02*
X326250000Y-139000000D01*
X316699196Y-203350000D02*
X313625000Y-203350000D01*
X274550000Y-144325000D02*
X269750000Y-149125000D01*
X269762299Y-323037299D02*
X269174598Y-323625000D01*
%TO.N,Net-(R1-Pad2)*%
X266625000Y-219675000D02*
X267874598Y-219675000D01*
X351375000Y-163850000D02*
X348575000Y-163850000D01*
X394850000Y-179850000D02*
X394250000Y-179250000D01*
X315100000Y-235650000D02*
X316000000Y-234750000D01*
X348575000Y-231850000D02*
X348000000Y-231275000D01*
X351375000Y-231850000D02*
X348575000Y-231850000D01*
X398375000Y-179850000D02*
X394850000Y-179850000D01*
X398375000Y-213850000D02*
X394825000Y-213850000D01*
X348575000Y-163850000D02*
X348000000Y-163275000D01*
D24*
X268750000Y-149000000D02*
X268750000Y-180500000D01*
D28*
X348575000Y-333825000D02*
X348000000Y-333250000D01*
X348575000Y-299825000D02*
X348000000Y-299250000D01*
X267874598Y-253675000D02*
X268762299Y-252787299D01*
D24*
X321250000Y-138250000D02*
X316000000Y-143500000D01*
D28*
X266625000Y-287675000D02*
X267850000Y-287675000D01*
X267850000Y-287675000D02*
X268750000Y-286775000D01*
X394825000Y-247850000D02*
X394250000Y-247275000D01*
D24*
X315875000Y-143625000D02*
X315750000Y-143750000D01*
X333400000Y-174500000D02*
X331500000Y-174500000D01*
D28*
X266625000Y-185675000D02*
X268075402Y-185675000D01*
D24*
X332875000Y-143375000D02*
X327750000Y-138250000D01*
D28*
X313625000Y-201400000D02*
X315350000Y-201400000D01*
X315350000Y-201400000D02*
X316000000Y-200750000D01*
D24*
X316000000Y-143500000D02*
X315875000Y-143625000D01*
D28*
X351375000Y-299825000D02*
X348575000Y-299825000D01*
X351375000Y-265850000D02*
X348575000Y-265850000D01*
X268075402Y-185675000D02*
X268737701Y-185012701D01*
X351375000Y-333825000D02*
X348575000Y-333825000D01*
X315075402Y-303650000D02*
X315987701Y-302737701D01*
D24*
X274000000Y-143750000D02*
X268750000Y-149000000D01*
D28*
X313625000Y-235650000D02*
X315100000Y-235650000D01*
D24*
X315750000Y-143750000D02*
X274000000Y-143750000D01*
X332875000Y-143375000D02*
X337750000Y-138500000D01*
D28*
X348575000Y-197825000D02*
X348000000Y-197250000D01*
X394825000Y-213850000D02*
X394250000Y-213275000D01*
X315100000Y-337650000D02*
X313625000Y-337650000D01*
X313625000Y-167900000D02*
X315100000Y-167900000D01*
X315100000Y-167900000D02*
X316000000Y-167000000D01*
D24*
X330250000Y-173250000D02*
X330250000Y-146000000D01*
D28*
X313625000Y-303650000D02*
X315075402Y-303650000D01*
X316000000Y-336750000D02*
X315100000Y-337650000D01*
D24*
X322750000Y-138250000D02*
X321250000Y-138250000D01*
X348000000Y-144750000D02*
X389250000Y-144750000D01*
D28*
X266625000Y-253675000D02*
X267874598Y-253675000D01*
D24*
X337750000Y-138500000D02*
X341750000Y-138500000D01*
D28*
X348575000Y-265850000D02*
X348000000Y-265275000D01*
X267874598Y-219675000D02*
X268762299Y-218787299D01*
D24*
X330250000Y-146000000D02*
X332875000Y-143375000D01*
D28*
X267874598Y-321675000D02*
X266625000Y-321675000D01*
X394825000Y-315850000D02*
X394250000Y-315275000D01*
X394825000Y-281850000D02*
X394250000Y-281275000D01*
D24*
X341750000Y-138500000D02*
X348000000Y-144750000D01*
X327750000Y-138250000D02*
X322750000Y-138250000D01*
D28*
X398375000Y-247850000D02*
X394825000Y-247850000D01*
X398375000Y-281850000D02*
X394825000Y-281850000D01*
X315350000Y-269675000D02*
X316000000Y-269025000D01*
X398375000Y-315850000D02*
X394825000Y-315850000D01*
X268762299Y-320787299D02*
X267874598Y-321675000D01*
X313625000Y-269675000D02*
X315350000Y-269675000D01*
X351375000Y-197825000D02*
X348575000Y-197825000D01*
D24*
X331500000Y-174500000D02*
X330250000Y-173250000D01*
D28*
%TO.N,Net-(U1-Pad6)*%
X314500000Y-337000000D02*
X313625000Y-337000000D01*
X314500000Y-235000000D02*
X313625000Y-235000000D01*
X317750000Y-266025000D02*
X314750000Y-269025000D01*
X351375000Y-164500000D02*
X347475000Y-164500000D01*
D27*
X331125000Y-165625000D02*
X338000000Y-158750000D01*
D28*
X317750000Y-197500000D02*
X314500000Y-200750000D01*
D27*
X317900000Y-144850000D02*
X323000000Y-139750000D01*
D28*
X347725000Y-198475000D02*
X347000000Y-197750000D01*
X267500000Y-253025000D02*
X270750000Y-249775000D01*
X314500000Y-200750000D02*
X313625000Y-200750000D01*
X267500000Y-219025000D02*
X266625000Y-219025000D01*
X347725000Y-232500000D02*
X347000000Y-231775000D01*
X314750000Y-269025000D02*
X313625000Y-269025000D01*
X314500000Y-167250000D02*
X313625000Y-167250000D01*
X393975000Y-248500000D02*
X393250000Y-247775000D01*
D27*
X327750000Y-141500000D02*
X327750000Y-169000000D01*
D28*
X347725000Y-266500000D02*
X347000000Y-265775000D01*
X347725000Y-300475000D02*
X351375000Y-300475000D01*
X267425000Y-185025000D02*
X270750000Y-181700000D01*
X347000000Y-299750000D02*
X347725000Y-300475000D01*
X267250000Y-287025000D02*
X270750000Y-283525000D01*
X351375000Y-198475000D02*
X347725000Y-198475000D01*
X317750000Y-299750000D02*
X314500000Y-303000000D01*
D27*
X323000000Y-139750000D02*
X326000000Y-139750000D01*
D28*
X317750000Y-333750000D02*
X314500000Y-337000000D01*
X347475000Y-164500000D02*
X347000000Y-164025000D01*
X267500000Y-321025000D02*
X266625000Y-321025000D01*
X351375000Y-232500000D02*
X347725000Y-232500000D01*
X393975000Y-282500000D02*
X393250000Y-281775000D01*
D27*
X338000000Y-141000000D02*
X339250000Y-139750000D01*
D28*
X314500000Y-303000000D02*
X313625000Y-303000000D01*
D27*
X326000000Y-139750000D02*
X327750000Y-141500000D01*
D28*
X317750000Y-164000000D02*
X314500000Y-167250000D01*
D27*
X270750000Y-149250000D02*
X270750000Y-181700000D01*
X327750000Y-170950000D02*
X327750000Y-169000000D01*
D28*
X317750000Y-333500000D02*
X317750000Y-333750000D01*
X347000000Y-333750000D02*
X347725000Y-334475000D01*
X393975000Y-316500000D02*
X393250000Y-315775000D01*
X317750000Y-231750000D02*
X314500000Y-235000000D01*
X398375000Y-282500000D02*
X393975000Y-282500000D01*
D27*
X347000000Y-145750000D02*
X388750000Y-145750000D01*
D28*
X347725000Y-334475000D02*
X351375000Y-334475000D01*
X266625000Y-253025000D02*
X267500000Y-253025000D01*
X398375000Y-248500000D02*
X393975000Y-248500000D01*
X398375000Y-316500000D02*
X393975000Y-316500000D01*
X393975000Y-214500000D02*
X393250000Y-213775000D01*
D27*
X341000000Y-139750000D02*
X347000000Y-145750000D01*
X338000000Y-158750000D02*
X338000000Y-141000000D01*
D28*
X266625000Y-287025000D02*
X267250000Y-287025000D01*
X266625000Y-185025000D02*
X267425000Y-185025000D01*
X398375000Y-214500000D02*
X393975000Y-214500000D01*
X270750000Y-215775000D02*
X267500000Y-219025000D01*
D27*
X275150000Y-144850000D02*
X270750000Y-149250000D01*
X339250000Y-139750000D02*
X341000000Y-139750000D01*
D28*
X398375000Y-180500000D02*
X393975000Y-180500000D01*
X270750000Y-317775000D02*
X267500000Y-321025000D01*
D27*
X317900000Y-144850000D02*
X275150000Y-144850000D01*
D28*
X351375000Y-266500000D02*
X347725000Y-266500000D01*
X393975000Y-180500000D02*
X393250000Y-179775000D01*
%TD*%
M02*
