M48
; DRILL file {KiCad (6.0.10)} date Tue Apr  2 10:47:44 2024
; FORMAT={-:-/ absolute / inch / decimal}
; #@! TF.CreationDate,2024-04-02T10:47:44-04:00
; #@! TF.GenerationSoftware,Kicad,Pcbnew,(6.0.10)
; #@! TF.FileFunction,Plated,1,4,PTH
FMAT,2
INCH
; #@! TA.AperFunction,Plated,PTH,ViaDrill
T1C0.0157
; #@! TA.AperFunction,Plated,PTH,ViaDrill
T2C0.0236
; #@! TA.AperFunction,Plated,PTH,ComponentDrill
T3C0.0315
; #@! TA.AperFunction,Plated,PTH,ComponentDrill
T4C0.0394
; #@! TA.AperFunction,Plated,PTH,ViaDrill
T5C0.0433
; #@! TA.AperFunction,Plated,PTH,ComponentDrill
T6C0.0472
; #@! TA.AperFunction,Plated,PTH,ViaDrill
T7C0.1181
%
G90
G05
T1
X10.4232Y-7.0177
X10.4232Y-8.3563
X10.4232Y-9.6949
X10.4232Y-11.0335
X10.4232Y-12.372
X10.5802Y-7.284
X10.5807Y-7.1063
X10.5807Y-11.2904
X10.5812Y-8.6137
X10.5812Y-9.9523
X10.5812Y-12.6294
X10.6201Y-7.1467
X10.6201Y-10.0502
X10.6206Y-12.718
X10.621Y-7.3642
X10.621Y-8.7106
X10.621Y-11.3897
X10.6594Y-7.1535
X10.6594Y-8.4951
X10.6594Y-9.8337
X10.6594Y-11.1624
X10.6594Y-12.5108
X10.7087Y-5.8858
X10.7288Y-7.216
X10.7584Y-8.5251
X10.778Y-9.844
X10.7977Y-11.1727
X10.8563Y-7.0876
X10.8563Y-8.4262
X10.8563Y-9.7648
X10.8563Y-11.1132
X12.2736Y-6.3189
X12.2736Y-7.6378
X12.2736Y-8.9862
X12.2736Y-10.3248
X12.2736Y-11.6634
X12.2736Y-13.002
X12.3652Y-5.7394
X12.4405Y-11.9188
X12.4409Y-6.5748
X12.4409Y-7.9035
X12.4409Y-9.2421
X12.4409Y-10.5915
X12.4409Y-13.2579
X12.4808Y-6.6639
X12.4808Y-12.0084
X12.4813Y-7.9931
X12.4813Y-9.3317
X12.4813Y-10.6811
X12.4855Y-13.3521
X12.5098Y-6.4567
X12.5098Y-7.7756
X12.5098Y-9.124
X12.5098Y-10.4734
X12.5098Y-11.8012
X12.5098Y-13.1299
X12.5157Y-5.7028
X12.5246Y-5.6447
X12.5694Y-7.8647
X12.5891Y-9.1836
X12.5989Y-10.5231
X12.6181Y-11.8307
X12.6969Y-6.1319
X12.6969Y-6.4075
X12.6969Y-7.7362
X12.6969Y-9.0748
X12.6969Y-10.4242
X12.6969Y-11.752
X12.9035Y-6.6535
X13.0364Y-6.5207
X13.4941Y-6.25
X13.5531Y-12.8445
X13.5728Y-11.4862
X13.5925Y-10.1673
X13.6122Y-8.8484
X13.6309Y-7.5295
X13.6614Y-5.7382
X13.6614Y-6.4577
X13.6614Y-7.7854
X13.6614Y-9.125
X13.6614Y-10.4636
X13.6614Y-11.8012
X13.6614Y-13.1398
X13.7008Y-5.6988
X13.7008Y-6.4281
X13.7008Y-7.7657
X13.7008Y-9.1043
X13.7008Y-10.4429
X13.7008Y-11.7815
X13.7008Y-13.1201
X13.7402Y-5.6594
X13.7402Y-6.3396
X13.7402Y-13.0118
X13.7406Y-10.3351
X13.7406Y-11.6727
X13.7433Y-7.674
X13.7433Y-9.0037
X13.9173Y-6.6634
X13.9173Y-8.002
X13.9173Y-9.3406
X13.9173Y-10.6791
X13.9173Y-12.0177
X13.9173Y-13.3465
X14.0453Y-5.876
X15.3051Y-5.7382
X15.3248Y-5.6988
X15.3642Y-12.0571
X15.3839Y-10.7283
X15.4035Y-9.4193
X15.4232Y-8.1004
X15.4429Y-6.8012
X15.4823Y-7.0778
X15.4823Y-8.4163
X15.4823Y-9.7549
X15.4823Y-11.0935
X15.4823Y-12.4321
X15.5217Y-7.0571
X15.5217Y-8.3957
X15.5217Y-9.7343
X15.5217Y-11.0728
X15.5217Y-12.4114
X15.561Y-6.9104
X15.561Y-8.249
X15.561Y-9.5876
X15.561Y-10.936
X15.561Y-12.2844
X15.7677Y-7.2933
X15.7677Y-8.6319
X15.7677Y-9.9705
X15.7677Y-11.3091
X15.7677Y-12.6378
T2
X12.4852Y-5.6053
T3
X12.9905Y-13.2579
X13.1873Y-13.2579
T4
X12.7906Y-5.5679
X12.7906Y-5.6679
X12.7906Y-5.7679
X12.7906Y-5.8679
X12.7906Y-5.9679
X12.7906Y-6.0679
X12.7906Y-6.1679
X12.7906Y-6.2679
X12.7906Y-6.3679
X12.7906Y-6.4679
X12.7906Y-6.5679
X12.7906Y-6.6679
X12.7906Y-6.7679
X12.7906Y-6.8679
X12.7906Y-6.9679
X12.7906Y-7.0679
X12.7906Y-7.1679
X12.7906Y-7.2679
X12.7906Y-7.3679
X12.7906Y-7.4679
X12.7906Y-7.5679
X12.7906Y-7.6679
X12.7906Y-7.7679
X12.7906Y-7.8679
X13.3906Y-5.5679
X13.3906Y-5.6679
X13.3906Y-5.7679
X13.3906Y-5.8679
X13.3906Y-5.9679
X13.3906Y-6.0679
X13.3906Y-6.1679
X13.3906Y-6.2679
X13.3906Y-6.3679
X13.3906Y-6.4679
X13.3906Y-6.5679
X13.3906Y-6.6679
X13.3906Y-6.7679
X13.3906Y-6.8679
X13.3906Y-6.9679
X13.3906Y-7.0679
X13.3906Y-7.1679
X13.3906Y-7.2679
X13.3906Y-7.3679
X13.3906Y-7.4679
X13.3906Y-7.5679
X13.3906Y-7.6679
X13.3906Y-7.7679
X13.3906Y-7.8679
T5
X10.2362Y-6.6535
X10.2362Y-7.874
X10.2362Y-9.311
X10.2362Y-10.5512
X10.2362Y-11.8898
X12.0866Y-5.9449
X12.0866Y-7.1654
X12.0866Y-8.6024
X12.0866Y-9.8425
X12.0866Y-11.2795
X12.0866Y-12.5197
X14.0945Y-7.2441
X14.0945Y-8.4646
X14.0945Y-9.9213
X14.0945Y-11.122
X14.0945Y-12.5984
X14.0945Y-13.7992
X15.9449Y-7.874
X15.9449Y-9.0945
X15.9449Y-10.5512
X15.9449Y-11.8701
X15.9449Y-13.0906
T6
X9.2441Y-6.7913
X9.2441Y-6.9291
X9.2441Y-7.0669
X9.2441Y-7.2047
X9.2441Y-7.3425
X9.2441Y-7.4803
X9.2441Y-7.6181
X9.2441Y-7.7559
X9.2441Y-8.1299
X9.2441Y-8.2677
X9.2441Y-8.4055
X9.2441Y-8.5433
X9.2441Y-8.6811
X9.2441Y-8.8189
X9.2441Y-8.9567
X9.2441Y-9.0945
X9.2441Y-9.4685
X9.2441Y-9.6063
X9.2441Y-9.7441
X9.2441Y-9.8819
X9.2441Y-10.0197
X9.2441Y-10.1575
X9.2441Y-10.2953
X9.2441Y-10.4331
X9.2441Y-10.8071
X9.2441Y-10.9449
X9.2441Y-11.0827
X9.2441Y-11.2205
X9.2441Y-11.3583
X9.2441Y-11.4961
X9.2441Y-11.6339
X9.2441Y-11.7717
X9.2441Y-12.1457
X9.2441Y-12.2835
X9.2441Y-12.4213
X9.2441Y-12.5591
X9.2441Y-12.6969
X9.2441Y-12.8346
X9.2441Y-12.9724
X9.2441Y-13.1102
X9.685Y-6.7224
X9.685Y-6.8602
X9.685Y-6.998
X9.685Y-7.1358
X9.685Y-7.2736
X9.685Y-7.4114
X9.685Y-7.5492
X9.685Y-7.687
X9.685Y-8.061
X9.685Y-8.1988
X9.685Y-8.3366
X9.685Y-8.4744
X9.685Y-8.6122
X9.685Y-8.75
X9.685Y-8.8878
X9.685Y-9.0256
X9.685Y-9.3996
X9.685Y-9.5374
X9.685Y-9.6752
X9.685Y-9.813
X9.685Y-9.9508
X9.685Y-10.0886
X9.685Y-10.2264
X9.685Y-10.3642
X9.685Y-10.7382
X9.685Y-10.876
X9.685Y-11.0138
X9.685Y-11.1516
X9.685Y-11.2894
X9.685Y-11.4272
X9.685Y-11.565
X9.685Y-11.7028
X9.685Y-12.0768
X9.685Y-12.2146
X9.685Y-12.3524
X9.685Y-12.4902
X9.685Y-12.628
X9.685Y-12.7657
X9.685Y-12.9035
X9.685Y-13.0413
X11.0945Y-6.0827
X11.0945Y-6.2205
X11.0945Y-6.3583
X11.0945Y-6.4961
X11.0945Y-6.6339
X11.0945Y-6.7717
X11.0945Y-6.9094
X11.0945Y-7.0472
X11.0945Y-7.4213
X11.0945Y-7.5591
X11.0945Y-7.6969
X11.0945Y-7.8346
X11.0945Y-7.9724
X11.0945Y-8.1102
X11.0945Y-8.248
X11.0945Y-8.3858
X11.0945Y-8.7598
X11.0945Y-8.8976
X11.0945Y-9.0354
X11.0945Y-9.1732
X11.0945Y-9.311
X11.0945Y-9.4488
X11.0945Y-9.5866
X11.0945Y-9.7244
X11.0945Y-10.0984
X11.0945Y-10.2362
X11.0945Y-10.374
X11.0945Y-10.5118
X11.0945Y-10.6496
X11.0945Y-10.7874
X11.0945Y-10.9252
X11.0945Y-11.063
X11.0945Y-11.437
X11.0945Y-11.5748
X11.0945Y-11.7126
X11.0945Y-11.8504
X11.0945Y-11.9882
X11.0945Y-12.126
X11.0945Y-12.2638
X11.0945Y-12.4016
X11.0945Y-12.7756
X11.0945Y-12.9134
X11.0945Y-13.0512
X11.0945Y-13.189
X11.0945Y-13.3268
X11.0945Y-13.4646
X11.0945Y-13.6024
X11.0945Y-13.7402
X11.5354Y-6.0138
X11.5354Y-6.1516
X11.5354Y-6.2894
X11.5354Y-6.4272
X11.5354Y-6.565
X11.5354Y-6.7028
X11.5354Y-6.8406
X11.5354Y-6.9783
X11.5354Y-7.3524
X11.5354Y-7.4902
X11.5354Y-7.628
X11.5354Y-7.7657
X11.5354Y-7.9035
X11.5354Y-8.0413
X11.5354Y-8.1791
X11.5354Y-8.3169
X11.5354Y-8.6909
X11.5354Y-8.8287
X11.5354Y-8.9665
X11.5354Y-9.1043
X11.5354Y-9.2421
X11.5354Y-9.3799
X11.5354Y-9.5177
X11.5354Y-9.6555
X11.5354Y-10.0295
X11.5354Y-10.1673
X11.5354Y-10.3051
X11.5354Y-10.4429
X11.5354Y-10.5807
X11.5354Y-10.7185
X11.5354Y-10.8563
X11.5354Y-10.9941
X11.5354Y-11.3681
X11.5354Y-11.5059
X11.5354Y-11.6437
X11.5354Y-11.7815
X11.5354Y-11.9193
X11.5354Y-12.0571
X11.5354Y-12.1949
X11.5354Y-12.3327
X11.5354Y-12.7067
X11.5354Y-12.8445
X11.5354Y-12.9823
X11.5354Y-13.1201
X11.5354Y-13.2579
X11.5354Y-13.3957
X11.5354Y-13.5335
X11.5354Y-13.6713
X13.0217Y-13.6713
X13.1594Y-13.6713
X14.6457Y-6.0719
X14.6457Y-6.2096
X14.6457Y-6.3474
X14.6457Y-6.4852
X14.6457Y-6.623
X14.6457Y-6.7608
X14.6457Y-6.8986
X14.6457Y-7.0364
X14.6457Y-7.4104
X14.6457Y-7.5482
X14.6457Y-7.686
X14.6457Y-7.8238
X14.6457Y-7.9616
X14.6457Y-8.0994
X14.6457Y-8.2372
X14.6457Y-8.375
X14.6457Y-8.749
X14.6457Y-8.8868
X14.6457Y-9.0246
X14.6457Y-9.1624
X14.6457Y-9.3002
X14.6457Y-9.438
X14.6457Y-9.5758
X14.6457Y-9.7136
X14.6457Y-10.0876
X14.6457Y-10.2254
X14.6457Y-10.3632
X14.6457Y-10.501
X14.6457Y-10.6388
X14.6457Y-10.7766
X14.6457Y-10.9144
X14.6457Y-11.0522
X14.6457Y-11.4262
X14.6457Y-11.564
X14.6457Y-11.7018
X14.6457Y-11.8396
X14.6457Y-11.9774
X14.6457Y-12.1152
X14.6457Y-12.253
X14.6457Y-12.3907
X14.6457Y-12.7648
X14.6457Y-12.9026
X14.6457Y-13.0404
X14.6457Y-13.1781
X14.6457Y-13.3159
X14.6457Y-13.4537
X14.6457Y-13.5915
X14.6457Y-13.7293
X15.0866Y-6.003
X15.0866Y-6.1407
X15.0866Y-6.2785
X15.0866Y-6.4163
X15.0866Y-6.5541
X15.0866Y-6.6919
X15.0866Y-6.8297
X15.0866Y-6.9675
X15.0866Y-7.3415
X15.0866Y-7.4793
X15.0866Y-7.6171
X15.0866Y-7.7549
X15.0866Y-7.8927
X15.0866Y-8.0305
X15.0866Y-8.1683
X15.0866Y-8.3061
X15.0866Y-8.6801
X15.0866Y-8.8179
X15.0866Y-8.9557
X15.0866Y-9.0935
X15.0866Y-9.2313
X15.0866Y-9.3691
X15.0866Y-9.5069
X15.0866Y-9.6447
X15.0866Y-10.0187
X15.0866Y-10.1565
X15.0866Y-10.2943
X15.0866Y-10.4321
X15.0866Y-10.5699
X15.0866Y-10.7077
X15.0866Y-10.8455
X15.0866Y-10.9833
X15.0866Y-11.3573
X15.0866Y-11.4951
X15.0866Y-11.6329
X15.0866Y-11.7707
X15.0866Y-11.9085
X15.0866Y-12.0463
X15.0866Y-12.1841
X15.0866Y-12.3219
X15.0866Y-12.6959
X15.0866Y-12.8337
X15.0866Y-12.9715
X15.0866Y-13.1093
X15.0866Y-13.247
X15.0866Y-13.3848
X15.0866Y-13.5226
X15.0866Y-13.6604
X16.4961Y-6.7018
X16.4961Y-6.8396
X16.4961Y-6.9774
X16.4961Y-7.1152
X16.4961Y-7.253
X16.4961Y-7.3907
X16.4961Y-7.5285
X16.4961Y-7.6663
X16.4961Y-8.0404
X16.4961Y-8.1781
X16.4961Y-8.3159
X16.4961Y-8.4537
X16.4961Y-8.5915
X16.4961Y-8.7293
X16.4961Y-8.8671
X16.4961Y-9.0049
X16.4961Y-9.3789
X16.4961Y-9.5167
X16.4961Y-9.6545
X16.4961Y-9.7923
X16.4961Y-9.9301
X16.4961Y-10.0679
X16.4961Y-10.2057
X16.4961Y-10.3435
X16.4961Y-10.7175
X16.4961Y-10.8553
X16.4961Y-10.9931
X16.4961Y-11.1309
X16.4961Y-11.2687
X16.4961Y-11.4065
X16.4961Y-11.5443
X16.4961Y-11.6821
X16.4961Y-12.0561
X16.4961Y-12.1939
X16.4961Y-12.3317
X16.4961Y-12.4695
X16.4961Y-12.6073
X16.4961Y-12.7451
X16.4961Y-12.8829
X16.4961Y-13.0207
X16.937Y-6.6329
X16.937Y-6.7707
X16.937Y-6.9085
X16.937Y-7.0463
X16.937Y-7.1841
X16.937Y-7.3219
X16.937Y-7.4596
X16.937Y-7.5974
X16.937Y-7.9715
X16.937Y-8.1093
X16.937Y-8.247
X16.937Y-8.3848
X16.937Y-8.5226
X16.937Y-8.6604
X16.937Y-8.7982
X16.937Y-8.936
X16.937Y-9.31
X16.937Y-9.4478
X16.937Y-9.5856
X16.937Y-9.7234
X16.937Y-9.8612
X16.937Y-9.999
X16.937Y-10.1368
X16.937Y-10.2746
X16.937Y-10.6486
X16.937Y-10.7864
X16.937Y-10.9242
X16.937Y-11.062
X16.937Y-11.1998
X16.937Y-11.3376
X16.937Y-11.4754
X16.937Y-11.6132
X16.937Y-11.9872
X16.937Y-12.125
X16.937Y-12.2628
X16.937Y-12.4006
X16.937Y-12.5384
X16.937Y-12.6762
X16.937Y-12.814
X16.937Y-12.9518
T7
X10.2362Y-7.0472
X10.2362Y-7.3228
X10.2362Y-8.3858
X10.2362Y-8.6614
X10.2362Y-9.7244
X10.2362Y-10.0
X10.2362Y-11.063
X10.2362Y-11.3386
X10.2362Y-12.4016
X10.2362Y-12.6772
X12.0866Y-6.3386
X12.0866Y-6.6142
X12.0866Y-7.6772
X12.0866Y-7.9528
X12.0866Y-9.0157
X12.0866Y-9.2913
X12.0866Y-10.3543
X12.0866Y-10.6299
X12.0866Y-11.6929
X12.0866Y-11.9685
X12.0866Y-13.0315
X12.0866Y-13.3071
X14.0945Y-6.4173
X14.0945Y-6.6929
X14.0945Y-7.7559
X14.0945Y-8.0315
X14.0945Y-9.0945
X14.0945Y-9.3701
X14.0945Y-10.4331
X14.0945Y-10.7087
X14.0945Y-11.7717
X14.0945Y-12.0472
X14.0945Y-13.1102
X14.0945Y-13.3858
X15.9449Y-7.0472
X15.9449Y-7.3228
X15.9449Y-8.3858
X15.9449Y-8.6614
X15.9449Y-9.7244
X15.9449Y-10.0
X15.9449Y-11.063
X15.9449Y-11.3386
X15.9449Y-12.4016
X15.9449Y-12.6772
T0
M30
